SplineFontDB: 3.0
FontName: LinBiolinumO
FullName: Linux Biolinum O
FamilyName: Linux Biolinum O
Weight: Book
Copyright: Linux Libertine by Philipp H. Poll,\nOpen Font under Terms of following Free Software Licenses:\nGPL (General Public License) with font-exception and OFL (Open Font License).\nCreated with FontForge (http://fontforge.sf.net)\nSept 2003, 2004, 2005, 2006, 2007, 2008, 2009, 2010
UComments: "2003-08-29: Created.+AAoA-2004-07-25: v(1.0) release candidate+AAoA-2005-12-28: v(1.1.0) stable+AAoA-2006-01-01: v(2.0.0) stable+AAoA-2006-09-05: v(2.2.0) stable+AAoA-2006-12-04: v(2.3.0) stable+AAoA-2007-03-11: v(2.4.0) stable+AAoA-2007-12-00: v(2.7.0) stable+AAoA-2008-06-00: v(2.8.14) stable+AAoA" 
Version: 0.4.7
ItalicAngle: 0
UnderlinePosition: -98
UnderlineWidth: 40
Ascent: 754
Descent: 246
LayerCount: 2
Layer: 0 0 "Back"  1
Layer: 1 0 "Fore"  0
NeedsXUIDChange: 1
XUID: [1021 993 1524925707 2876416]
FSType: 0
OS2Version: 0
OS2_WeightWidthSlopeOnly: 0
OS2_UseTypoMetrics: 0
CreationTime: 1156455862
ModificationTime: 1262789590
PfmFamily: 17
TTFWeight: 400
TTFWidth: 5
LineGap: 0
VLineGap: 0
OS2TypoAscent: 894
OS2TypoAOffset: 0
OS2TypoDescent: -246
OS2TypoDOffset: 0
OS2TypoLinegap: 0
OS2WinAscent: 894
OS2WinAOffset: 0
OS2WinDescent: 246
OS2WinDOffset: 0
HheadAscent: 894
HheadAOffset: 0
HheadDescent: -246
HheadDOffset: 0
OS2FamilyClass: 261
OS2Vendor: 'PfEd'
Lookup: 3 0 0 "'aalt' Alle Alternativen zeigen"  {"'aalt' Alle Alternativen zeigen 1"  } ['aalt' ('DFLT' <'dflt' > 'cyrl' <'dflt' > 'grek' <'dflt' > 'latn' <'AZE ' 'CRT ' 'DEU ' 'MOL ' 'ROM ' 'TRK ' 'dflt' > ) ]
Lookup: 1 0 0 "'locl' Localized Forms Romaenisch"  {"'locl' Localized Forms Romaenisch 1"  } ['locl' ('latn' <'MOL ' 'ROM ' > ) ]
Lookup: 1 0 0 "'smcp' Gemeine nach Kapitaelchen i > i.sc"  {"'smcp' Gemeine nach Kapitaelchen i > i.sc 1"  } ['smcp' ('DFLT' <'dflt' > 'cyrl' <'dflt' > 'grek' <'dflt' > 'latn' <'DEU ' 'MOL ' 'ROM ' 'dflt' > ) ]

StartChar: exclam
Encoding: 33 33 0
Width: 228
VWidth: 999
Flags: HW
HStem: -10 112<76.3677 150.353> 638 20G<102 126.5>
VStem: 57 112<6.28114 82.4613> 59 110<425.857 643.461>
LayerCount: 2
Fore
SplineSet
113 658 m 0
 140 658 169 635 169 585 c 0
 169 520 153.2 478 143 392 c 0
 130.2 284 129 224 127 210 c 0
 126 199 123 190 113 190 c 0
 102 190 100 197 99 203 c 0
 97 224 92 314 84 392 c 0
 75 480 59 515 59 585 c 0
 59 639 91 658 113 658 c 0
57 44 m 1
 57 48 l 1
 66.2 74.5 80.8 89.8 111 102 c 1
 115 102 l 1
 144 91.5 159.8 76.2 169 48 c 1
 169 44 l 1
 158.8 11.8 143.2 -3 115 -10 c 1
 111 -10 l 1
 79.8 -3 65.8 10.5 57 44 c 1
EndSplineSet
Colour: ff80cc
EndChar

StartChar: quotedbl
Encoding: 34 34 1
Width: 336
VWidth: 999
Flags: HW
HStem: 426 218<85.8119 118.678> 427 218<211.812 244.678>
VStem: 63 86<487.695 633.98> 189 86<488.695 634.98>
LayerCount: 2
Fore
SplineSet
215 427 m 1
 215 427 189 586 189 595 c 0
 189 617 210 645 240 645 c 0
 266 645 275 628 275 612 c 0
 275 596 242 431 242 431 c 1
 215 427 l 1
89 426 m 1
 89 426 63 585 63 594 c 0
 63 616 84 644 114 644 c 0
 140 644 149 627 149 611 c 0
 149 595 116 430 116 430 c 1
 89 426 l 1
EndSplineSet
Colour: ff00ff
EndChar

StartChar: numbersign
Encoding: 35 35 2
Width: 440
VWidth: 487
Flags: HW
HStem: 183 48<32 115 156 258 299 382> 341 49<58 140 181 284 324 407>
DStem2: 88 13 121 13 0.158835 0.987305<5.24156 172.13 226.033 332.095 386.986 553.875> 232 13 265 13 0.155313 0.987865<5.12534 171.975 225.761 332.096 386.714 553.719>
LayerCount: 2
Fore
SplineSet
267 231 m 1
 284 341 l 1
 174 341 l 1
 156 231 l 1
 267 231 l 1
317 341 m 1
 299 231 l 1
 389 231 l 1
 382 183 l 1
 293 183 l 1
 265 13 l 1
 232 13 l 1
 258 183 l 1
 149 183 l 1
 121 13 l 1
 88 13 l 1
 115 183 l 1
 25 183 l 1
 32 231 l 1
 123 231 l 1
 140 341 l 1
 50 341 l 1
 58 390 l 1
 148 390 l 1
 175 560 l 1
 209 560 l 1
 181 390 l 1
 292 390 l 1
 318 560 l 1
 351 560 l 1
 324 390 l 1
 415 390 l 1
 407 341 l 1
 317 341 l 1
EndSplineSet
EndChar

StartChar: dollar
Encoding: 36 36 3
Width: 440
VWidth: 999
Flags: HW
HStem: -10 38<125.719 268.749> 537 35<147.385 268.858>
VStem: 47 64<387.28 494.938> 198 34<-81 627> 316 74<90.1876 201.177>
LayerCount: 2
Fore
SplineSet
198 28 m 1
 198 257.5 l 1
 123.7 288.2 47 330.6 47 422 c 0
 47 508.4 125.5 564.9 198 571.4 c 1
 198 627 l 1
 232 627 l 1
 232 571.5 l 1
 322.6 567 354 533 354 533 c 1
 356 530 l 1
 348 504 342 478 339 447 c 1
 330 446 l 1
 309.8 491.5 278.9 524.9 232 534.3 c 1
 232 327.2 l 1
 304 301.1 390 260.7 390 162 c 0
 390 85.3 316.4 13 232 -5.5 c 1
 232 -81 l 1
 198 -81 l 1
 198 -9.9 l 1
 195.7 -10 193.3 -10 191 -10 c 0
 85 -10 34 30 34 30 c 1
 32 33 l 1
 39 59 46 87 50 118 c 1
 58 119 l 1
 82.9 65.3 135.4 28.4 198 28 c 1
198 340.7 m 1
 198 536.9 l 1
 144.5 534.3 111 496.1 111 445 c 0
 111 388.7 159.3 358.1 198 340.7 c 1
232 243.7 m 1
 232 31.6 l 1
 277.9 41.8 316 74.2 316 131 c 0
 316 199.2 277.6 224.3 232 243.7 c 1
EndSplineSet
EndChar

StartChar: percent
Encoding: 37 37 4
Width: 637
VWidth: 999
Flags: HW
HStem: -12 29<446.826 512.932> 225 31<488.229 553.742> 303 29<126.123 191.163> 484 37<279.857 459.046> 540 31<166.506 233.537>
VStem: 59 51<340.095 479.734> 246 31<405.445 504.773> 380 52<24.9702 164.687> 568 30<93.569 210.69>
DStem2: 102 3 136 -12 0.584454 0.811427<7.70004 615.532 651.531 704.931>
LayerCount: 2
Fore
SplineSet
432 83 m 0
 432 31 458 17 477 17 c 0
 532 17 568 108 568 164 c 0
 568 216 537 225 523 225 c 0
 474 225 432 141 432 83 c 0
380 98 m 0
 380 173 438 256 512 256 c 0
 552 256 598 238 598 165 c 0
 598 98 554 -12 471 -12 c 0
 410 -12 380 45 380 98 c 0
364 521 m 0
 406 521 483 533 514 575 c 1
 546 559 l 1
 136 -12 l 1
 102 3 l 1
 461 503 l 1
 423 488 384 484 354 484 c 0
 331 484 293 494 274 505 c 1
 276 498 277 489 277 480 c 0
 277 416 233 303 149 303 c 0
 87 303 59 361 59 412 c 0
 59 489 118 571 190 571 c 0
 218 571 247 558 257 546 c 1
 311 521 346 521 364 521 c 0
110 398 m 0
 110 346 137 332 155 332 c 0
 210 332 246 421 246 479 c 0
 246 529 219 540 201 540 c 0
 152 540 110 456 110 398 c 0
EndSplineSet
EndChar

StartChar: parenleft
Encoding: 40 40 5
Width: 300
VWidth: 999
Flags: HW
VStem: 44 78<97.6984 405.148>
LayerCount: 2
Fore
SplineSet
44 252 m 0
 44 438 137 605 256 707 c 1
 279 689 l 1
 247 653 127 515 127 252 c 0
 127 -11 246 -149 279 -187 c 1
 256 -204 l 1
 48 -24 44 207 44 252 c 0
EndSplineSet
Substitution2: "'c2sc' Versale nach Kapitaelchen 1" parenleft.sc
AlternateSubs2: "'aalt' Alle Alternativen zeigen 1" parenleft.sc
Substitution2: "'sinf' Wissenschaftliche Indices 1" parenleft.inferior
Substitution2: "'sups' Hochgestellte 1" parenleft.superior
Substitution2: "'case' Versalformen 1" parenleft.sc
EndChar

StartChar: parenright
Encoding: 41 41 6
Width: 300
VWidth: 999
Flags: HW
VStem: 178 78<98.8522 406.302>
LayerCount: 2
Fore
SplineSet
256 252 m 0
 256 66 163 -101 44 -203 c 1
 21 -185 l 1
 53 -149 173 -11 173 252 c 0
 173 515 54 653 21 691 c 1
 44 708 l 1
 252 528 256 297 256 252 c 0
EndSplineSet
Substitution2: "'c2sc' Versale nach Kapitaelchen 1" parenright.sc
AlternateSubs2: "'aalt' Alle Alternativen zeigen 1" parenright.sc
Substitution2: "'sinf' Wissenschaftliche Indices 1" parenright.inferior
Substitution2: "'sups' Hochgestellte 1" parenright.superior
Substitution2: "'case' Versalformen 1" parenright.sc
Colour: ff00ff
EndChar

StartChar: asterisk
Encoding: 42 42 7
Width: 433
VWidth: 999
Flags: HMW
LayerCount: 2
Fore
SplineSet
198 567 m 1
 185 570 171 571 156 571 c 0
 107 571 75 578 75 608 c 0
 75 622 84 638 108 638 c 0
 142 638 160 605 204 587 c 1
 200 626 181 653 181 679 c 0
 181 700 193 718 211 718 c 0
 229 718 244 707 244 683 c 0
 244 656 227 616 225 586 c 1
 271 606 287 638 320 638 c 0
 347 638 354 618 354 608 c 0
 354 578 319 571 285 571 c 0
 266 571 248 570 230 567 c 1
 264 530 313 520 313 480 c 0
 313 462 298 451 284 451 c 0
 245 451 238 516 213 555 c 1
 188 510 181 451 143 451 c 0
 126 451 114 464 114 479 c 0
 114 522 165 530 198 567 c 1
EndSplineSet
EndChar

StartChar: plus
Encoding: 43 43 8
Width: 527
VWidth: 999
Flags: HMW
HStem: 208 49<66 238 289 461>
VStem: 238 51<34 208 257 431>
LayerCount: 2
Fore
SplineSet
289 257 m 1
 461 257 l 1
 461 208 l 1
 289 208 l 1
 289 34 l 1
 238 34 l 1
 238 208 l 1
 66 208 l 1
 66 257 l 1
 238 257 l 1
 238 431 l 1
 289 431 l 1
 289 257 l 1
EndSplineSet
AlternateSubs2: "'aalt' Alle Alternativen zeigen 1" plus.superior plus.inferior uni2098
Substitution2: "'sinf' Wissenschaftliche Indices 1" plus.inferior
Substitution2: "'sups' Hochgestellte 1" plus.superior
EndChar

StartChar: slash
Encoding: 47 47 9
Width: 323
VWidth: 999
Flags: HW
HStem: 626 20G<245.277 293>
VStem: 15 278
DStem2: 15 -59 56 -59 0.318647 0.947874<13.0645 743.77>
LayerCount: 2
Fore
SplineSet
293 646 m 1
 56 -59 l 1
 15 -59 l 1
 252 646 l 1
 293 646 l 1
EndSplineSet
Ligature2: "'frac' Brueche 1" uni2215
AlternateSubs2: "'aalt' Alle Alternativen zeigen 1" uni2215
EndChar

StartChar: one
Encoding: 49 49 10
Width: 440
VWidth: 999
Flags: HW
HStem: -3 21G<230 277 277 323> 476 31<117.548 168.818> 558 20G<285 317.75>
VStem: 238 77<2.61911 480.813>
LayerCount: 2
Fore
SplineSet
315 179 m 2
 315 103.8 316 56 323 0 c 1
 321 -3 l 1
 321 -3 295.2 0 277 0 c 0
 259.9 0 231 -3 231 -3 c 1
 230 0 l 1
 236 54 238 105 238 179 c 2
 238 410 l 2
 238 444 237.5 482 221 482 c 0
 202 482 160 480 118 476 c 1
 116 507 l 1
 204 527 254 558 316 578 c 1
 319.5 578 322 577.8 322 573 c 0
 320.3 560 315 521 315 419 c 2
 315 179 l 2
EndSplineSet
AlternateSubs2: "'aalt' Alle Alternativen zeigen 1" one.oldstyle one.superior one.fitted
Substitution2: "'sups' Hochgestellte 1" one.superior
Substitution2: "'sinf' Wissenschaftliche Indices 1" one.inferior
Substitution2: "'pnum' Proportionalziffern 1" one.fitted
Substitution2: "'onum' Minuskelziffern 1" one.taboldstyle
EndChar

StartChar: two
Encoding: 50 50 11
Width: 440
VWidth: 487
Flags: HW
HStem: -4 79<145 388.969> 537 41<139.822 261.852>
VStem: 304 86<342.923 495.896>
DStem2: 158 194 209 176 0.718358 0.695673<-79.712 211.062>
LayerCount: 2
Fore
SplineSet
205 537 m 0
 159 537 117 512 86 456 c 1
 73 457 l 1
 53 522 l 1
 56 526 l 1
 80 547 145 578 213 578 c 0
 326 578 390 531 390 429 c 0
 390 357 357.9 320.2 304 268 c 2
 209 176 l 2
 170 138.2 145 90 145 75 c 1
 233 75 l 2
 328 75 339 79 394 83 c 1
 391 71 389 43 389 31 c 0
 389 19 391 8 394 -4 c 1
 323 -1 315 0 244 0 c 0
 172 0 124 -2 48 -4 c 1
 47 0 l 1
 47 56 65 99 158 194 c 1
 228 263 l 1
 284 320 304 350 304 430 c 0
 304 509 239 537 205 537 c 0
EndSplineSet
AlternateSubs2: "'aalt' Alle Alternativen zeigen 1" two.oldstyle two.superior two.fitted
Substitution2: "'sups' Hochgestellte 1" two.superior
Substitution2: "'sinf' Wissenschaftliche Indices 1" two.inferior
Substitution2: "'pnum' Proportionalziffern 1" two.fitted
Substitution2: "'onum' Minuskelziffern 1" two.taboldstyle
EndChar

StartChar: three
Encoding: 51 51 12
Width: 440
VWidth: 487
Flags: HW
HStem: -10 39<118.252 250.357> 287 33<145 181.572> 539 39<141.07 253.816>
VStem: 289 81<371.344 504.643> 306 88<86.5251 235.281>
LayerCount: 2
Fore
SplineSet
183 29 m 0
 111.9 29 99 67 68 123 c 1
 55 122 l 1
 35 47 l 1
 38 43 l 1
 62 22 109 -10 181 -10 c 0
 280 -10 394 46.4 394 171 c 0
 394 246.1 344 302 274 309 c 1
 274 312 l 1
 336 330 370 377.8 370 457 c 0
 370 523.2 293.1 578 213 578 c 0
 141 578 82 546 58 525 c 1
 55 521 l 1
 75 446 l 1
 88 445 l 1
 119 501 137 539 204 539 c 0
 241.1 539 289 504 289 442 c 0
 289 367 237 325 145 320 c 1
 145 287 l 1
 156 289 173 289 182 289 c 0
 236 289 306 246 306 168 c 0
 306 44 216 29 183 29 c 0
EndSplineSet
AlternateSubs2: "'aalt' Alle Alternativen zeigen 1" three.oldstyle three.superior three.fitted
Substitution2: "'sups' Hochgestellte 1" three.superior
Substitution2: "'sinf' Wissenschaftliche Indices 1" three.inferior
Substitution2: "'pnum' Proportionalziffern 1" three.fitted
Substitution2: "'onum' Minuskelziffern 1" three.taboldstyle
EndChar

StartChar: four
Encoding: 52 52 13
Width: 440
VWidth: 487
Flags: HMW
HStem: -3 21G<259 307 341.5 346.5> 140 52<96 266 343 415.957> 552 20G<274 307 341.39 346.5>
VStem: 266 77<2.22899 140 192 485>
DStem2: 50 196 96 192 0.501851 0.864954<19.6253 358.372>
LayerCount: 2
Fore
SplineSet
266 140 m 1
 93 140 l 2
 59 140 38 145 38 159 c 0
 38 169 40 179 50 196 c 0
 99.6 280.3 216 490 274 569 c 0
 274 570 275 572 275 572 c 1
 275 572 292 569 307 569 c 0
 320.9 569 336.8 572 346 572 c 0
 347 572 348 570 348 569 c 0
 348 514 343 483 343 428 c 0
 343 336 343 284 343 192 c 1
 366 192 405 192 405 192 c 2
 415 192 419 182 419 173 c 0
 419 162 405 140 392 140 c 2
 392 140 377 140 343 140 c 1
 343 85 348 55 348 0 c 0
 348 -1 347 -3 346 -3 c 0
 337 -3 322 0 307 0 c 0
 291.9 0 260 -3 260 -3 c 1
 259 0 l 1
 264 48 266 66.9 266 140 c 1
266 485 m 1
 96 192 l 1
 266 192 l 1
 266 485 l 1
EndSplineSet
AlternateSubs2: "'aalt' Alle Alternativen zeigen 1" four.oldstyle four.superior four.fitted
Substitution2: "'sups' Hochgestellte 1" four.superior
Substitution2: "'sinf' Wissenschaftliche Indices 1" four.inferior
Substitution2: "'pnum' Proportionalziffern 1" four.fitted
Substitution2: "'onum' Minuskelziffern 1" four.taboldstyle
EndChar

StartChar: five
Encoding: 53 53 14
Width: 440
VWidth: 487
Flags: HMW
HStem: -10 39<128.252 250.808> 313 47<121.546 256.278> 505 63<139.884 352.798>
VStem: 301 82<91.5089 264.326>
DStem2: 67 290 121 345 0.112358 0.993668<60.7191 229.795>
LayerCount: 2
Fore
SplineSet
191 -10 m 0
 119 -10 72 22 48 43 c 1
 45 47 l 1
 65 122 l 1
 78 123 l 1
 109 67 121.9 29 193 29 c 0
 257 29 301 82 301 169 c 0
 301 272 254 313 192 313 c 0
 146 313 106 306 67 290 c 1
 99 573 l 1
 132 570 171 568 206 568 c 0
 256 568 308 572 362 578 c 1
 368 575 l 1
 353 510 l 1
 314 506 282 505 254 505 c 0
 209 505 175 509 140 513 c 1
 121 345 l 1
 142 353 178 360 217 360 c 0
 323 360 383 278 383 186 c 0
 383 74 304 -10 191 -10 c 0
EndSplineSet
AlternateSubs2: "'aalt' Alle Alternativen zeigen 1" five.oldstyle five.superior five.fitted
Substitution2: "'sups' Hochgestellte 1" five.superior
Substitution2: "'sinf' Wissenschaftliche Indices 1" five.inferior
Substitution2: "'pnum' Proportionalziffern 1" five.fitted
Substitution2: "'onum' Minuskelziffern 1" five.taboldstyle
EndChar

StartChar: six
Encoding: 54 54 15
Width: 440
VWidth: 487
Flags: HW
HStem: -10 34<186.729 285.73> 303 36<169.149 275.391> 552 26<309.619 376.808>
VStem: 44 80<101.897 306.795> 326 79<79.8432 254.373>
LayerCount: 2
Fore
SplineSet
125 262 m 1
 124 252 124 237 124 227 c 0
 124 59 191 24 241 24 c 0
 287 24 326 60 326 164 c 0
 326 211 312 303 216 303 c 0
 195 303 162 300 125 262 c 1
379 552 m 1
 314 546 258 529 210 482 c 0
 164 437 139 370 128 290 c 1
 151 318 198 339 236 339 c 0
 384 339 405 217 405 171 c 0
 405 103 369 -10 231 -10 c 0
 158 -10 44 31 44 230 c 0
 44 322 78.3 411.7 147 481 c 0
 211.3 545.8 278 573 376 578 c 1
 379 552 l 1
EndSplineSet
AlternateSubs2: "'aalt' Alle Alternativen zeigen 1" six.oldstyle six.superior six.fitted
Substitution2: "'sups' Hochgestellte 1" six.superior
Substitution2: "'sinf' Wissenschaftliche Indices 1" six.inferior
Substitution2: "'pnum' Proportionalziffern 1" six.fitted
Substitution2: "'onum' Minuskelziffern 1" six.taboldstyle
EndChar

StartChar: seven
Encoding: 55 55 16
Width: 440
VWidth: 487
Flags: HMW
HStem: -12 21G<117 185> 503 65<98.1355 327.687>
LayerCount: 2
Fore
SplineSet
329 503 m 1
 274 503 202 502 60 494 c 1
 62 508 64 522 64 536 c 0
 64 550 62 560 60 574 c 1
 100.2 568.8 184 568 325 568 c 0
 354 568 372 574 386 578 c 1
 402 568 l 1
 296 310 239 152 185 -9 c 1
 120 -12 l 1
 117 -6 l 1
 180 136 255 321 329 503 c 1
EndSplineSet
AlternateSubs2: "'aalt' Alle Alternativen zeigen 1" seven.oldstyle seven.superior seven.fitted
Substitution2: "'sups' Hochgestellte 1" seven.superior
Substitution2: "'sinf' Wissenschaftliche Indices 1" seven.inferior
Substitution2: "'pnum' Proportionalziffern 1" seven.fitted
Substitution2: "'onum' Minuskelziffern 1" seven.taboldstyle
EndChar

StartChar: nine
Encoding: 57 57 17
Width: 440
VWidth: 487
Flags: HW
HStem: -10 26<59.1923 126.381> 229 36<160.609 266.852> 544 34<150.27 249.271>
VStem: 31 79<313.627 488.157> 312 80<261.205 466.103>
LayerCount: 2
Fore
SplineSet
311 306 m 1
 312 316 312 331 312 341 c 0
 312 509 245 544 195 544 c 0
 149 544 110 508 110 404 c 0
 110 357 124 265 220 265 c 0
 241 265 274 268 311 306 c 1
57 16 m 1
 122 22 178 39 226 86 c 0
 272 131 297 198 308 278 c 1
 285 250 238 229 200 229 c 0
 52 229 31 351 31 397 c 0
 31 465 67 578 205 578 c 0
 278 578 392 537 392 338 c 0
 392 246 357.7 156.3 289 87 c 0
 224.7 22.2 158 -5 60 -10 c 1
 57 16 l 1
EndSplineSet
AlternateSubs2: "'aalt' Alle Alternativen zeigen 1" nine.oldstyle nine.superior nine.fitted
Substitution2: "'sups' Hochgestellte 1" nine.superior
Substitution2: "'sinf' Wissenschaftliche Indices 1" nine.inferior
Substitution2: "'pnum' Proportionalziffern 1" nine.fitted
Substitution2: "'onum' Minuskelziffern 1" nine.taboldstyle
Colour: ff00ff
EndChar

StartChar: colon
Encoding: 58 58 18
Width: 220
VWidth: 999
Flags: HW
HStem: 39 112<80.3677 154.353> 302 112<80.3677 154.353>
VStem: 61 112<55.2811 131.461 318.281 394.461>
LayerCount: 2
Fore
SplineSet
61 356 m 1
 61 360 l 1
 70.2 386.5 84.8 401.8 115 414 c 1
 119 414 l 1
 148 403.5 163.8 388.2 173 360 c 1
 173 356 l 1
 162.8 323.8 147.2 309 119 302 c 1
 115 302 l 1
 83.8 309 69.8 322.5 61 356 c 1
61 93 m 1
 61 97 l 1
 70.2 123.5 84.8 138.8 115 151 c 1
 119 151 l 1
 148 140.5 163.8 125.2 173 97 c 1
 173 93 l 1
 162.8 60.8 147.2 46 119 39 c 1
 115 39 l 1
 83.8 46 69.8 59.5 61 93 c 1
EndSplineSet
Colour: ff00ff
EndChar

StartChar: less
Encoding: 60 60 19
Width: 487
VWidth: 999
Flags: HW
HStem: 73 331
DStem2: 49 263 122 239 0.940425 0.34<60.4911 397.706> 122 239 49 215 0.939653 -0.34213<0 337.557>
LayerCount: 2
Fore
SplineSet
122 239 m 1
 439 123 l 1
 439 73 l 1
 49 215 l 1
 49 263 l 1
 439 404 l 1
 439 354 l 1
 122 239 l 1
EndSplineSet
EndChar

StartChar: equal
Encoding: 61 61 20
Width: 527
VWidth: 999
Flags: HW
HStem: 144 49<66 461> 269 49<66 461>
LayerCount: 2
Fore
SplineSet
461 318 m 1
 461 269 l 1
 66 269 l 1
 66 318 l 1
 461 318 l 1
461 193 m 1
 461 144 l 1
 66 144 l 1
 66 193 l 1
 461 193 l 1
EndSplineSet
AlternateSubs2: "'aalt' Alle Alternativen zeigen 1" equal.superior
Substitution2: "'sinf' Wissenschaftliche Indices 1" equal.inferior
Substitution2: "'sups' Hochgestellte 1" equal.superior
EndChar

StartChar: greater
Encoding: 62 62 21
Width: 487
VWidth: 999
Flags: HW
HStem: 71 331
DStem2: 366 236 439 260 0.939653 -0.34213<-337.557 0> 439 212 366 236 0.940425 0.34<-397.706 -60.4911>
LayerCount: 2
Fore
SplineSet
366 236 m 1
 49 352 l 1
 49 402 l 1
 439 260 l 1
 439 212 l 1
 49 71 l 1
 49 121 l 1
 366 236 l 1
EndSplineSet
Colour: ff00ff
EndChar

StartChar: question
Encoding: 63 63 22
Width: 405
VWidth: 487
Flags: HW
HStem: -10 112<143.368 217.353> 619 40<136.736 250.119>
VStem: 124 112<6.28114 82.4613> 167 26<174.002 289.255> 294 75<434.552 577.274>
LayerCount: 2
Fore
SplineSet
195 619 m 0
 139 619 98 570 72 525 c 1
 59 526 l 1
 43 593 l 1
 46 597 l 1
 70.5 617.5 131.5 659 204 659 c 0
 306 659 369 599 369 508 c 0
 369 429 310 385 263 351 c 0
 240 334 220 318 211 301 c 0
 198 276 193 252 193 228 c 2
 193 184 l 2
 193 177 188 174 180 174 c 0
 172 174 167 177 167 184 c 2
 167 230 l 2
 167 273 169.6 331.4 234 391 c 0
 274 428 294 457 294 504 c 0
 294 569 252 619 195 619 c 0
124 44 m 1
 124 48 l 1
 133.2 74.5 147.8 89.8 178 102 c 1
 182 102 l 1
 211 91.5 226.8 76.2 236 48 c 1
 236 44 l 1
 225.8 11.8 210.2 -3 182 -10 c 1
 178 -10 l 1
 146.8 -3 132.8 10.5 124 44 c 1
EndSplineSet
Colour: ff80cc
EndChar

StartChar: at
Encoding: 64 64 23
Width: 895
VWidth: 999
Flags: HMW
HStem: -158 33<366.698 569.227> 27 43<368.151 451.044> 27 35<536.5 668.322> 379 31<449.098 547.769> 581 30<366.475 546.302>
VStem: 59 80<106.897 345.058> 273 73<90.7683 252.641> 760 79<177.345 388.516>
LayerCount: 2
Fore
SplineSet
569 316 m 0
 569 354 540 379 504 379 c 0
 487 379 444 370 414 339 c 0
 363 288 346 224 346 162 c 0
 346 114 361 70 424 70 c 0
 459 70 508 127 539 200 c 0
 552 231 569 282 569 316 c 0
583 74 m 0
 583 64 592 62 594 62 c 0
 696 62 760 109 760 275 c 0
 760 481 584 581 459 581 c 0
 307 581 139 478 139 241 c 0
 139 91 215 -125 473 -125 c 0
 558 -125 620 -102 674 -59 c 1
 687 -77 l 1
 627 -123 567 -158 454 -158 c 0
 215 -158 59 10 59 223 c 0
 59 438 244 611 469 611 c 0
 684 611 839 469 839 282 c 0
 839 168 769 27 551 27 c 0
 522 27 515 52 515 68 c 0
 515 83 522 106 530 131 c 1
 528 132 l 1
 484 58 430 29 395 29 c 0
 295 29 273 113 273 153 c 0
 273 296 400 410 506 410 c 0
 539 410 573 393 583 367 c 1
 588 391 l 1
 641 404 l 1
 656 399 l 1
 596 141 l 2
 590 114 583 80.5 583 74 c 0
EndSplineSet
EndChar

StartChar: A
Encoding: 65 65 24
Width: 633
Flags: HW
HStem: -3 21G<24 68.5 92 115.444 500.087 513.5 590 606.5> 230 44<188.935 310> 638 20G<265 387>
AnchorPoint: "unten_punkt" 270 -108 basechar 0
AnchorPoint: "unten_anhang" 58 8 basechar 0
AnchorPoint: "top_akzent" 322 798 basechar 0
AnchorPoint: "top_punkt" 322 700 basechar 0
LayerCount: 2
Fore
SplineSet
181 228.3 m 1
 145.3 140.8 114.4 58.3 98 -3 c 1
 86 0 64 0 53 0 c 0
 42 0 30 0 18 -3 c 1
 119 218 217 436 313 658 c 1
 341 658 l 1
 433 439 565 98 615 -3 c 1
 598 0 572 0 555 0 c 0
 538 0 522 0 505 -3 c 1
 498.9 19.2 476.3 97.2 427.3 228.3 c 1
 389.6 229.2 348 230 310 230 c 0
 275.5 230 219 229.2 181 228.3 c 1
409.3 275.5 m 1
 382.4 345.2 349.1 427.4 308 521.8 c 1
 306 521.8 l 1
 200.6 275.9 l 1
 232.3 275.5 276.1 274 305 274 c 0
 334.7 274 376.4 274.7 409.3 275.5 c 1
EndSplineSet
Position2: "'cpsp' Versalabstaende 1" dx=2 dy=0 dh=5 dv=0
Substitution2: "'c2sc' Versale nach Kapitaelchen 1" a.sc
EndChar

StartChar: B
Encoding: 66 66 25
Width: 582
VWidth: 999
Flags: HW
HStem: -3 44<171.13 393.675> 327 44<189 355.197> 604 44<169.378 351.471>
VStem: 103 86<49.3073 327 371 597.325> 395 87<424.724 562.128> 442 99<97.3818 255.662>
AnchorPoint: "unten_punkt" 268 -108 basechar 0
AnchorPoint: "unten_anhang" 250 0 basechar 0
AnchorPoint: "top_punkt" 282 700 basechar 0
AnchorPoint: "top_akzent" 281 798 basechar 0
LayerCount: 2
Fore
SplineSet
189 559 m 2
 189 371 l 1
 261 371 l 2
 344 371 395 396 395 481 c 0
 395 583 330 604 274 604 c 0
 193 604 189 592.3 189 559 c 2
189 327 m 1
 189 88 l 2
 189 55 200 41 270 41 c 0
 422 41 442 92 442 165 c 0
 442 255 393 327 276 327 c 2
 189 327 l 1
146 645 m 0
 193.2 645 232 648 267 648 c 0
 453 648 482 560 482 493 c 0
 482 438 440 385 389 360 c 1
 476 335 541 280 541 184 c 0
 541 98 488 -3 289 -3 c 0
 200 -3 201.8 0 146 0 c 0
 111 0 94 -3 94 -3 c 1
 93 0 l 1
 101 54 103 125 103 200 c 2
 103 445 l 2
 103 520 101 588 93 645 c 1
 95 648 l 1
 95 648 112 645 146 645 c 0
EndSplineSet
Position2: "'cpsp' Versalabstaende 1" dx=2 dy=0 dh=5 dv=0
Substitution2: "'c2sc' Versale nach Kapitaelchen 1" b.sc
EndChar

StartChar: C
Encoding: 67 67 26
Width: 650
VWidth: 999
Flags: HW
HStem: -10 51<269.467 470.143> 611 47<271.061 460.844>
VStem: 37 103<195.742 435.455>
AnchorPoint: "unten_punkt" 369 -110 basechar 0
AnchorPoint: "unten_anhang" 362 -7 basechar 0
AnchorPoint: "top_punkt" 366 700 basechar 0
AnchorPoint: "top_akzent" 366 798 basechar 0
LayerCount: 2
Fore
SplineSet
365 658 m 0
 487 658 583 613 583 613 c 1
 585 610 l 1
 573.2 560.7 568.6 550 565 499 c 1
 555 498 l 1
 514 580 441 611 351 611 c 0
 269 611 140 537 140 334 c 0
 140 188 205 41 360 41 c 0
 453 41 521 62 592 140 c 1
 615 125 l 1
 547 36 448 -10 351 -10 c 0
 136 -10 37 154 37 315 c 0
 37 512 196 658 365 658 c 0
EndSplineSet
Position2: "'cpsp' Versalabstaende 1" dx=2 dy=0 dh=5 dv=0
Substitution2: "'c2sc' Versale nach Kapitaelchen 1" c.sc
EndChar

StartChar: D
Encoding: 68 68 27
Width: 698
VWidth: 999
Flags: HW
HStem: -2 44<168.537 432.266> 604 44<169.393 389.698>
VStem: 101 86<49.3073 594.385> 552 103<179.784 425.325>
AnchorPoint: "unten_punkt" 279 -107 basechar 0
AnchorPoint: "unten_anhang" 279 4 basechar 0
AnchorPoint: "top_punkt" 306 700 basechar 0
AnchorPoint: "top_akzent" 306 798 basechar 0
LayerCount: 2
Fore
SplineSet
187 82 m 2
 187 50 198 42 296 42 c 0
 437 42 552 82 552 284 c 0
 552 438 487 604 271 604 c 0
 222 604 187 599 187 564 c 2
 187 82 l 2
144 645 m 0
 208 645 245 648 309 648 c 0
 501 648 655 494 655 308 c 0
 655 62 468 -2 327 -2 c 0
 224 -2 215 0 144 0 c 0
 109 0 92 -3 92 -3 c 1
 91 0 l 1
 99 54 101 125 101 200 c 2
 101 445 l 2
 101 520 99 588 91 645 c 1
 93 648 l 1
 93 648 110 645 144 645 c 0
EndSplineSet
Position2: "'cpsp' Versalabstaende 1" dx=2 dy=0 dh=5 dv=0
Substitution2: "'c2sc' Versale nach Kapitaelchen 1" d.sc
EndChar

StartChar: E
Encoding: 69 69 28
Width: 522
VWidth: 999
Flags: HW
HStem: 0 54<186.656 409.594> 321 42<182 388.188> 596 49<186.656 403.188>
VStem: 96 86<55.2087 321 363 594.385>
AnchorPoint: "unten_anhang" 279 4 basechar 0
AnchorPoint: "unten_punkt" 279 -107 basechar 0
AnchorPoint: "top_punkt" 280 700 basechar 0
AnchorPoint: "top_akzent" 283 805 basechar 0
LayerCount: 2
Fore
SplineSet
182 200 m 2
 182 183 183 78 190 54 c 1
 324 54 472 66 472 66 c 1
 474 62 l 1
 473 54 472 39 472 29 c 0
 472 19 473 14 474 0 c 1
 472 -3 l 1
 456 -1 433 0 412 0 c 2
 139 0 l 2
 104 0 87 -3 87 -3 c 1
 86 0 l 1
 94 54 96 125 96 200 c 2
 96 445 l 2
 96 520 94 588 86 645 c 1
 88 648 l 1
 88 648 105 645 139 645 c 0
 169 645 402 645 402 645 c 2
 423 645 446 646 462 648 c 1
 464 645 l 1
 463 631 462 622 462 614 c 0
 462 605 463 596 464 588 c 1
 462 584 l 1
 462 584 324 596 190 596 c 1
 183 572 182 462 182 445 c 2
 182 363 l 1
 300 363 346 368 405 373 c 1
 408 370 l 1
 406 361 405 351 405 342 c 0
 405 333 406 323 408 314 c 1
 405 311 l 1
 336 318 230 321 182 321 c 1
 182 200 l 2
EndSplineSet
Position2: "'cpsp' Versalabstaende 1" dx=2 dy=0 dh=5 dv=0
Substitution2: "'c2sc' Versale nach Kapitaelchen 1" e.sc
EndChar

StartChar: F
Encoding: 70 70 29
Width: 477
VWidth: 999
Flags: HW
HStem: -3 21G<88 141 141 194> 321 42<184 390.196> 596 49<188.662 405.195>
VStem: 98 86<2.67992 321 363 594.385>
AnchorPoint: "unten_anhang" 145 -1 basechar 0
AnchorPoint: "unten_punkt" 201 -111 basechar 0
AnchorPoint: "top_punkt" 287 700 basechar 0
AnchorPoint: "top_akzent" 286 798 basechar 0
LayerCount: 2
Fore
SplineSet
401 645 m 2
 425 645 448 646 464 648 c 1
 466 645 l 1
 465 631 464 622 464 614 c 0
 464 605 465 596 466 588 c 1
 464 584 l 1
 464 584 326 596 192 596 c 1
 185 572 184 462 184 445 c 2
 184 363 l 1
 302 363 348 368 407 373 c 1
 410 370 l 1
 408 361 407 351 407 342 c 0
 407 333 408 323 410 314 c 1
 407 311 l 1
 338 318 232 321 184 321 c 1
 184 200 l 2
 184 125 186 57 194 0 c 1
 192 -3 l 1
 192 -3 175 0 141 0 c 0
 106 0 89 -3 89 -3 c 1
 88 0 l 1
 96 54 98 125 98 200 c 2
 98 445 l 2
 98 520 96 588 88 645 c 1
 90 648 l 1
 90 648 107 645 141 645 c 2
 401 645 l 2
EndSplineSet
Position2: "'cpsp' Versalabstaende 1" dx=2 dy=0 dh=5 dv=0
Substitution2: "'c2sc' Versale nach Kapitaelchen 1" f.sc
EndChar

StartChar: G
Encoding: 71 71 30
Width: 699
VWidth: 999
Flags: HMW
HStem: -10 46<295.106 519.78> 611 47<271.555 476.844>
VStem: 32 103<213.43 430.807> 546 86<83.5114 304.327>
AnchorPoint: "unten_anhang" 371 2 basechar 0
AnchorPoint: "unten_punkt" 371 -111 basechar 0
AnchorPoint: "top_punkt" 369 700 basechar 0
AnchorPoint: "top_akzent" 369 798 basechar 0
LayerCount: 2
Fore
SplineSet
546 117 m 1
 544.5 192 544 250 536 307 c 1
 538 310 l 1
 538 310 555 307 589 307 c 0
 624 307 641 310 641 310 c 1
 642 307 l 1
 634 254 632 212 632 137 c 2
 632 131 l 2
 632 120 633.3 93.7 642 83 c 1
 642 80 l 1
 574.5 23.4 492.5 -10 376 -10 c 0
 175 -10 32 134 32 307 c 0
 32 527 209 658 381 658 c 0
 503 658 599 613 599 613 c 1
 601 610 l 1
 589.2 560.7 584.6 550 581 499 c 1
 571 498 l 1
 530 580 457 611 367 611 c 0
 232 611 135 502 135 327 c 0
 135 195 221 36 399 36 c 0
 453 36 512 42 546 74 c 1
 546 117 l 1
EndSplineSet
Position2: "'cpsp' Versalabstaende 1" dx=2 dy=0 dh=5 dv=0
Substitution2: "'c2sc' Versale nach Kapitaelchen 1" g.sc
EndChar

StartChar: grave
Encoding: 96 96 31
Width: 392
VWidth: 999
Flags: HW
LayerCount: 2
Fore
SplineSet
178 699 m 1
 248 573 l 2
 253 563 254 556 254 549 c 0
 254 544 247 538 239 538 c 0
 233 538 226 543 210 558 c 2
 96 667 l 1
 98 678 l 1
 106 684 129 701 163 701 c 0
 168 701 174 700 178 699 c 1
EndSplineSet
Substitution2: "'case' Versalformen 1" grave.cap
Colour: ff00ff
EndChar

StartChar: ograve
Encoding: 242 242 32
Width: 510
VWidth: 999
Flags: HW
HStem: -10 41<204.375 329.082> 398 41<186.898 318.163>
VStem: 36 90<124.397 311.463> 384 90<116.419 317.676>
LayerCount: 2
Fore
SplineSet
234 671 m 1
 304 545 l 2
 309 535 310 528 310 521 c 0
 310 516 303 510 295 510 c 0
 289 510 282 515 266 530 c 2
 152 639 l 1
 154 650 l 1
 162 656 185 673 219 673 c 0
 224 673 230 672 234 671 c 1
36 205 m 0
 36 342 126 439 257 439 c 0
 414 439 474 318 474 214 c 0
 474 107 398 -10 255 -10 c 0
 117 -10 36 95 36 205 c 0
250 398 m 0
 164 398 126 315 126 228 c 0
 126 151 165 31 269 31 c 0
 314 31 384 63 384 187 c 0
 384 334 335 398 250 398 c 0
EndSplineSet
Substitution2: "'smcp' Gemeine nach Kapitaelchen 1" ograve.sc
AlternateSubs2: "'aalt' Alle Alternativen zeigen 1" ograve.sc
Colour: ff00ff
EndChar

StartChar: oacute
Encoding: 243 243 33
Width: 510
VWidth: 999
Flags: HW
HStem: -10 41<204.375 329.082> 398 41<186.898 318.163>
VStem: 36 90<124.397 311.463> 384 90<116.419 317.676>
LayerCount: 2
Fore
SplineSet
280 671 m 1
 283 672 289 673 294 673 c 0
 300.4 673 326 672 349 650 c 1
 352 639 l 1
 237 530 l 2
 222 515 214 511 207 511 c 0
 200 511 193 517 193 524 c 0
 193 535.2 196.3 539.2 204.4 552 c 2
 280 671 l 1
36 205 m 0
 36 342 126 439 257 439 c 0
 414 439 474 318 474 214 c 0
 474 107 398 -10 255 -10 c 0
 117 -10 36 95 36 205 c 0
250 398 m 0
 164 398 126 315 126 228 c 0
 126 151 165 31 269 31 c 0
 314 31 384 63 384 187 c 0
 384 334 335 398 250 398 c 0
EndSplineSet
Substitution2: "'smcp' Gemeine nach Kapitaelchen 1" oacute.sc
AlternateSubs2: "'aalt' Alle Alternativen zeigen 1" oacute.sc
Colour: ff00ff
EndChar

StartChar: ocircumflex
Encoding: 244 244 34
Width: 510
VWidth: 999
Flags: HW
HStem: -10 41<204.375 329.082> 398 41<186.898 318.163>
VStem: 36 90<124.397 311.463> 125 253<517 517> 384 90<116.419 317.676>
LayerCount: 2
Fore
SplineSet
277 646 m 1
 306 599 342 557 378 517 c 1
 357 503 l 1
 318 532 285 557 251 593 c 1
 214 555 182 530 144 503 c 1
 124 517 l 1
 160 557 198 600 227 646 c 1
 277 646 l 1
36 205 m 0
 36 342 126 439 257 439 c 0
 414 439 474 318 474 214 c 0
 474 107 398 -10 255 -10 c 0
 117 -10 36 95 36 205 c 0
250 398 m 0
 164 398 126 315 126 228 c 0
 126 151 165 31 269 31 c 0
 314 31 384 63 384 187 c 0
 384 334 335 398 250 398 c 0
EndSplineSet
Substitution2: "'smcp' Gemeine nach Kapitaelchen 1" ocircumflex.sc
AlternateSubs2: "'aalt' Alle Alternativen zeigen 1" ocircumflex.sc
Colour: ff00ff
EndChar

StartChar: otilde
Encoding: 245 245 35
Width: 510
VWidth: 999
Flags: HW
HStem: -10 41<204.375 329.082> 398 41<186.898 318.163> 526 44<263 350> 574 46<145 236> 613 10
VStem: 36 90<124.397 311.463> 384 90<116.419 317.676>
LayerCount: 2
Fore
SplineSet
314 570 m 0
 336 570 350 580 364 622 c 1
 388 616 l 1
 376 556 347 526 301 526 c 0
 279 526 258 538 237 552 c 0
 219 563 200 574 183 574 c 0
 157 574 144 559 134 526 c 1
 110 531 l 1
 124 590 147 620 190 620 c 0
 220 620 242 606 262 592 c 0
 278 580 295 570 314 570 c 0
36 205 m 0
 36 342 126 439 257 439 c 0
 414 439 474 318 474 214 c 0
 474 107 398 -10 255 -10 c 0
 117 -10 36 95 36 205 c 0
250 398 m 0
 164 398 126 315 126 228 c 0
 126 151 165 31 269 31 c 0
 314 31 384 63 384 187 c 0
 384 334 335 398 250 398 c 0
EndSplineSet
Substitution2: "'smcp' Gemeine nach Kapitaelchen 1" otilde.sc
AlternateSubs2: "'aalt' Alle Alternativen zeigen 1" otilde.sc
Colour: ff00ff
EndChar

StartChar: odieresis
Encoding: 246 246 36
Width: 510
VWidth: 999
Flags: HW
HStem: -10 41<204.375 329.082> 398 41<186.898 318.163> 527 92<133.347 210.653 293.347 370.653>
VStem: 36 90<124.397 311.463> 126 92<534.347 611.653> 286 92<534.347 611.653> 384 90<116.419 317.676>
LayerCount: 2
Fore
SplineSet
126 573 m 0
 126 598 147 619 172 619 c 0
 197 619 218 598 218 573 c 0
 218 548 197 527 172 527 c 0
 147 527 126 548 126 573 c 0
286 573 m 0
 286 598 307 619 332 619 c 0
 357 619 378 598 378 573 c 0
 378 548 357 527 332 527 c 0
 307 527 286 548 286 573 c 0
36 205 m 0
 36 342 126 439 257 439 c 0
 414 439 474 318 474 214 c 0
 474 107 398 -10 255 -10 c 0
 117 -10 36 95 36 205 c 0
250 398 m 0
 164 398 126 315 126 228 c 0
 126 151 165 31 269 31 c 0
 314 31 384 63 384 187 c 0
 384 334 335 398 250 398 c 0
EndSplineSet
Substitution2: "'smcp' Gemeine nach Kapitaelchen 1" odieresis.sc
AlternateSubs2: "'aalt' Alle Alternativen zeigen 1" odieresis.sc
Colour: ff00ff
EndChar

StartChar: divide
Encoding: 247 247 37
Width: 527
VWidth: 999
Flags: HW
HStem: 53.6 93.9<234.492 296.502> 208 49<66 461> 321.6 93.9<234.492 296.502>
VStem: 218.3 93.9<67.2645 131.114> 218.3 93.9<335.264 399.114>
LayerCount: 2
Fore
SplineSet
218.3 366.9 m 1
 218.3 370.2 l 1
 226.1 392.4 238.1 405.2 263.5 415.5 c 1
 266.9 415.5 l 1
 291.2 406.7 304.4 393.9 312.2 370.2 c 1
 312.2 366.9 l 1
 303.6 339.9 290.6 327.5 266.9 321.6 c 1
 263.5 321.6 l 1
 237.3 327.5 225.6 338.8 218.3 366.9 c 1
218.3 98.9 m 1
 218.3 102.2 l 1
 226.1 124.4 238.1 137.2 263.5 147.5 c 1
 266.9 147.5 l 1
 291.2 138.7 304.4 125.9 312.2 102.2 c 1
 312.2 98.9 l 1
 303.6 71.9 290.6 59.5 266.9 53.6 c 1
 263.5 53.6 l 1
 237.3 59.5 225.6 70.8 218.3 98.9 c 1
461 257 m 1
 461 208 l 1
 66 208 l 1
 66 257 l 1
 461 257 l 1
EndSplineSet
Colour: ff00ff
EndChar

StartChar: ugrave
Encoding: 249 249 38
Width: 521
VWidth: 999
Flags: HW
HStem: -10 55<189.219 288.154> -3 21<363 372.667 438.5 447> 412 20<74 124 124 174 340 390 390 440>
VStem: 84 80<69.7019 426.335> 350 80<96.6489 426.335>
LayerCount: 2
Fore
SplineSet
228 671 m 1
 298 545 l 2
 303 535 304 528 304 521 c 0
 304 516 297 510 289 510 c 0
 283 510 276 515 260 530 c 2
 146 639 l 1
 148 650 l 1
 156 656 179 673 213 673 c 0
 218 673 224 672 228 671 c 1
350 64 m 1
 294 4 253 -10 212 -10 c 0
 113 -10 84 57 84 126 c 2
 84 249 l 2
 84 325 83 372 74 429 c 1
 76 432 l 1
 76 432 90 429 124 429 c 0
 159 429 173 432 173 432 c 1
 174 429 l 1
 165 376 164 324 164 249 c 2
 164 150 l 2
 164 61 208 45 238 45 c 0
 282.8 45 323.9 88.2 350 119 c 1
 350 249 l 2
 350 325 349 372 340 429 c 1
 342 432 l 1
 342 432 356 429 390 429 c 0
 425 429 439 432 439 432 c 1
 440 429 l 1
 431 376 430 324 430 249 c 2
 430 192 l 2
 430 117 439 43 447 0 c 1
 445 -3 l 1
 432 -1 413.1 0 400.5 0 c 0
 386 0 379.3 -1.3 366 -3 c 0
 360 -3 357 -2 357 0 c 2
 352 64 l 1
 350 64 l 1
EndSplineSet
Substitution2: "'smcp' Gemeine nach Kapitaelchen 1" ugrave.sc
AlternateSubs2: "'aalt' Alle Alternativen zeigen 1" ugrave.sc
Colour: ff00ff
EndChar

StartChar: uacute
Encoding: 250 250 39
Width: 521
VWidth: 999
Flags: HW
HStem: -10 55<189.219 288.154> -3 21<363 372.667 438.5 447> 412 20<74 124 124 174 340 390 390 440>
VStem: 84 80<69.7019 426.335> 350 80<96.6489 426.335>
LayerCount: 2
Fore
SplineSet
306 671 m 1
 309 672 315 673 320 673 c 0
 326.4 673 352 672 375 650 c 1
 378 639 l 1
 263 530 l 2
 248 515 240 511 233 511 c 0
 226 511 219 517 219 524 c 0
 219 535.2 222.3 539.2 230.4 552 c 2
 306 671 l 1
350 64 m 1
 294 4 253 -10 212 -10 c 0
 113 -10 84 57 84 126 c 2
 84 249 l 2
 84 325 83 372 74 429 c 1
 76 432 l 1
 76 432 90 429 124 429 c 0
 159 429 173 432 173 432 c 1
 174 429 l 1
 165 376 164 324 164 249 c 2
 164 150 l 2
 164 61 208 45 238 45 c 0
 282.8 45 323.9 88.2 350 119 c 1
 350 249 l 2
 350 325 349 372 340 429 c 1
 342 432 l 1
 342 432 356 429 390 429 c 0
 425 429 439 432 439 432 c 1
 440 429 l 1
 431 376 430 324 430 249 c 2
 430 192 l 2
 430 117 439 43 447 0 c 1
 445 -3 l 1
 432 -1 413.1 0 400.5 0 c 0
 386 0 379.3 -1.3 366 -3 c 0
 360 -3 357 -2 357 0 c 2
 352 64 l 1
 350 64 l 1
EndSplineSet
Substitution2: "'smcp' Gemeine nach Kapitaelchen 1" uacute.sc
AlternateSubs2: "'aalt' Alle Alternativen zeigen 1" uacute.sc
Colour: ff00ff
EndChar

StartChar: ucircumflex
Encoding: 251 251 40
Width: 521
VWidth: 999
Flags: HW
HStem: -10 55<189.219 288.154> -3 21<363 372.667 438.5 447> 412 20<74 124 124 174 340 390 390 440>
VStem: 84 80<69.7019 426.335> 129 253<517 517> 350 80<96.6489 426.335>
LayerCount: 2
Fore
SplineSet
281 646 m 1
 310 599 346 557 382 517 c 1
 361 503 l 1
 322 532 289 557 255 593 c 1
 218 555 186 530 148 503 c 1
 128 517 l 1
 164 557 202 600 231 646 c 1
 281 646 l 1
350 64 m 1
 294 4 253 -10 212 -10 c 0
 113 -10 84 57 84 126 c 2
 84 249 l 2
 84 325 83 372 74 429 c 1
 76 432 l 1
 76 432 90 429 124 429 c 0
 159 429 173 432 173 432 c 1
 174 429 l 1
 165 376 164 324 164 249 c 2
 164 150 l 2
 164 61 208 45 238 45 c 0
 282.8 45 323.9 88.2 350 119 c 1
 350 249 l 2
 350 325 349 372 340 429 c 1
 342 432 l 1
 342 432 356 429 390 429 c 0
 425 429 439 432 439 432 c 1
 440 429 l 1
 431 376 430 324 430 249 c 2
 430 192 l 2
 430 117 439 43 447 0 c 1
 445 -3 l 1
 432 -1 413.1 0 400.5 0 c 0
 386 0 379.3 -1.3 366 -3 c 0
 360 -3 357 -2 357 0 c 2
 352 64 l 1
 350 64 l 1
EndSplineSet
Substitution2: "'smcp' Gemeine nach Kapitaelchen 1" ucircumflex.sc
AlternateSubs2: "'aalt' Alle Alternativen zeigen 1" ucircumflex.sc
Colour: ff00ff
EndChar

StartChar: ebreve
Encoding: 277 277 41
Width: 442
VWidth: 999
Flags: HW
HStem: -10 59<197.345 335.48> 243 44<125 319.997> 399 40<175.584 290.389> 501 57<158.968 295.898>
VStem: 34 88<132.133 243> 93 26<607.805 639.769> 320 89<254.5 358.106> 336 27<609.333 639.63>
LayerCount: 2
Fore
SplineSet
120 648 m 1
 131 595 174 558 228 558 c 0
 280 558 326 590 336 648 c 1
 363 636 l 1
 351 550 287 501 228 501 c 0
 158 501 107 551 93 636 c 1
 120 648 l 1
125 287 m 1
 306 287 l 2
 316 287 320 292 320 301 c 0
 320 376 275 399 239 399 c 0
 216 399 142 391 125 287 c 1
396 105 m 1
 416 79 l 1
 378 27 317 -10 245 -10 c 0
 108 -10 34 84 34 199 c 0
 34 351 144 439 239 439 c 0
 371 439 409 344 409 260 c 0
 409 249 402 243 391 243 c 2
 122 243 l 1
 122 94 209 49 265 49 c 0
 320 49 361 67 396 105 c 1
EndSplineSet
Colour: ff00ff
EndChar

StartChar: Edotaccent
Encoding: 278 278 42
Width: 522
VWidth: 999
Flags: HW
HStem: 0 54<186.656 409.594> 321 42<182 388.188> 596 49<186.656 403.188> 688 104<238.25 321.469>
VStem: 96 86<55.2087 321 363 594.385> 228 104<698.542 781.752>
LayerCount: 2
Fore
SplineSet
229 740 m 0
 229 767 253 791 280 791 c 0
 307 791 331 767 331 740 c 0
 331 713 307 689 280 689 c 0
 253 689 229 713 229 740 c 0
182 200 m 2
 182 183 183 78 190 54 c 1
 324 54 472 66 472 66 c 1
 474 62 l 1
 473 54 472 39 472 29 c 0
 472 19 473 14 474 0 c 1
 472 -3 l 1
 456 -1 433 0 412 0 c 2
 139 0 l 2
 104 0 87 -3 87 -3 c 1
 86 0 l 1
 94 54 96 125 96 200 c 2
 96 445 l 2
 96 520 94 588 86 645 c 1
 88 648 l 1
 88 648 105 645 139 645 c 0
 169 645 402 645 402 645 c 2
 423 645 446 646 462 648 c 1
 464 645 l 1
 463 631 462 622 462 614 c 0
 462 605 463 596 464 588 c 1
 462 584 l 1
 462 584 324 596 190 596 c 1
 183 572 182 462 182 445 c 2
 182 363 l 1
 300 363 346 368 405 373 c 1
 408 370 l 1
 406 361 405 351 405 342 c 0
 405 333 406 323 408 314 c 1
 405 311 l 1
 336 318 230 321 182 321 c 1
 182 200 l 2
EndSplineSet
Position2: "'cpsp' Versalabstaende 1" dx=2 dy=0 dh=5 dv=0
Colour: ff00ff
EndChar

StartChar: edotaccent
Encoding: 279 279 43
Width: 442
VWidth: 999
Flags: HW
HStem: -10 59<197.345 335.48> 243 44<125 319.997> 399 40<175.584 290.389> 519 104<188.248 271.458>
VStem: 34 88<132.133 243> 178 104<529.542 612.752> 320 89<254.5 358.106>
LayerCount: 2
Fore
SplineSet
179 571 m 0
 179 598 203 622 230 622 c 0
 257 622 281 598 281 571 c 0
 281 544 257 520 230 520 c 0
 203 520 179 544 179 571 c 0
125 287 m 1
 306 287 l 2
 316 287 320 292 320 301 c 0
 320 376 275 399 239 399 c 0
 216 399 142 391 125 287 c 1
396 105 m 1
 416 79 l 1
 378 27 317 -10 245 -10 c 0
 108 -10 34 84 34 199 c 0
 34 351 144 439 239 439 c 0
 371 439 409 344 409 260 c 0
 409 249 402 243 391 243 c 2
 122 243 l 1
 122 94 209 49 265 49 c 0
 320 49 361 67 396 105 c 1
EndSplineSet
Colour: ff00ff
EndChar

StartChar: Eogonek
Encoding: 280 280 44
Width: 522
VWidth: 999
Flags: HW
HStem: -224 39<325.188 408.938> 0 25<394.25 430.875> 0 54<186.656 409.594> 321 42<182 388.188> 596 49<186.656 403.188>
VStem: 96 86<55.2087 321 363 594.385> 251 60<-173.091 -74.5789>
LayerCount: 2
Fore
SplineSet
344 -224 m 0
 291 -224 251 -193 251 -139 c 0
 251 -91.5 291 -33.4 351.2 0 c 1
 139 0 l 2
 104 0 87 -3 87 -3 c 1
 86 0 l 1
 94 54 96 125 96 200 c 2
 96 445 l 2
 96 520 94 588 86 645 c 1
 88 648 l 1
 88 648 105 645 139 645 c 0
 169 645 402 645 402 645 c 2
 423 645 446 646 462 648 c 1
 464 645 l 1
 463 631 462 622 462 614 c 0
 462 605 463 596 464 588 c 1
 462 584 l 1
 462 584 324 596 190 596 c 1
 183 572 182 462 182 445 c 2
 182 363 l 1
 300 363 346 368 405 373 c 1
 408 370 l 1
 406 361 405 351 405 342 c 0
 405 333 406 323 408 314 c 1
 405 311 l 1
 336 318 230 321 182 321 c 1
 182 200 l 2
 182 183 183 78 190 54 c 1
 324 54 472 66 472 66 c 1
 474 62 l 1
 473 54 472 39 472 29 c 0
 472 19 473 14 474 0 c 1
 472 -3 l 1
 461.9 -1.7 449.2 -0.9 435.8 -0.4 c 1
 361.4 -6.4 311 -77.2 311 -126 c 0
 311 -158 333 -185 369 -185 c 0
 399 -185 419 -170 439 -149 c 1
 454 -157 l 1
 430 -204 380 -224 344 -224 c 0
EndSplineSet
Position2: "'cpsp' Versalabstaende 1" dx=2 dy=0 dh=5 dv=0
Substitution2: "'c2sc' Versale nach Kapitaelchen 1" eogonek.sc
Colour: ff80cc
EndChar

StartChar: eogonek
Encoding: 281 281 45
Width: 442
VWidth: 999
Flags: HW
HStem: -214 38<271.124 354.226> -10 59<197.345 335.48> 243 44<125 319.997> 399 40<175.584 290.389>
VStem: 34 88<132.133 243> 197 60<-164.209 -65.2215> 320 89<254.5 358.106>
LayerCount: 2
Fore
SplineSet
125 287 m 1
 306 287 l 2
 316 287 320 292 320 301 c 0
 320 376 275 399 239 399 c 0
 216 399 142 391 125 287 c 1
396 105 m 1
 416 79 l 1
 403.3 61.6 388.1 45.9 370.7 32.7 c 1
 318.4 -19 289 -54.4 289 -106 c 0
 289 -127 305 -149 331 -149 c 0
 348 -149 370 -134 384 -119 c 1
 387 -120 l 1
 401 -137 l 1
 374 -170 336 -193 302 -193 c 0
 253 -193 223 -164 223 -117 c 0
 223 -76.3 246.3 -39.2 278.1 -7.3 c 1
 267.4 -9 256.3 -10 245 -10 c 0
 108 -10 34 84 34 199 c 0
 34 351 144 439 239 439 c 0
 371 439 409 344 409 260 c 0
 409 249 402 243 391 243 c 2
 122 243 l 1
 122 94 209 49 265 49 c 0
 320 49 361 67 396 105 c 1
EndSplineSet
AlternateSubs2: "'aalt' Alle Alternativen zeigen 1" eogonek.sc
Substitution2: "'smcp' Gemeine nach Kapitaelchen 1" eogonek.sc
Colour: ff00ff
EndChar

StartChar: Ecaron
Encoding: 282 282 46
Width: 522
VWidth: 999
Flags: HW
HStem: 0 54<186.656 409.594> 321 42<182 388.188> 596 49<186.656 403.188>
VStem: 96 86<55.2087 321 363 594.385>
LayerCount: 2
Fore
SplineSet
268 697 m 1
 238 734 203 764 167 792 c 1
 183 812 l 1
 222 795 256 776 289 751 c 1
 326 777 358 796 396 812 c 1
 411 792 l 1
 373 763 341 731 311 697 c 1
 268 697 l 1
182 200 m 2
 182 183 183 78 190 54 c 1
 324 54 472 66 472 66 c 1
 474 62 l 1
 473 54 472 39 472 29 c 0
 472 19 473 14 474 0 c 1
 472 -3 l 1
 456 -1 433 0 412 0 c 2
 139 0 l 2
 104 0 87 -3 87 -3 c 1
 86 0 l 1
 94 54 96 125 96 200 c 2
 96 445 l 2
 96 520 94 588 86 645 c 1
 88 648 l 1
 88 648 105 645 139 645 c 0
 169 645 402 645 402 645 c 2
 423 645 446 646 462 648 c 1
 464 645 l 1
 463 631 462 622 462 614 c 0
 462 605 463 596 464 588 c 1
 462 584 l 1
 462 584 324 596 190 596 c 1
 183 572 182 462 182 445 c 2
 182 363 l 1
 300 363 346 368 405 373 c 1
 408 370 l 1
 406 361 405 351 405 342 c 0
 405 333 406 323 408 314 c 1
 405 311 l 1
 336 318 230 321 182 321 c 1
 182 200 l 2
EndSplineSet
Position2: "'cpsp' Versalabstaende 1" dx=2 dy=0 dh=5 dv=0
Substitution2: "'c2sc' Versale nach Kapitaelchen 1" ecaron.sc
Colour: ff00ff
EndChar

StartChar: ecaron
Encoding: 283 283 47
Width: 442
VWidth: 999
Flags: HW
HStem: -10 59<197.345 335.48> 243 44<125 319.997> 399 40<175.584 290.389>
VStem: 34 88<132.133 243> 320 89<254.5 358.106>
LayerCount: 2
Fore
SplineSet
199 501 m 1
 170 548 133 593 98 631 c 1
 118 644 l 1
 157 615 190 590 224 554 c 1
 261 592 295 617 332 644 c 1
 351 631 l 1
 316 592 278 547 249 501 c 1
 199 501 l 1
125 287 m 1
 306 287 l 2
 316 287 320 292 320 301 c 0
 320 376 275 399 239 399 c 0
 216 399 142 391 125 287 c 1
396 105 m 1
 416 79 l 1
 378 27 317 -10 245 -10 c 0
 108 -10 34 84 34 199 c 0
 34 351 144 439 239 439 c 0
 371 439 409 344 409 260 c 0
 409 249 402 243 391 243 c 2
 122 243 l 1
 122 94 209 49 265 49 c 0
 320 49 361 67 396 105 c 1
EndSplineSet
AlternateSubs2: "'aalt' Alle Alternativen zeigen 1" ecaron.sc
Substitution2: "'smcp' Gemeine nach Kapitaelchen 1" ecaron.sc
Colour: ff00ff
EndChar

StartChar: Gcircumflex
Encoding: 284 284 48
Width: 699
VWidth: 999
Flags: HW
HStem: -10 46<295.106 519.78> 611 47<271.555 476.844>
VStem: 32 103<213.43 430.807> 546 86<83.5114 304.327>
LayerCount: 2
Fore
SplineSet
385 805 m 1
 415 769 450 738 486 711 c 1
 470 690 l 1
 431 708 397 727 364 752 c 1
 327 725 295 707 257 690 c 1
 243 711 l 1
 280 739 311 771 342 805 c 1
 385 805 l 1
546 117 m 1
 544.5 192 544 250 536 307 c 1
 538 310 l 1
 538 310 555 307 589 307 c 0
 624 307 641 310 641 310 c 1
 642 307 l 1
 634 254 632 212 632 137 c 2
 632 131 l 2
 632 120 633.3 93.7 642 83 c 1
 642 80 l 1
 574.5 23.4 492.5 -10 376 -10 c 0
 175 -10 32 134 32 307 c 0
 32 527 209 658 381 658 c 0
 503 658 599 613 599 613 c 1
 601 610 l 1
 589.2 560.7 584.6 550 581 499 c 1
 571 498 l 1
 530 580 457 611 367 611 c 0
 232 611 135 502 135 327 c 0
 135 195 221 36 399 36 c 0
 453 36 512 42 546 74 c 1
 546 117 l 1
EndSplineSet
Position2: "'cpsp' Versalabstaende 1" dx=2 dy=0 dh=5 dv=0
Colour: ff00ff
EndChar

StartChar: gcircumflex
Encoding: 285 285 49
Width: 479
VWidth: 999
Flags: HW
HStem: -238 43<141.427 314.366> -15 62<137.607 251.772> -12 66<172.809 355.253> 136 44<169.974 279.135> 395 44<163.808 275.455>
VStem: 32 66<-157.208 -57.419> 59 78<215.424 363.363> 64 56<55.5258 149.891> 103 253<516 516> 308 76<209.668 361.501> 392 61<-135.741 -44.0939>
LayerCount: 2
Fore
SplineSet
255 645 m 1
 284 598 320 556 356 516 c 1
 335 502 l 1
 296 531 263 556 229 592 c 1
 192 554 160 529 122 502 c 1
 102 516 l 1
 138 556 176 599 205 645 c 1
 255 645 l 1
147.1 -13.7 m 1
 110.3 -42.9 98 -70.9 98 -104 c 0
 98 -172 178 -195 212 -195 c 0
 298 -195 392 -152 392 -91 c 0
 392 -65 385.5 -50.8 348 -29 c 0
 320.5 -13 283 -12 235 -12 c 0
 221.2 -12 195.5 -15 166 -15 c 0
 160.1 -15 153.5 -14.5 147.1 -13.7 c 1
384 289 m 0
 384 191 306 136 222 136 c 0
 185 136 160 143 137 157 c 1
 126 140 120 119 120 99 c 0
 120 56 150 47 178 47 c 0
 183 47 193 48 207 49 c 0
 230 52 253 54 270 54 c 0
 305 54 373.5 53 411 21 c 0
 439 -2.9 453 -36 453 -68 c 0
 453 -176 313 -238 184 -238 c 0
 111 -238 32 -211 32 -124 c 0
 32 -81 59 -35 110 -3 c 1
 85 10 64 38 64 74 c 0
 64 108 79 151 106 175 c 1
 79 202 59 233 59 287 c 0
 59 379 138 439 223 439 c 0
 244.5 439 264.4 436 282.3 430.4 c 1
 356.9 434.3 392.2 444.9 440 449 c 1
 443 446 l 1
 441 437 440 429 440 420 c 0
 440 411 441 403 443 394 c 1
 440 391 l 1
 398.8 395.2 365.7 399 335.6 401.4 c 1
 366.3 375 384 336.1 384 289 c 0
308 279 m 0
 308 354 274 395 214 395 c 0
 162 395 137 347 137 302 c 0
 137 238 161 180 227 180 c 0
 262 180 308 208 308 279 c 0
EndSplineSet
Colour: ff00ff
EndChar

StartChar: Gbreve
Encoding: 286 286 50
Width: 699
VWidth: 999
Flags: HW
HStem: -10 46<295.106 519.78> 611 47<271.555 476.844> 693 52<293 449>
VStem: 32 103<213.43 430.807> 236 28<766 804> 480 27<768 806> 546 86<83.5114 304.327>
LayerCount: 2
Fore
SplineSet
508 806 m 1
 502 735 438 693 372 693 c 0
 299 693 241 736 236 806 c 1
 264 806 l 1
 272 767 319 745 372 745 c 0
 421 745 473 767 480 806 c 1
 508 806 l 1
546 117 m 1
 544.5 192 544 250 536 307 c 1
 538 310 l 1
 538 310 555 307 589 307 c 0
 624 307 641 310 641 310 c 1
 642 307 l 1
 634 254 632 212 632 137 c 2
 632 131 l 2
 632 120 633.3 93.7 642 83 c 1
 642 80 l 1
 574.5 23.4 492.5 -10 376 -10 c 0
 175 -10 32 134 32 307 c 0
 32 527 209 658 381 658 c 0
 503 658 599 613 599 613 c 1
 601 610 l 1
 589.2 560.7 584.6 550 581 499 c 1
 571 498 l 1
 530 580 457 611 367 611 c 0
 232 611 135 502 135 327 c 0
 135 195 221 36 399 36 c 0
 453 36 512 42 546 74 c 1
 546 117 l 1
EndSplineSet
Position2: "'cpsp' Versalabstaende 1" dx=2 dy=0 dh=5 dv=0
Substitution2: "'c2sc' Versale nach Kapitaelchen 1" gbreve.sc
Colour: ff00ff
EndChar

StartChar: gbreve
Encoding: 287 287 51
Width: 479
VWidth: 999
Flags: HW
HStem: -238 43<141.427 314.366> -15 62<137.607 251.772> -12 66<172.809 355.253> 136 44<169.974 279.135> 395 44<163.808 275.455> 497 57<150.968 287.898>
VStem: 32 66<-157.208 -57.419> 59 78<215.424 363.363> 64 56<55.5258 149.891> 85 26<603.805 635.769> 308 76<209.668 361.501> 328 27<605.333 635.63> 392 61<-135.741 -44.0939>
LayerCount: 2
Fore
SplineSet
112 644 m 1
 123 591 166 554 220 554 c 0
 272 554 318 586 328 644 c 1
 355 632 l 1
 343 546 279 497 220 497 c 0
 150 497 99 547 85 632 c 1
 112 644 l 1
147.1 -13.7 m 1
 110.3 -42.9 98 -70.9 98 -104 c 0
 98 -172 178 -195 212 -195 c 0
 298 -195 392 -152 392 -91 c 0
 392 -65 385.5 -50.8 348 -29 c 0
 320.5 -13 283 -12 235 -12 c 0
 221.2 -12 195.5 -15 166 -15 c 0
 160.1 -15 153.5 -14.5 147.1 -13.7 c 1
384 289 m 0
 384 191 306 136 222 136 c 0
 185 136 160 143 137 157 c 1
 126 140 120 119 120 99 c 0
 120 56 150 47 178 47 c 0
 183 47 193 48 207 49 c 0
 230 52 253 54 270 54 c 0
 305 54 373.5 53 411 21 c 0
 439 -2.9 453 -36 453 -68 c 0
 453 -176 313 -238 184 -238 c 0
 111 -238 32 -211 32 -124 c 0
 32 -81 59 -35 110 -3 c 1
 85 10 64 38 64 74 c 0
 64 108 79 151 106 175 c 1
 79 202 59 233 59 287 c 0
 59 379 138 439 223 439 c 0
 244.5 439 264.4 436 282.3 430.4 c 1
 356.9 434.3 392.2 444.9 440 449 c 1
 443 446 l 1
 441 437 440 429 440 420 c 0
 440 411 441 403 443 394 c 1
 440 391 l 1
 398.8 395.2 365.7 399 335.6 401.4 c 1
 366.3 375 384 336.1 384 289 c 0
308 279 m 0
 308 354 274 395 214 395 c 0
 162 395 137 347 137 302 c 0
 137 238 161 180 227 180 c 0
 262 180 308 208 308 279 c 0
EndSplineSet
AlternateSubs2: "'aalt' Alle Alternativen zeigen 1" gbreve.sc
Substitution2: "'smcp' Gemeine nach Kapitaelchen 1" gbreve.sc
Colour: ff00ff
EndChar

StartChar: Gdotaccent
Encoding: 288 288 52
Width: 699
VWidth: 999
Flags: HW
HStem: -10 46<295.106 519.78> 611 47<271.555 476.844> 701 104<333.248 416.458>
VStem: 32 103<213.43 430.807> 323 104<711.542 794.752> 546 86<83.5114 304.327>
LayerCount: 2
Fore
SplineSet
324 753 m 0
 324 780 348 804 375 804 c 0
 402 804 426 780 426 753 c 0
 426 726 402 702 375 702 c 0
 348 702 324 726 324 753 c 0
546 117 m 1
 544.5 192 544 250 536 307 c 1
 538 310 l 1
 538 310 555 307 589 307 c 0
 624 307 641 310 641 310 c 1
 642 307 l 1
 634 254 632 212 632 137 c 2
 632 131 l 2
 632 120 633.3 93.7 642 83 c 1
 642 80 l 1
 574.5 23.4 492.5 -10 376 -10 c 0
 175 -10 32 134 32 307 c 0
 32 527 209 658 381 658 c 0
 503 658 599 613 599 613 c 1
 601 610 l 1
 589.2 560.7 584.6 550 581 499 c 1
 571 498 l 1
 530 580 457 611 367 611 c 0
 232 611 135 502 135 327 c 0
 135 195 221 36 399 36 c 0
 453 36 512 42 546 74 c 1
 546 117 l 1
EndSplineSet
Position2: "'cpsp' Versalabstaende 1" dx=2 dy=0 dh=5 dv=0
Colour: ff00ff
EndChar

StartChar: gdotaccent
Encoding: 289 289 53
Width: 479
VWidth: 999
Flags: HW
HStem: -238 43<141.427 314.366> -15 62<137.607 251.772> -12 66<172.809 355.253> 136 44<169.974 279.135> 395 44<163.808 275.455> 518 104<183.248 266.458>
VStem: 32 66<-157.208 -57.419> 59 78<215.424 363.363> 64 56<55.5258 149.891> 173 104<528.542 611.752> 308 76<209.668 361.501> 392 61<-135.741 -44.0939>
LayerCount: 2
Fore
SplineSet
174 570 m 0
 174 597 198 621 225 621 c 0
 252 621 276 597 276 570 c 0
 276 543 252 519 225 519 c 0
 198 519 174 543 174 570 c 0
147.1 -13.7 m 1
 110.3 -42.9 98 -70.9 98 -104 c 0
 98 -172 178 -195 212 -195 c 0
 298 -195 392 -152 392 -91 c 0
 392 -65 385.5 -50.8 348 -29 c 0
 320.5 -13 283 -12 235 -12 c 0
 221.2 -12 195.5 -15 166 -15 c 0
 160.1 -15 153.5 -14.5 147.1 -13.7 c 1
384 289 m 0
 384 191 306 136 222 136 c 0
 185 136 160 143 137 157 c 1
 126 140 120 119 120 99 c 0
 120 56 150 47 178 47 c 0
 183 47 193 48 207 49 c 0
 230 52 253 54 270 54 c 0
 305 54 373.5 53 411 21 c 0
 439 -2.9 453 -36 453 -68 c 0
 453 -176 313 -238 184 -238 c 0
 111 -238 32 -211 32 -124 c 0
 32 -81 59 -35 110 -3 c 1
 85 10 64 38 64 74 c 0
 64 108 79 151 106 175 c 1
 79 202 59 233 59 287 c 0
 59 379 138 439 223 439 c 0
 244.5 439 264.4 436 282.3 430.4 c 1
 356.9 434.3 392.2 444.9 440 449 c 1
 443 446 l 1
 441 437 440 429 440 420 c 0
 440 411 441 403 443 394 c 1
 440 391 l 1
 398.8 395.2 365.7 399 335.6 401.4 c 1
 366.3 375 384 336.1 384 289 c 0
308 279 m 0
 308 354 274 395 214 395 c 0
 162 395 137 347 137 302 c 0
 137 238 161 180 227 180 c 0
 262 180 308 208 308 279 c 0
EndSplineSet
Colour: ff00ff
EndChar

StartChar: Gcommaaccent
Encoding: 290 290 54
Width: 699
VWidth: 999
Flags: HW
HStem: -231 17<330 351.215> -134 81<329.998 402.485> -10 46<295.106 519.78> 611 47<271.555 476.844>
VStem: 32 103<213.43 430.807> 405 32<-177.598 -107.5> 546 86<83.5114 304.327>
LayerCount: 2
Fore
SplineSet
375 -62 m 0
 413 -62 437 -96 437 -148 c 0
 437 -208 388 -238 331 -247 c 1
 325 -241 323 -232 323 -223 c 1
 372 -212 398 -188 398 -170 c 0
 398 -150 385 -146 367 -144 c 1
 350 -141 325 -132 325 -105 c 0
 325 -81 346 -62 375 -62 c 0
546 117 m 1
 544.5 192 544 250 536 307 c 1
 538 310 l 1
 538 310 555 307 589 307 c 0
 624 307 641 310 641 310 c 1
 642 307 l 1
 634 254 632 212 632 137 c 2
 632 131 l 2
 632 120 633.3 93.7 642 83 c 1
 642 80 l 1
 574.5 23.4 492.5 -10 376 -10 c 0
 175 -10 32 134 32 307 c 0
 32 527 209 658 381 658 c 0
 503 658 599 613 599 613 c 1
 601 610 l 1
 589.2 560.7 584.6 550 581 499 c 1
 571 498 l 1
 530 580 457 611 367 611 c 0
 232 611 135 502 135 327 c 0
 135 195 221 36 399 36 c 0
 453 36 512 42 546 74 c 1
 546 117 l 1
EndSplineSet
Position2: "'cpsp' Versalabstaende 1" dx=2 dy=0 dh=5 dv=0
Colour: ff00ff
EndChar

StartChar: gcommaaccent
Encoding: 291 291 55
Width: 479
VWidth: 999
Flags: HW
HStem: -238 43<141.427 314.366> -15 62<137.607 251.772> -12 66<172.809 355.253> 136 44<169.974 279.135> 395 44<163.808 275.455> 511 82<199.561 272.708> 673 17<251.498 273>
VStem: 32 66<-157.208 -57.419> 59 78<215.424 363.363> 64 56<55.5258 149.891> 166 32<584 635.93> 308 76<209.668 361.501> 392 61<-135.741 -44.0939>
LayerCount: 2
Fore
SplineSet
228 511 m 0
 189 511 166 548 166 584 c 0
 166 608 173 630 189 650 c 0
 205.9 671.1 234 688 272 693 c 1
 276 689 277 680 277 673 c 1
 220 661 200 629 200 606 c 0
 200 586.4 204.8 593 229 593 c 0
 269 593 279 569 279 552 c 0
 279 536 263 511 228 511 c 0
147.1 -13.7 m 1
 110.3 -42.9 98 -70.9 98 -104 c 0
 98 -172 178 -195 212 -195 c 0
 298 -195 392 -152 392 -91 c 0
 392 -65 385.5 -50.8 348 -29 c 0
 320.5 -13 283 -12 235 -12 c 0
 221.2 -12 195.5 -15 166 -15 c 0
 160.1 -15 153.5 -14.5 147.1 -13.7 c 1
384 289 m 0
 384 191 306 136 222 136 c 0
 185 136 160 143 137 157 c 1
 126 140 120 119 120 99 c 0
 120 56 150 47 178 47 c 0
 183 47 193 48 207 49 c 0
 230 52 253 54 270 54 c 0
 305 54 373.5 53 411 21 c 0
 439 -2.9 453 -36 453 -68 c 0
 453 -176 313 -238 184 -238 c 0
 111 -238 32 -211 32 -124 c 0
 32 -81 59 -35 110 -3 c 1
 85 10 64 38 64 74 c 0
 64 108 79 151 106 175 c 1
 79 202 59 233 59 287 c 0
 59 379 138 439 223 439 c 0
 244.5 439 264.4 436 282.3 430.4 c 1
 356.9 434.3 392.2 444.9 440 449 c 1
 443 446 l 1
 441 437 440 429 440 420 c 0
 440 411 441 403 443 394 c 1
 440 391 l 1
 398.8 395.2 365.7 399 335.6 401.4 c 1
 366.3 375 384 336.1 384 289 c 0
308 279 m 0
 308 354 274 395 214 395 c 0
 162 395 137 347 137 302 c 0
 137 238 161 180 227 180 c 0
 262 180 308 208 308 279 c 0
EndSplineSet
Colour: ff00ff
EndChar

StartChar: Hcircumflex
Encoding: 292 292 56
Width: 700
VWidth: 999
Flags: HW
HStem: -3 21<93 146 146 199 501 554 554 607> 321 42<187 513> 628 20<93 146 146 199 501 554 554 607>
VStem: 103 86<2.67992 642.32> 511 86<2.67992 642.32>
LayerCount: 2
Fore
SplineSet
511 445 m 2
 511 520 509 588 501 645 c 1
 503 648 l 1
 503 648 520 645 554 645 c 0
 589 645 606 648 606 648 c 1
 607 645 l 1
 599 592 597 520 597 445 c 2
 597 200 l 2
 597 125 599 57 607 0 c 1
 605 -3 l 1
 605 -3 588 0 554 0 c 0
 519 0 502 -3 502 -3 c 1
 501 0 l 1
 509 54 511 125 511 200 c 2
 511 321 l 1
 189 321 l 1
 189 200 l 2
 189 125 191 57 199 0 c 1
 197 -3 l 1
 197 -3 180 0 146 0 c 0
 111 0 94 -3 94 -3 c 1
 93 0 l 1
 101 54 103 125 103 200 c 2
 103 445 l 2
 103 520 101 588 93 645 c 1
 95 648 l 1
 95 648 112 645 146 645 c 0
 181 645 198 648 198 648 c 1
 199 645 l 1
 191 592 189 520 189 445 c 2
 189 363 l 1
 511 363 l 1
 511 445 l 2
368 803 m 1
 398 767 433 736 469 709 c 1
 453 688 l 1
 414 706 380 725 347 750 c 1
 310 723 278 705 240 688 c 1
 226 709 l 1
 263 737 294 769 325 803 c 1
 368 803 l 1
EndSplineSet
Position2: "'cpsp' Versalabstaende 1" dx=2 dy=0 dh=5 dv=0
Colour: ff00ff
EndChar

StartChar: hcircumflex
Encoding: 293 293 57
Width: 520
VWidth: 999
Flags: HW
HStem: -3 21<73 123 123 173 348 398 398 448> 382 57<239.694 343.936> 678 20<151.465 167.167>
VStem: 83 80<2.66453 327.568 360 667.98> 358 80<2.66453 368.709>
LayerCount: 2
Fore
SplineSet
286 832 m 1
 316 796 351 765 387 738 c 1
 371 717 l 1
 332 735 298 754 265 779 c 1
 228 752 196 734 158 717 c 1
 144 738 l 1
 181 766 212 798 243 832 c 1
 286 832 l 1
358 180 m 2
 358 285 l 2
 358 366 339 382 283 382 c 0
 254 382 211 356 163 309 c 1
 163 180 l 2
 163 103.8 164.5 57 173 0 c 1
 171 -3 l 1
 171 -3 157.3 0 123 0 c 0
 88 0 74 -3 74 -3 c 1
 73 0 l 1
 81.5 53.5 83 105.5 83 180 c 2
 83 481 l 2
 83 557 80.7 627.3 73 670 c 1
 75 673 l 1
 115.5 676 138.9 688 164 698 c 1
 170.3 698 173 695 173 688 c 0
 165.3 626.7 163 575 163 501 c 2
 163 360 l 1
 230 427 289 439 328 439 c 0
 400 439 438 387 438 284 c 2
 438 180 l 2
 438 103.8 439.5 57 448 0 c 1
 446 -3 l 1
 446 -3 432.3 0 398 0 c 0
 363 0 349 -3 349 -3 c 1
 348 0 l 1
 356.5 53.5 358 105.5 358 180 c 2
EndSplineSet
Colour: ff00ff
EndChar

StartChar: Hbar
Encoding: 294 294 58
Width: 700
VWidth: 999
Flags: HW
HStem: -3 21<93 146 146 199 501 554 554 607> 321 42<187 513> 512 34<41 656> 628 20<93 146 146 199 501 554 554 607>
VStem: 103 86<2.67992 642.32> 511 86<2.67992 642.32>
LayerCount: 2
Fore
SplineSet
511 363 m 1
 511 445 l 2
 511 468 510.8 490.4 510.3 512 c 1
 189.7 512 l 1
 189.2 490.2 189 467.8 189 445 c 2
 189 363 l 1
 511 363 l 1
511 321 m 1
 189 321 l 1
 189 200 l 2
 189 125 191 57 199 0 c 1
 197 -3 l 1
 197 -3 180 0 146 0 c 0
 111 0 94 -3 94 -3 c 1
 93 0 l 1
 101 54 103 125 103 200 c 2
 103 445 l 2
 103 468 102.8 490.4 102.3 512 c 1
 41 512 l 1
 41 546 l 1
 101.2 546 l 1
 99.7 581.7 97.2 614.9 93 645 c 1
 95 648 l 1
 95 648 112 645 146 645 c 0
 181 645 198 648 198 648 c 1
 199 645 l 1
 194.7 616.6 192.2 582.8 190.7 546 c 1
 509.2 546 l 1
 507.7 581.7 505.2 614.9 501 645 c 1
 503 648 l 1
 503 648 520 645 554 645 c 0
 589 645 606 648 606 648 c 1
 607 645 l 1
 602.7 616.6 600.2 582.8 598.7 546 c 1
 656 546 l 1
 656 512 l 1
 597.7 512 l 1
 597.2 490.2 597 467.8 597 445 c 2
 597 200 l 2
 597 125 599 57 607 0 c 1
 605 -3 l 1
 605 -3 588 0 554 0 c 0
 519 0 502 -3 502 -3 c 1
 501 0 l 1
 509 54 511 125 511 200 c 2
 511 321 l 1
EndSplineSet
Position2: "'cpsp' Versalabstaende 1" dx=2 dy=0 dh=5 dv=0
Colour: ff80cc
EndChar

StartChar: hbar
Encoding: 295 295 59
Width: 520
VWidth: 999
Flags: HW
HStem: -3 21<73 123 123 173 348 398 398 448> 382 57<239.694 343.936> 530 39<26 341> 678 20<151.465 167.167>
VStem: 83 80<2.66453 327.568 360 667.98> 358 80<2.66453 368.709>
LayerCount: 2
Fore
SplineSet
358 180 m 2
 358 285 l 2
 358 366 339 382 283 382 c 0
 254 382 211 356 163 309 c 1
 163 180 l 2
 163 103.8 164.5 57 173 0 c 1
 171 -3 l 1
 171 -3 157.3 0 123 0 c 0
 88 0 74 -3 74 -3 c 1
 73 0 l 1
 81.5 53.5 83 105.5 83 180 c 2
 83 481 l 2
 83 497.7 82.9 514.1 82.6 530 c 1
 26 530 l 1
 26 569 l 1
 81.7 569 l 1
 80.3 609.4 77.6 644.6 73 670 c 1
 75 673 l 1
 115.5 676 138.9 688 164 698 c 1
 170.3 698 173 695 173 688 c 0
 167.9 647.2 165.2 610.7 163.9 569 c 1
 341 569 l 1
 341 530 l 1
 163.1 530 l 1
 163 520.7 163 511.1 163 501 c 2
 163 360 l 1
 230 427 289 439 328 439 c 0
 400 439 438 387 438 284 c 2
 438 180 l 2
 438 103.8 439.5 57 448 0 c 1
 446 -3 l 1
 446 -3 432.3 0 398 0 c 0
 363 0 349 -3 349 -3 c 1
 348 0 l 1
 356.5 53.5 358 105.5 358 180 c 2
EndSplineSet
Colour: ff80cc
EndChar

StartChar: Itilde
Encoding: 296 296 60
Width: 293
VWidth: 999
Flags: HW
HStem: -3 21<96 149 149 202> 628 20<96 149 149 202> 697 44<162 249> 745 46<44 135> 784 10
VStem: 106 86<2.67992 642.32>
LayerCount: 2
Fore
SplineSet
213 741 m 0
 235 741 249 751 263 793 c 1
 287 787 l 1
 275 727 246 697 200 697 c 0
 178 697 157 709 136 723 c 0
 118 734 99 745 82 745 c 0
 56 745 43 730 33 697 c 1
 9 702 l 1
 23 761 46 791 89 791 c 0
 119 791 141 777 161 763 c 0
 177 751 194 741 213 741 c 0
106 445 m 2
 106 520 104 588 96 645 c 1
 98 648 l 1
 98 648 115 645 149 645 c 0
 184 645 201 648 201 648 c 1
 202 645 l 1
 194 592 192 520 192 445 c 2
 192 200 l 2
 192 125 194 57 202 0 c 1
 200 -3 l 1
 200 -3 183 0 149 0 c 0
 114 0 97 -3 97 -3 c 1
 96 0 l 1
 104 54 106 125 106 200 c 2
 106 445 l 2
EndSplineSet
Position2: "'cpsp' Versalabstaende 1" dx=2 dy=0 dh=5 dv=0
Colour: ff00ff
EndChar

StartChar: itilde
Encoding: 297 297 61
Width: 268
VWidth: 999
Flags: HW
HStem: -3 21<84 134 134 184> 419 20<162.5 178> 526 44<149.2 227.5> 574 46<43 124.9> 613 10
VStem: 94 80<2.6647 408.973>
LayerCount: 2
Fore
SplineSet
195.1 570 m 0
 214.9 570 227.5 580 240.1 622 c 1
 261.7 616 l 1
 250.9 556 224.8 526 183.4 526 c 0
 163.6 526 144.7 538 125.8 552 c 0
 109.6 563 92.5 574 77.2 574 c 0
 53.8 574 42.1 559 33.1 526 c 1
 11.5 531 l 1
 24.1 590 44.8 620 83.5 620 c 0
 110.5 620 130.3 606 148.3 592 c 0
 162.7 580 178 570 195.1 570 c 0
94 235 m 2
 94 310 92 368 84 411 c 1
 86 414 l 1
 126 417 150 429 175 439 c 1
 181 439 184 436 184 429 c 0
 176 368 174 326 174 251 c 2
 174 180 l 2
 174 104 176 57 184 0 c 1
 182 -3 l 1
 182 -3 168 0 134 0 c 0
 99 0 85 -3 85 -3 c 1
 84 0 l 1
 92 54 94 105 94 180 c 2
 94 235 l 2
EndSplineSet
Colour: ff00ff
EndChar

StartChar: Imacron
Encoding: 298 298 62
Width: 293
VWidth: 999
Flags: HW
HStem: -3 21<96 149 149 202> 628 20<96 149 149 202> 733 44<9.0876 287.515>
VStem: 8 281<733.205 777> 106 86<2.67992 642.32>
LayerCount: 2
Fore
SplineSet
265 733 m 2
 21 733 l 2
 12 733 8 741 8 748 c 0
 8 760 19 777 30 777 c 2
 275 777 l 2
 285 777 289 769 289 763 c 0
 289 751 278 733 265 733 c 2
106 445 m 2
 106 520 104 588 96 645 c 1
 98 648 l 1
 98 648 115 645 149 645 c 0
 184 645 201 648 201 648 c 1
 202 645 l 1
 194 592 192 520 192 445 c 2
 192 200 l 2
 192 125 194 57 202 0 c 1
 200 -3 l 1
 200 -3 183 0 149 0 c 0
 114 0 97 -3 97 -3 c 1
 96 0 l 1
 104 54 106 125 106 200 c 2
 106 445 l 2
EndSplineSet
Position2: "'cpsp' Versalabstaende 1" dx=2 dy=0 dh=5 dv=0
Colour: ff00ff
EndChar

StartChar: imacron
Encoding: 299 299 63
Width: 268
VWidth: 999
Flags: HW
HStem: -3 21<84 134 134 184> 419 20<162.5 178> 538 44<9.57884 260.164>
VStem: 8.6 252.9<538.205 582> 94 80<2.6647 408.973>
LayerCount: 2
Fore
SplineSet
239.9 538 m 2
 20.3 538 l 2
 12.2 538 8.6 546 8.6 553 c 0
 8.6 565 18.5 582 28.4 582 c 2
 248.9 582 l 2
 257.9 582 261.5 574 261.5 568 c 0
 261.5 556 251.6 538 239.9 538 c 2
94 235 m 2
 94 310 92 368 84 411 c 1
 86 414 l 1
 126 417 150 429 175 439 c 1
 181 439 184 436 184 429 c 0
 176 368 174 326 174 251 c 2
 174 180 l 2
 174 104 176 57 184 0 c 1
 182 -3 l 1
 182 -3 168 0 134 0 c 0
 99 0 85 -3 85 -3 c 1
 84 0 l 1
 92 54 94 105 94 180 c 2
 94 235 l 2
EndSplineSet
Colour: ff00ff
EndChar

StartChar: Ibreve
Encoding: 300 300 64
Width: 293
VWidth: 999
Flags: HW
HStem: -3 21<96 149 149 202> 628 20<96 149 149 202> 692 52<70 226>
VStem: 13 28<765 803> 106 86<2.67992 642.32> 257 27<767 805>
LayerCount: 2
Fore
SplineSet
285 805 m 1
 279 734 215 692 149 692 c 0
 76 692 18 735 13 805 c 1
 41 805 l 1
 49 766 96 744 149 744 c 0
 198 744 250 766 257 805 c 1
 285 805 l 1
106 445 m 2
 106 520 104 588 96 645 c 1
 98 648 l 1
 98 648 115 645 149 645 c 0
 184 645 201 648 201 648 c 1
 202 645 l 1
 194 592 192 520 192 445 c 2
 192 200 l 2
 192 125 194 57 202 0 c 1
 200 -3 l 1
 200 -3 183 0 149 0 c 0
 114 0 97 -3 97 -3 c 1
 96 0 l 1
 104 54 106 125 106 200 c 2
 106 445 l 2
EndSplineSet
Position2: "'cpsp' Versalabstaende 1" dx=2 dy=0 dh=5 dv=0
Colour: ff00ff
EndChar

StartChar: ibreve
Encoding: 301 301 65
Width: 268
VWidth: 999
Flags: HW
HStem: -3 21<84 134 134 184> 419 20<162.5 178> 503 57<74.2712 197.508>
VStem: 14.9 23.4<609.805 641.769> 94 80<2.6647 408.973> 233.6 24.3<611.333 641.63>
LayerCount: 2
Fore
SplineSet
39.2 650 m 1
 49.1 597 87.8 560 136.4 560 c 0
 183.2 560 224.6 592 233.6 650 c 1
 257.9 638 l 1
 247.1 552 189.5 503 136.4 503 c 0
 73.4 503 27.5 553 14.9 638 c 1
 39.2 650 l 1
94 235 m 2
 94 310 92 368 84 411 c 1
 86 414 l 1
 126 417 150 429 175 439 c 1
 181 439 184 436 184 429 c 0
 176 368 174 326 174 251 c 2
 174 180 l 2
 174 104 176 57 184 0 c 1
 182 -3 l 1
 182 -3 168 0 134 0 c 0
 99 0 85 -3 85 -3 c 1
 84 0 l 1
 92 54 94 105 94 180 c 2
 94 235 l 2
EndSplineSet
Colour: ff00ff
EndChar

StartChar: Iogonek
Encoding: 302 302 66
Width: 293
VWidth: 999
Flags: HW
HStem: -225 39<73.1814 157.134> -3 21<96 149 149 202> -1 25<142.256 178.88> 628 20<96 149 149 202>
VStem: -1 60<-174.091 -75.5789> 106 86<2.67992 642.32>
LayerCount: 2
Fore
SplineSet
92 -225 m 0
 39 -225 -1 -194 -1 -140 c 0
 -1 -93.2 38 -36 96.8 -2.4 c 1
 96 0 l 1
 104 54 106 125 106 200 c 2
 106 445 l 2
 106 520 104 588 96 645 c 1
 98 648 l 1
 98 648 115 645 149 645 c 0
 184 645 201 648 201 648 c 1
 202 645 l 1
 194 592 192 520 192 445 c 2
 192 200 l 2
 192 125 194 57 202 0 c 1
 200 -3 l 1
 200 -3 195.1 -2.1 185.1 -1.3 c 1
 110 -6.6 59 -77.9 59 -127 c 0
 59 -159 81 -186 117 -186 c 0
 147 -186 168 -171 187 -150 c 1
 202 -158 l 1
 178 -205 128 -225 92 -225 c 0
EndSplineSet
Position2: "'cpsp' Versalabstaende 1" dx=2 dy=0 dh=5 dv=0
Colour: ff80cc
EndChar

StartChar: iogonek
Encoding: 303 303 67
Width: 268
VWidth: 999
Flags: HW
HStem: -225 39<52.2133 135.045> -3 21<84 134 134 184> -1 25<119.395 156.6> 419 20<162.5 178> 518 104<92.248 175.458>
VStem: -23 60<-174.091 -75.5789> 82 104<528.542 611.752> 94 80<2.6647 408.973>
LayerCount: 2
Fore
SplineSet
70 -225 m 0
 16 -225 -23 -194 -23 -140 c 0
 -23 -90.5 19.8 -29.4 84.4 3.1 c 1
 92 56 94 106.4 94 180 c 2
 94 235 l 2
 94 310 92 368 84 411 c 1
 86 414 l 1
 126 417 150 429 175 439 c 1
 181 439 184 436 184 429 c 0
 176 368 174 326 174 251 c 2
 174 180 l 2
 174 104 176 57 184 0 c 1
 182 -3 l 1
 182 -3 177.1 -2 166.1 -1.1 c 1
 88.8 -4.1 37 -77.1 37 -127 c 0
 37 -159 59 -186 95 -186 c 0
 124 -186 145 -171 164 -150 c 1
 180 -158 l 1
 156 -205 105 -225 70 -225 c 0
83 570 m 0
 83 597 107 621 134 621 c 0
 161 621 185 597 185 570 c 0
 185 543 161 519 134 519 c 0
 107 519 83 543 83 570 c 0
EndSplineSet
Colour: ff80cc
EndChar

StartChar: Idotaccent
Encoding: 304 304 68
Width: 293
VWidth: 999
Flags: HW
HStem: -3 21<96 149 149 202> 628 20<96 149 149 202> 698 104<104.248 187.458>
VStem: 94 104<708.542 791.752> 106 86<2.67992 642.32>
LayerCount: 2
Fore
SplineSet
95 750 m 0
 95 777 119 801 146 801 c 0
 173 801 197 777 197 750 c 0
 197 723 173 699 146 699 c 0
 119 699 95 723 95 750 c 0
106 445 m 2
 106 520 104 588 96 645 c 1
 98 648 l 1
 98 648 115 645 149 645 c 0
 184 645 201 648 201 648 c 1
 202 645 l 1
 194 592 192 520 192 445 c 2
 192 200 l 2
 192 125 194 57 202 0 c 1
 200 -3 l 1
 200 -3 183 0 149 0 c 0
 114 0 97 -3 97 -3 c 1
 96 0 l 1
 104 54 106 125 106 200 c 2
 106 445 l 2
EndSplineSet
Substitution2: "'c2sc' Versale nach Kapitaelchen 1" idotaccent.sc
Position2: "'cpsp' Versalabstaende 1" dx=2 dy=0 dh=5 dv=0
Colour: ff00ff
EndChar

StartChar: afii10057
Encoding: 1032 1032 69
Width: 385
VWidth: 999
Flags: HW
HStem: -10 60<57.8935 169.935> 628 20G<200 253 253 306>
VStem: 210 86<132.814 642.32>
AnchorPoint: "top_akzent" 252 806 basechar 0
AnchorPoint: "top_punkt" 251 723 basechar 0
LayerCount: 2
Fore
SplineSet
210 258 m 2
 210 445 l 2
 210 520 208 588 200 645 c 1
 202 648 l 1
 202 648 219 645 253 645 c 0
 288 645 305 648 305 648 c 1
 306 645 l 1
 298 592 296 520 296 445 c 2
 296 280 l 2
 296 165.5 285.8 135.1 233 66 c 0
 191.8 12.1 138 -10 75 -10 c 0
 56 -10 38 -6 30 -1 c 1
 29 2 l 1
 40 21 50 57 57 84 c 1
 68 85 l 1
 79 65 97 50 126 50 c 0
 205 50 210 170 210 258 c 2
EndSplineSet
EndChar

StartChar: afii10061
Encoding: 1036 1036 70
Width: 632
VWidth: 999
Flags: HW
HStem: -3 21<96 149 149 202> -2 29<566 583> 323 43<187 280.713> 590 61<426.699 532.056> 628 20<96 149 149 202> 698 122
VStem: 106 86<2.67992 642.32> 288 201
LayerCount: 2
Fore
SplineSet
427 820 m 1
 455.6 806.7 476.3 789.3 489 768 c 1
 345 710 l 2
 324 701 312 698 303 698 c 0
 294 698 288 705 288 713 c 0
 288 720 290 725 303 734 c 2
 427 820 l 1
106 445 m 2
 106 520 104 588 96 645 c 1
 98 648 l 1
 98 648 115 645 149 645 c 0
 184 645 201 648 201 648 c 1
 202 645 l 1
 194 592 192 520 192 445 c 2
 192 357.1 l 1
 281.2 360.1 286.1 443.6 347 531 c 0
 390.3 593.1 449 658 527 658 c 0
 554 658 558 655 584 648 c 1
 589 642 l 1
 560 551 l 1
 548 548 l 1
 528 562 511 569 483 569 c 0
 460 569 424 550 388 502 c 0
 343.6 442.8 328 360 285 340 c 1
 285 337 l 1
 357 325 376.8 296.9 429 237 c 0
 513.7 139.8 512 89 596 0 c 1
 593 -4 l 1
 580 -2 541 0 516 0 c 0
 490 0 490 -2 467 -4 c 1
 419 73 399 117 371 169 c 0
 329.6 245.8 299.9 303.2 192 311.6 c 1
 192 200 l 2
 192 125 194 57 202 0 c 1
 200 -3 l 1
 200 -3 183 0 149 0 c 0
 114 0 97 -3 97 -3 c 1
 96 0 l 1
 104 54 106 125 106 200 c 2
 106 445 l 2
EndSplineSet
LCarets2: 1 0 
Colour: ff00ff
EndChar

StartChar: uni040D
Encoding: 1037 1037 71
Width: 700
VWidth: 999
Flags: HW
HStem: -2 29<20 52 242 274 427 459 649 682> 618 28<20 52 242 274 426 459 649 681>
VStem: 106 81<35.9534 78 134 609.354> 514 81<36.3852 505 561 608.905>
DStem2: 187 134 187 78 0.608002 0.793935<0 493.367>
LayerCount: 2
Fore
SplineSet
299 818 m 1
 420 734 l 2
 431 726 435 720 435 713 c 0
 435 705 428 698 420 698 c 0
 412 698 398 701 377 710 c 2
 223 773 l 1
 241.3 790.7 264.8 806.4 299 818 c 1
106 445 m 2
 106 520 104 588 96 645 c 1
 98 648 l 1
 98 648 115 645 149 645 c 0
 184 645 201 648 201 648 c 1
 202 645 l 1
 194 592 192 520 192 445 c 2
 192 200 l 2
 192 179.9 192.1 160.2 192.5 141.2 c 1
 509.8 555.5 l 1
 508.3 587.6 505.8 617.6 502 645 c 1
 504 648 l 1
 504 648 521 645 555 645 c 0
 590 645 607 648 607 648 c 1
 608 645 l 1
 600 592 598 520 598 445 c 2
 598 200 l 2
 598 125 600 57 608 0 c 1
 606 -3 l 1
 606 -3 589 0 555 0 c 0
 520 0 503 -3 503 -3 c 1
 502 0 l 1
 510 54 512 125 512 200 c 2
 512 445 l 2
 512 464.4 511.8 483.4 511.5 501.8 c 1
 194.3 87.5 l 1
 195.8 56.2 198.2 26.9 202 0 c 1
 200 -3 l 1
 200 -3 183 0 149 0 c 0
 114 0 97 -3 97 -3 c 1
 96 0 l 1
 104 54 106 125 106 200 c 2
 106 445 l 2
EndSplineSet
LCarets2: 1 0 
Colour: ff00ff
EndChar

StartChar: afii10062
Encoding: 1038 1038 72
Width: 580
VWidth: 999
Flags: HW
HStem: -22 62<133 229.447> 618 28<1 51.985 192 235 391 425 520.846 579> 697 31<266.536 357.309>
VStem: 187 70<735.681 802.162> 366 70<734.774 802.125>
DStem2: 170 575 88 559 0.41865 -0.908148<-32.5036 379.947> 283 136 342 161 0.370296 0.928914<-102.293 0 103.423 504.868>
LayerCount: 2
Fore
SplineSet
312 728 m 0
 345 728 368 745 368 762 c 0
 368 767 367 773 367 775 c 0
 367 790 377 805 400 805 c 0
 427 805 437 791 437 772 c 0
 437 720 378 697 312 697 c 0
 246 697 187 720 187 772 c 0
 187 791 197 805 224 805 c 0
 247 805 257 790 257 775 c 0
 257 773 256 767 256 762 c 0
 256 745 279 728 312 728 c 0
342 161 m 2
 293.9 54.1 244 -22 154 -22 c 0
 112 -22 66 1 66 33 c 0
 66 61 81 84 113 84 c 0
 127 84 149 77 159 65 c 0
 166 56 181 45 195 45 c 0
 237.7 45 253.9 81.1 278.6 138.3 c 1
 192.3 339.9 85.7 567.8 46 648 c 1
 63 645 89 645 106 645 c 0
 123 645 144 645 161 648 c 1
 169.6 618 224.1 470.1 323.2 242.5 c 1
 384.4 386.9 448.8 546.4 476 648 c 1
 488 645 515 645 526 645 c 0
 537 645 549 645 561 648 c 1
 342 161 l 2
EndSplineSet
LCarets2: 1 0 
Colour: ff00ff
EndChar

StartChar: afii10020
Encoding: 1043 1043 73
Width: 481
VWidth: 999
Flags: HW
HStem: -2 29<14 47 238 270> 605 40<184.437 406.492> 618 28<14 50>
VStem: 102 81<36.3415 603.635> 457 29<488.793 527.352>
LayerCount: 2
Fore
SplineSet
185 445 m 2
 185 200 l 2
 185 125 187 53 195 0 c 1
 194 -3 l 1
 194 -3 177 0 142 0 c 0
 108 0 90 -3 90 -3 c 1
 88 0 l 1
 96 57 99 125 99 200 c 2
 99 445 l 2
 99 520 97 591 89 645 c 1
 90 648 l 1
 90 648 108 645 142 645 c 2
 415 645 l 2
 436 645 459 646 475 648 c 1
 477 645 l 1
 476 631 475 626 475 616 c 0
 475 606 476 591 477 583 c 1
 475 579 l 1
 475 579 327 591 193 591 c 1
 186 567 185 462 185 445 c 2
EndSplineSet
Colour: ff00ff
EndChar

StartChar: afii10021
Encoding: 1044 1044 74
Width: 708
VWidth: 999
Flags: HW
HStem: 0 44<630 903> 601 44<632 819> 618 28<898 936>
VStem: 1024 27<-140 -94> 538 86<47 587> 479 36<-138 -60>
LayerCount: 2
Fore
SplineSet
425 44 m 2
 443 44 450 50 453 59 c 0
 460 83 461 183 461 200 c 2
 461 445 l 2
 461 462 460 564 453 588 c 1
 446 597 442 601 427 601 c 2
 313 601 l 2
 286 601 276 591 274 566 c 0
 265.9 465 251 361 239 293 c 0
 217 176 192 77 192 56 c 0
 192 44 205 44 219 44 c 2
 425 44 l 2
178 0 m 2
 98 0 86 -65 75 -138 c 1
 73 -141 l 1
 41 -141 l 1
 39 -138 l 1
 27 11 l 2
 27 21 32 29 57 32 c 0
 77.1 34.4 98 32 112 47 c 0
 138 73 156 145 188 301 c 1
 210 415 222 518 222 581 c 0
 222 603 219 625 216 645 c 1
 217 648 l 1
 217 648 244 645 278 645 c 2
 504 645 l 2
 538 645 556 648 556 648 c 1
 557 645 l 1
 549 591 547 520 547 445 c 2
 547 200 l 2
 547 90 554 35 588 32 c 0
 613 29.8 618 21 618 11 c 2
 606 -138 l 1
 604 -141 l 1
 572 -141 l 1
 570 -138 l 1
 559 -65 547 0 467 0 c 2
 178 0 l 2
EndSplineSet
EndChar

StartChar: afii10024
Encoding: 1046 1046 75
Width: 924
VWidth: 999
Flags: HW
HStem: -4 21G<35 44 147 181 743 777 880 889> -3 21<412 462 462 512> 312 45<364 424 500 560> 569 89<70 172 752 854> 628 20<412 462 462 512>
VStem: 421 82<3 642>
LayerCount: 2
Fore
SplineSet
249 169 m 0
 223 117 204 73 158 -4 c 1
 136 -2 136 0 111 0 c 0
 88 0 51 -2 38 -4 c 1
 35 0 l 1
 115 89 113 140 194 237 c 0
 244 297 262 325 331 337 c 1
 331 340 l 1
 290 360 274.9 443 233 502 c 0
 198.9 550 165 569 143 569 c 0
 116 569 100 562 81 548 c 1
 70 551 l 1
 42 642 l 1
 47 648 l 1
 72 655 75 658 101 658 c 0
 175 658 230.9 593 272 531 c 0
 329.9 443.7 334.8 360.3 419 357.1 c 1
 419 445 l 2
 419 520 417 588 409 645 c 1
 411 648 l 1
 411 648 428 645 462 645 c 0
 497 645 514 648 514 648 c 1
 515 645 l 1
 507 592 505 520 505 445 c 2
 505 357.1 l 1
 589.2 360.3 594.1 443.7 652 531 c 0
 693.1 593 749 658 823 658 c 0
 849 658 852 655 877 648 c 1
 882 642 l 1
 854 551 l 1
 843 548 l 1
 824 562 808 569 781 569 c 0
 759 569 725.1 550 691 502 c 0
 649.1 443 634 360 593 340 c 1
 593 337 l 1
 662 325 680 297 730 237 c 0
 811 140 809 89 889 0 c 1
 886 -4 l 1
 873 -2 836 0 813 0 c 0
 788 0 788 -2 766 -4 c 1
 720 73 701 117 675 169 c 0
 635.6 245.8 606.9 303.1 505 311.6 c 1
 505 200 l 2
 505 125 507 57 515 0 c 1
 513 -3 l 1
 513 -3 496 0 462 0 c 0
 427 0 410 -3 410 -3 c 1
 409 0 l 1
 417 54 419 125 419 200 c 2
 419 311.6 l 1
 317.1 303.1 288.4 245.8 249 169 c 0
EndSplineSet
Colour: ff80cc
EndChar

StartChar: afii10025
Encoding: 1047 1047 76
Width: 542
VWidth: 999
Flags: HW
HStem: -12 37<172.536 324.196> 336 37<158.005 306.843> 469 21G<49 91> 624 34<165.85 309.892>
VStem: 49 30<470.533 513.383> 375 80<432.684 569.184> 405 92<100.605 254.446>
LayerCount: 2
Fore
SplineSet
248 25 m 0
 318 25 405 68 405 176 c 0
 405 227 366 336 249 336 c 2
 176 336 l 2
 165 336 158 343 158 354 c 0
 158 365 165 373 176 373 c 2
 223 373 l 2
 342 373 375 451 375 506 c 0
 375 573 311 624 249 624 c 0
 126 624 103 550 79 469 c 1
 49 471 l 1
 69 646 l 1
 156 646 191 658 251 658 c 0
 344 658 455 611 455 516 c 0
 455 437 412 387 340 360 c 1
 411 340 497 299 497 192 c 0
 497 41 363 -12 245 -12 c 0
 164 -12 115 19 84 43 c 0
 57 64 36 91 36 118 c 0
 36 144 47 165 70 165 c 0
 98 165 108 152 119 120 c 0
 140 59 172 25 248 25 c 0
EndSplineSet
EndChar

StartChar: afii10026
Encoding: 1048 1048 77
Width: 700
VWidth: 999
Flags: HW
HStem: -3 21<96 149 149 202 502 555 555 608> 628 20<96 149 149 202 502 555 555 608>
VStem: 106 86<2.67992 642.32> 512 86<2.67992 642.32>
DStem2: 187 134 187 78 0.608002 0.793935<0 493.367>
LayerCount: 2
Fore
SplineSet
106 445 m 2
 106 520 104 588 96 645 c 1
 98 648 l 1
 98 648 115 645 149 645 c 0
 184 645 201 648 201 648 c 1
 202 645 l 1
 194 592 192 520 192 445 c 2
 192 200 l 2
 192 179.9 192.1 160.2 192.5 141.2 c 1
 509.8 555.5 l 1
 508.3 587.6 505.8 617.6 502 645 c 1
 504 648 l 1
 504 648 521 645 555 645 c 0
 590 645 607 648 607 648 c 1
 608 645 l 1
 600 592 598 520 598 445 c 2
 598 200 l 2
 598 125 600 57 608 0 c 1
 606 -3 l 1
 606 -3 589 0 555 0 c 0
 520 0 503 -3 503 -3 c 1
 502 0 l 1
 510 54 512 125 512 200 c 2
 512 445 l 2
 512 464.4 511.8 483.4 511.5 501.8 c 1
 194.3 87.5 l 1
 195.8 56.2 198.2 26.9 202 0 c 1
 200 -3 l 1
 200 -3 183 0 149 0 c 0
 114 0 97 -3 97 -3 c 1
 96 0 l 1
 104 54 106 125 106 200 c 2
 106 445 l 2
EndSplineSet
EndChar

StartChar: afii10027
Encoding: 1049 1049 78
Width: 700
VWidth: 999
Flags: HW
HStem: -2 29<20 52 242 274 427 459 649 682> 618 28<20 52 242 274 426 459 649 681> 697 31<305.536 396.309>
VStem: 106 81<35.9534 78 134 609.354> 226 70<735.681 802.162> 405 70<734.774 802.125> 514 81<36.3852 505 561 608.905>
DStem2: 187 134 187 78 0.608002 0.793935<0 493.367>
LayerCount: 2
Fore
SplineSet
351 728 m 0
 384 728 407 745 407 762 c 0
 407 767 406 773 406 775 c 0
 406 790 416 805 439 805 c 0
 466 805 476 791 476 772 c 0
 476 720 417 697 351 697 c 0
 285 697 226 720 226 772 c 0
 226 791 236 805 263 805 c 0
 286 805 296 790 296 775 c 0
 296 773 295 767 295 762 c 0
 295 745 318 728 351 728 c 0
106 445 m 2
 106 520 104 588 96 645 c 1
 98 648 l 1
 98 648 115 645 149 645 c 0
 184 645 201 648 201 648 c 1
 202 645 l 1
 194 592 192 520 192 445 c 2
 192 200 l 2
 192 179.9 192.1 160.2 192.5 141.2 c 1
 509.8 555.5 l 1
 508.3 587.6 505.8 617.6 502 645 c 1
 504 648 l 1
 504 648 521 645 555 645 c 0
 590 645 607 648 607 648 c 1
 608 645 l 1
 600 592 598 520 598 445 c 2
 598 200 l 2
 598 125 600 57 608 0 c 1
 606 -3 l 1
 606 -3 589 0 555 0 c 0
 520 0 503 -3 503 -3 c 1
 502 0 l 1
 510 54 512 125 512 200 c 2
 512 445 l 2
 512 464.4 511.8 483.4 511.5 501.8 c 1
 194.3 87.5 l 1
 195.8 56.2 198.2 26.9 202 0 c 1
 200 -3 l 1
 200 -3 183 0 149 0 c 0
 114 0 97 -3 97 -3 c 1
 96 0 l 1
 104 54 106 125 106 200 c 2
 106 445 l 2
EndSplineSet
LCarets2: 1 0 
Colour: ff00ff
EndChar

StartChar: afii10033
Encoding: 1055 1055 79
Width: 708
VWidth: 999
Flags: HW
HStem: -3 21<90 144 144 197 511 564 564 618> 601 44<195.326 512.674>
VStem: 101 86<2.67992 586.818> 521 86<2.67992 586.818>
LayerCount: 2
Fore
SplineSet
564 645 m 2
 598 645 616 648 616 648 c 1
 617 645 l 1
 609 591 607 520 607 445 c 2
 607 200 l 2
 607 125 610 57 618 0 c 1
 616 -3 l 1
 616 -3 598 0 564 0 c 0
 529 0 512 -3 512 -3 c 1
 511 0 l 1
 519 53 521 125 521 200 c 2
 521 445 l 2
 521 462 520 564 513 588 c 1
 506 597 502 601 487 601 c 2
 221 601 l 2
 206 601 202 597 195 588 c 1
 188 564 187 462 187 445 c 2
 187 200 l 2
 187 125 189 53 197 0 c 1
 196 -3 l 1
 196 -3 179 0 144 0 c 0
 110 0 92 -3 92 -3 c 1
 90 0 l 1
 98 57 101 125 101 200 c 2
 101 445 l 2
 101 520 99 591 91 645 c 1
 92 648 l 1
 92 648 110 645 144 645 c 2
 564 645 l 2
EndSplineSet
Colour: ff00ff
EndChar

StartChar: afii10034
Encoding: 1056 1056 80
Width: 522
VWidth: 999
Flags: HW
HStem: -3 21<93 146 146 199> 282 34<189.825 339.655> 618 34<171.719 345.938>
VStem: 103 86<2.67992 292 319.76 608.938> 401 97<393.808 563.368>
LayerCount: 2
Fore
SplineSet
189 574 m 2
 189 326 l 1
 202 319 233 316 258 316 c 0
 355 316 401 360 401 468 c 0
 401 595 338 618 269 618 c 0
 197 618 189 603 189 574 c 2
103 445 m 2
 103 520 101 588 93 645 c 1
 95 648 l 1
 95 648 112 645 146 645 c 0
 176 645 250 652 276 652 c 0
 461 652 498 545 498 486 c 0
 498 401 445 282 263 282 c 0
 228 282 211 285 189 292 c 1
 189 200 l 2
 189 125 191 57 199 0 c 1
 197 -3 l 1
 197 -3 180 0 146 0 c 0
 111 0 94 -3 94 -3 c 1
 93 0 l 1
 101 54 103 125 103 200 c 2
 103 445 l 2
EndSplineSet
Colour: ff00ff
EndChar

StartChar: afii10035
Encoding: 1057 1057 81
Width: 650
VWidth: 999
Flags: HW
HStem: -10 51<269.467 470.143> 611 47<271.061 460.844>
VStem: 37 103<195.742 435.455>
LayerCount: 2
Fore
SplineSet
365 658 m 0
 487 658 583 613 583 613 c 1
 585 610 l 1
 573.2 560.7 568.6 550 565 499 c 1
 555 498 l 1
 514 580 441 611 351 611 c 0
 269 611 140 537 140 334 c 0
 140 188 205 41 360 41 c 0
 453 41 521 62 592 140 c 1
 615 125 l 1
 547 36 448 -10 351 -10 c 0
 136 -10 37 154 37 315 c 0
 37 512 196 658 365 658 c 0
EndSplineSet
Colour: ff00ff
EndChar

StartChar: afii10036
Encoding: 1058 1058 82
Width: 540
VWidth: 999
Flags: HW
HStem: -3 21<217 270 270 323> 574 21<15 219 321 525> 586 59<17.7578 222.336 317.664 522.242>
VStem: 227 86<2.67992 584.82>
LayerCount: 2
Fore
SplineSet
227 445 m 2
 227 462 226 562 219 586 c 1
 85 586 17 574 17 574 c 1
 15 578 l 1
 17 593 17 617 15 645 c 1
 17 648 l 1
 33 646 56 645 77 645 c 2
 463 645 l 2
 484 645 507 646 523 648 c 1
 525 645 l 1
 523 617 523 593 525 578 c 1
 523 574 l 1
 523 574 455 586 321 586 c 1
 314 562 313 462 313 445 c 2
 313 200 l 2
 313 125 315 57 323 0 c 1
 321 -3 l 1
 321 -3 304 0 270 0 c 0
 235 0 218 -3 218 -3 c 1
 217 0 l 1
 225 54 227 125 227 200 c 2
 227 445 l 2
EndSplineSet
Colour: ff00ff
EndChar

StartChar: afii10037
Encoding: 1059 1059 83
Width: 580
VWidth: 999
Flags: HW
HStem: -22 67<133 228.079> 628 20G<54.5 65.8588 152.5 165.28 462.421 482 552.006 555>
DStem2: 278.595 138.281 342 161 0.410131 0.912027<-105.377 13.9628 113.393 328.053>
LayerCount: 2
Fore
SplineSet
342 161 m 2
 293.9 54.1 244 -22 154 -22 c 0
 112 -22 66 1 66 33 c 0
 66 61 81 84 113 84 c 0
 127 84 149 77 159 65 c 0
 166 56 181 45 195 45 c 0
 237.7 45 253.9 81.1 278.6 138.3 c 1
 192.3 339.9 85.7 567.8 46 648 c 1
 63 645 89 645 106 645 c 0
 123 645 144 645 161 648 c 1
 169.6 618 224.1 470.1 323.2 242.5 c 1
 384.4 386.9 448.8 546.4 476 648 c 1
 488 645 515 645 526 645 c 0
 537 645 549 645 561 648 c 1
 342 161 l 2
EndSplineSet
EndChar

StartChar: afii10039
Encoding: 1061 1061 84
Width: 571
VWidth: 999
Flags: HW
HStem: -2 28<4 61 169 190 398 420 570 617> 586 27<411 444 538 597>
DStem2: 122 99 155 73 0.593199 0.805056<-35.2356 230.04 328.87 586.289> 191 543 249 326 0.578967 -0.815351<-35.4928 216.477 291.97 559.314>
LayerCount: 2
Fore
SplineSet
554 -3 m 1
 536 0 514 0 496 0 c 0
 478 0 456 0 438 -3 c 1
 384.3 100.1 339.4 182.6 279.5 282.7 c 1
 221.6 194.9 161.8 98.1 107 -3 c 1
 96 0 77 0 65 0 c 0
 54 0 34 0 23 -3 c 1
 250.5 330.7 l 1
 48 648 l 1
 65 645 87 645 104 645 c 0
 121 645 143 645 161 648 c 1
 189.1 589.8 230.9 519.1 301.5 404.5 c 1
 377.6 514.7 401.9 551.7 454 648 c 1
 465 645 485 645 496 645 c 0
 507 645 527 645 538 648 c 1
 330.2 358.1 l 1
 554 -3 l 1
EndSplineSet
Colour: ff00ff
EndChar

StartChar: afii10040
Encoding: 1062 1062 85
Width: 639
VWidth: 999
Flags: HW
HStem: 0 44<183.144 451.533> 628 20G<78 132 132 185 448 501 501 555>
VStem: 89 86<60.1801 642.32> 458 86<46.9378 642.32> 566 36<-138 -59.6869>
LayerCount: 2
Fore
SplineSet
544 200 m 2
 544 90 550.2 35 584 32 c 0
 608.9 29.8 614 20.7 614 11 c 2
 602 -138 l 1
 600 -141 l 1
 568 -141 l 1
 566 -138 l 1
 555.1 -65.4 542.7 0 463 0 c 2
 132 0 l 2
 98 0 80 -3 80 -3 c 1
 79 0 l 1
 87 54 89 125 89 200 c 2
 89 445 l 2
 89 520 86 588 78 645 c 1
 80 648 l 1
 80 648 98 645 132 645 c 0
 167 645 184 648 184 648 c 1
 185 645 l 1
 177 592 175 520 175 445 c 2
 175 200 l 2
 175 183 176 83 183 59 c 0
 186 50 193 44 211 44 c 2
 422 44 l 2
 440 44 447 50 450 59 c 0
 457 83 458 183 458 200 c 2
 458 445 l 2
 458 520 456 592 448 645 c 1
 449 648 l 1
 449 648 466 645 501 645 c 0
 535 645 553 648 553 648 c 1
 555 645 l 1
 547 588 544 520 544 445 c 2
 544 200 l 2
EndSplineSet
EndChar

StartChar: afii10041
Encoding: 1063 1063 86
Width: 633
VWidth: 999
Flags: HW
HStem: -3 21<436 489 489 542> 244 64<213.903 364.049> 628 20G<84 137 137 190 436 489 489 542>
VStem: 94 86<340.66 642.32> 446 86<2.67992 642.32>
LayerCount: 2
Fore
SplineSet
180 445 m 2
 180 417 l 2
 180 335 220 308 292 308 c 0
 320.5 308 383 311.9 446 353 c 1
 446 445 l 2
 446 520 444 588 436 645 c 1
 438 648 l 1
 438 648 455 645 489 645 c 0
 524 645 541 648 541 648 c 1
 542 645 l 1
 534 592 532 520 532 445 c 2
 532 200 l 2
 532 125 534 57 542 0 c 1
 540 -3 l 1
 540 -3 523 0 489 0 c 0
 454 0 437 -3 437 -3 c 1
 436 0 l 1
 444 54 446 125 446 200 c 2
 446 308.9 l 1
 374.1 259.5 307.2 244 250 244 c 0
 136 244 94 323 94 422 c 2
 94 445 l 2
 94 520 92 588 84 645 c 1
 86 648 l 1
 86 648 103 645 137 645 c 0
 172 645 189 648 189 648 c 1
 190 645 l 1
 182 592 180 520 180 445 c 2
EndSplineSet
EndChar

StartChar: afii10042
Encoding: 1064 1064 87
Width: 960
VWidth: 999
Flags: HW
HStem: 0 44<197.144 430.533 531.144 766.533> 628 20G<92 146 146 199 426 480 480 533 763 816 816 870>
VStem: 103 86<60.1801 642.32> 437 86<60.1801 642.32> 773 86<47.6754 642.32>
LayerCount: 2
Fore
SplineSet
859 200 m 2
 859.3 125 861 57 869 0 c 1
 867 -3 l 1
 867 -3 850 0 816 0 c 2
 147 0 l 2
 112 0 94 -3 94 -3 c 1
 93 0 l 1
 101 54 103 125 103 200 c 2
 103 445 l 2
 103 520 100 588 92 645 c 1
 94 648 l 1
 94 648 112 645 146 645 c 0
 181 645 198 648 198 648 c 1
 199 645 l 1
 191 592 189 520 189 445 c 2
 189 200 l 2
 189 183 190 83 197 59 c 0
 200 50 207 44 225 44 c 2
 401 44 l 2
 419 44 426 50 429 59 c 0
 436 83 437 183 437 200 c 2
 437 445 l 2
 437 520 434 588 426 645 c 1
 428 648 l 1
 428 648 446 645 480 645 c 0
 515 645 532 648 532 648 c 1
 533 645 l 1
 525 592 523 520 523 445 c 2
 523 200 l 2
 523 183 524 83 531 59 c 0
 534 50 541 44 559 44 c 2
 737 44 l 2
 755 44 762 50 765 59 c 0
 772 83 773 183 773 200 c 2
 773 445 l 2
 773 520 771 592 763 645 c 1
 764 648 l 1
 764 648 781 645 816 645 c 0
 850 645 868 648 868 648 c 1
 870 645 l 1
 862 588 859 520 859 445 c 2
 859 200 l 2
EndSplineSet
EndChar

StartChar: afii10043
Encoding: 1065 1065 88
Width: 948
VWidth: 999
Flags: HW
HStem: 0 44<197.144 430.533 531.144 766.533> 628 20G<92 146 146 199 426 480 480 533 763 816 816 870>
VStem: 103 86<60.1801 642.32> 437 86<60.1801 642.32> 773 86<46.9378 642.32> 881 36<-138 -59.6869>
LayerCount: 2
Fore
SplineSet
147 0 m 2
 112 0 94 -3 94 -3 c 1
 93 0 l 1
 101 54 103 125 103 200 c 2
 103 445 l 2
 103 520 100 588 92 645 c 1
 94 648 l 1
 94 648 112 645 146 645 c 0
 181 645 198 648 198 648 c 1
 199 645 l 1
 191 592 189 520 189 445 c 2
 189 200 l 2
 189 183 190 83 197 59 c 0
 200 50 207 44 225 44 c 2
 401 44 l 2
 419 44 426 50 429 59 c 0
 436 83 437 183 437 200 c 2
 437 445 l 2
 437 520 434 588 426 645 c 1
 428 648 l 1
 428 648 446 645 480 645 c 0
 515 645 532 648 532 648 c 1
 533 645 l 1
 525 592 523 520 523 445 c 2
 523 200 l 2
 523 183 524 83 531 59 c 0
 534 50 541 44 559 44 c 2
 737 44 l 2
 755 44 762 50 765 59 c 0
 772 83 773 183 773 200 c 2
 773 445 l 2
 773 520 771 592 763 645 c 1
 764 648 l 1
 764 648 781 645 816 645 c 0
 850 645 868 648 868 648 c 1
 870 645 l 1
 862 588 859 520 859 445 c 2
 859 200 l 2
 859 90 865.3 35 899 32 c 0
 923.9 29.8 929 20.7 929 11 c 2
 917 -138 l 1
 915 -141 l 1
 883 -141 l 1
 881 -138 l 1
 870.1 -65.4 857.7 0 778 0 c 2
 147 0 l 2
EndSplineSet
EndChar

StartChar: afii10044
Encoding: 1066 1066 89
Width: 717
VWidth: 999
Flags: HW
HStem: -2 35<330.629 502.725> 329 44<348 522.728> 569 21G<50 254> 581 64<52.7551 257.32>
VStem: 262 86<37.7419 329 373 578.197> 587 94<103.061 266.903>
LayerCount: 2
Fore
SplineSet
348 329 m 1
 348 84 l 2
 348 51 350 33 405 33 c 0
 557 33 587 121 587 183 c 0
 587 243 561 329 433 329 c 2
 348 329 l 1
302 645 m 2
 340 645 357 648 357 648 c 1
 358 645 l 1
 350 592 350.1 520 348 445 c 1
 348 373 l 1
 406 373 l 2
 652 373 681 272 681 183 c 0
 681 16 524 -2 403 -2 c 0
 367 -2 336 0 307 0 c 0
 273 0 253 -3 253 -3 c 1
 252 0 l 1
 260 54 262 125 262 200 c 2
 262 445 l 2
 261.8 462 261 557 254 581 c 1
 120 581 52 569 52 569 c 1
 50 573 l 1
 52 588 52 617 50 645 c 1
 52 648 l 1
 68 646 91 645 112 645 c 2
 302 645 l 2
EndSplineSet
EndChar

StartChar: afii10045
Encoding: 1067 1067 90
Width: 786
VWidth: 999
Flags: HW
HStem: -2 21<588 641 641 694> -2 30<19 51 194.478 332.526> 333 40<187 355.567> 618 28<19 51 241 274> 629 20<588 641 641 694>
VStem: 106 81<36.1947 333 373 608.615> 433 89<103.729 266.225> 598 86<3.67992 643.32>
LayerCount: 2
Fore
SplineSet
598 446 m 2
 598 521 596 589 588 646 c 1
 590 649 l 1
 590 649 607 646 641 646 c 0
 676 646 693 649 693 649 c 1
 694 646 l 1
 686 593 684 521 684 446 c 2
 684 201 l 2
 684 126 686 58 694 1 c 1
 692 -2 l 1
 692 -2 675 1 641 1 c 0
 606 1 589 -2 589 -2 c 1
 588 1 l 1
 596 55 598 126 598 201 c 2
 598 446 l 2
148 0 m 0
 114 0 94 -3 94 -3 c 1
 93 0 l 1
 101 54 103 125 103 200 c 2
 103 445 l 2
 103 520 100 588 92 645 c 1
 94 648 l 1
 94 648 112 645 146 645 c 0
 181 645 198 648 198 648 c 1
 199 645 l 1
 191 592 189 520 189 445 c 2
 189 373 l 1
 247 373 l 2
 493 373 522 272 522 183 c 0
 522 16 365 -2 244 -2 c 0
 208 -2 177 0 148 0 c 0
189 329 m 1
 189 84 l 2
 189 51 191 33 246 33 c 0
 398 33 428 121 428 183 c 0
 428 243 402 329 274 329 c 2
 189 329 l 1
EndSplineSet
Colour: ff00ff
EndChar

StartChar: afii10046
Encoding: 1068 1068 91
Width: 558
VWidth: 999
Flags: HW
HStem: -2 35<171.629 343.725> 329 44<189 363.728> 628 20G<92 146 146 199>
VStem: 103 86<37.7419 329 373 642.32> 428 94<103.061 266.903>
LayerCount: 2
Fore
SplineSet
148 0 m 0
 114 0 94 -3 94 -3 c 1
 93 0 l 1
 101 54 103 125 103 200 c 2
 103 445 l 2
 103 520 100 588 92 645 c 1
 94 648 l 1
 94 648 112 645 146 645 c 0
 181 645 198 648 198 648 c 1
 199 645 l 1
 191 592 189 520 189 445 c 2
 189 373 l 1
 247 373 l 2
 493 373 522 272 522 183 c 0
 522 16 365 -2 244 -2 c 0
 208 -2 177 0 148 0 c 0
189 329 m 1
 189 84 l 2
 189 51 191 33 246 33 c 0
 398 33 428 121 428 183 c 0
 428 243 402 329 274 329 c 2
 189 329 l 1
EndSplineSet
EndChar

StartChar: afii10047
Encoding: 1069 1069 92
Width: 604
VWidth: 999
Flags: HMW
HStem: -12 34<194 359> 273 56<309 422> 311 49<155 284> 621 37<189 346>
VStem: 472 89<186 307 344 460>
LayerCount: 2
Fore
SplineSet
472 307 m 1
 417 273 373 273 360 273 c 0
 298 273 255 311 196 311 c 0
 158 311 142 295 134 295 c 0
 130 295 125 298 125 307 c 0
 125 332 188 360 247 360 c 0
 313 360 342 329 400 329 c 0
 429 329 452 335 471 344 c 1
 461 550 352 621 271 621 c 0
 176 621 98 540 72 454 c 1
 42 458 l 1
 53 511 61 558 63 613 c 1
 121 616 174 658 279 658 c 0
 444 658 561 550 561 333 c 0
 561 113 445 -12 275 -12 c 0
 189 -12 133 19 102 43 c 0
 75 64 54 95 54 122 c 0
 54 148 66 165 84 165 c 0
 113 165 125 152 135 120 c 0
 159 48 214 21 286 21 c 0
 413 21 471 169 472 307 c 1
EndSplineSet
EndChar

StartChar: afii10048
Encoding: 1070 1070 93
Width: 905
VWidth: 999
Flags: HW
HStem: -12 39<517.224 661.561> -3 21<96 149 149 202> 302 44<187 285> 619 39<495.321 644.165> 628 20<96 149 149 202>
VStem: 106 86<2.67992 642.32> 285 96<193.326 302 346 446.919> 770 96<190.805 458.298>
LayerCount: 2
Fore
SplineSet
562 619 m 0
 478 619 381 537 381 327 c 0
 381 135 484 27 592 27 c 0
 695 27 770 131 770 310 c 0
 770 518 687 619 562 619 c 0
106 445 m 2
 106 520 104 588 96 645 c 1
 98 648 l 1
 98 648 115 645 149 645 c 0
 184 645 201 648 201 648 c 1
 202 645 l 1
 194 592 192 520 192 445 c 2
 192 346 l 1
 286 346 l 1
 299 525 417 658 573 658 c 0
 741 658 866 527 866 329 c 0
 866 129 752 -12 574 -12 c 0
 416 -12 287 108 285 302 c 1
 192 302 l 1
 192 200 l 2
 192 125 194 57 202 0 c 1
 200 -3 l 1
 200 -3 183 0 149 0 c 0
 114 0 97 -3 97 -3 c 1
 96 0 l 1
 104 54 106 125 106 200 c 2
 106 445 l 2
EndSplineSet
EndChar

StartChar: afii10049
Encoding: 1071 1071 94
Width: 561
VWidth: 999
Flags: HW
HStem: -3 21G<0 11.833 112.333 127.333 369.833 422.833 422.833 475.833> 286 44<272.871 379.833> 613 39<216.489 397.534>
VStem: 70.8 97<391.208 564.52> 379.8 86<2.67992 286 330 603.161>
LayerCount: 2
Fore
SplineSet
297 613 m 0
 236 613 168 596 168 478 c 0
 168 353 235 330 332 330 c 2
 380 330 l 1
 380 569 l 2
 380 598 368 613 297 613 c 0
219.2 300 m 1
 199 305.1 184.1 311.3 171 318 c 0
 117 345 71 397 71 479 c 0
 71 529 88 570 124 604 c 0
 172 649 235 652 298 652 c 0
 323 652 393 645 423 645 c 0
 457 645 474 648 474 648 c 1
 476 645 l 1
 468 588 466 520 466 445 c 2
 466 200 l 2
 466 125 468 54 476 0 c 1
 475 -3 l 1
 475 -3 458 0 423 0 c 0
 389 0 372 -3 372 -3 c 1
 370 0 l 1
 378 57 380 125 380 200 c 2
 380 286 l 1
 355.1 286 333.2 286.6 313.9 287.6 c 1
 285.4 254.7 256.5 214.9 229 176 c 0
 178.1 103.9 133 31 122 -3 c 1
 103 0 73 0 54 0 c 0
 34 0 22 0 2 -3 c 1
 0 0 l 1
 50.1 56.7 155.4 215.9 219.2 300 c 1
EndSplineSet
EndChar

StartChar: afii10089
Encoding: 1095 1095 95
Width: 510
VWidth: 999
Flags: HW
HStem: -3 21<323 373 373 423> 137 44<162.252 301.419> 412 20G<57 107 107 157 323 373 373 423>
VStem: 68 80<195.691 426.366> 333 80<2.66468 426.335>
LayerCount: 2
Fore
SplineSet
68 291 m 0
 68 366.5 65 376 57 429 c 1
 58 432 l 1
 58 432 72 429 107 429 c 0
 141 429 155 432 155 432 c 1
 157 429 l 1
 149 372 148 368 148 293 c 0
 148 215 155 181 217 181 c 0
 265 181 301.5 192.5 333 223 c 1
 333 250 l 2
 333 321 332 375 323 429 c 1
 324 432 l 1
 324 432 338 429 373 429 c 0
 407 429 421 432 421 432 c 1
 423 429 l 1
 414 372 414 325 413 250 c 1
 413 179 l 2
 413 104 414 57 423 0 c 1
 421 -3 l 1
 421 -3 407 0 373 0 c 0
 338 0 324 -3 324 -3 c 1
 323 0 l 1
 332 53.9 333 104.8 333 178.5 c 1
 294.9 150.5 263 137 204 137 c 0
 106 137 68 185 68 291 c 0
EndSplineSet
EndChar

StartChar: afii10090
Encoding: 1096 1096 96
Width: 807
VWidth: 999
Flags: HW
HStem: 0 41<185.326 354.674 451.326 622.533> 412 20G<87 137 137 187 353 403 403 453 619 670 670 720>
VStem: 97 80<55.1837 426.335> 363 80<55.1837 426.335> 629 80<43.5547 426.335>
CounterMasks: 1 38
LayerCount: 2
Fore
SplineSet
709 200 m 2
 709 125.5 711 54 719 0 c 1
 718 -3 l 1
 718 -3 700 0 666 0 c 2
 140 0 l 2
 106 0 88 -3 88 -3 c 1
 87 0 l 1
 95 54 97 125 97 200 c 2
 97 250 l 2
 97 325 96 372 87 429 c 1
 89 432 l 1
 89 432 103 429 137 429 c 0
 172 429 186 432 186 432 c 1
 187 429 l 1
 178 375 177 324 177 250 c 2
 177 200 l 2
 177 183 178 78 185 54 c 1
 192 45 196 41 211 41 c 2
 329 41 l 2
 344 41 348 45 355 54 c 1
 362 78 363 183 363 200 c 2
 363 250 l 2
 363 325 362 372 353 429 c 1
 355 432 l 1
 355 432 369 429 403 429 c 0
 438 429 452 432 452 432 c 1
 453 429 l 1
 444 375 443 324 443 250 c 2
 443 200 l 2
 443 183 444 78 451 54 c 1
 458 45 462 41 477 41 c 2
 609 41 l 2
 624 41 614 45 621 54 c 1
 628 78 629 183 629 200 c 2
 629 249 l 2
 629 325 627.5 372 619 429 c 1
 621 432 l 1
 621 432 635.7 429 670 429 c 0
 705 429 719 432 719 432 c 1
 720 429 l 1
 711.5 375.5 709 324.1 709 249 c 2
 709 200 l 2
EndSplineSet
EndChar

StartChar: afii10091
Encoding: 1097 1097 97
Width: 813
VWidth: 999
Flags: HW
HStem: 0 41<185.326 354.674 451.326 622.533> 412 20G<87 137 137 187 353 403 403 453 619 670 670 720>
VStem: 97 80<55.1837 426.335> 363 80<55.1837 426.335> 629 80<41.465 426.335> 731 36<-125 -51.0881>
LayerCount: 2
Fore
SplineSet
140 0 m 2
 106 0 88 -3 88 -3 c 1
 87 0 l 1
 95 54 97 125 97 200 c 2
 97 250 l 2
 97 325 96 372 87 429 c 1
 89 432 l 1
 89 432 103 429 137 429 c 0
 172 429 186 432 186 432 c 1
 187 429 l 1
 178 375 177 324 177 250 c 2
 177 200 l 2
 177 183 178 78 185 54 c 1
 192 45 196 41 211 41 c 2
 329 41 l 2
 344 41 348 45 355 54 c 1
 362 78 363 183 363 200 c 2
 363 250 l 2
 363 325 362 372 353 429 c 1
 355 432 l 1
 355 432 369 429 403 429 c 0
 438 429 452 432 452 432 c 1
 453 429 l 1
 444 375 443 324 443 250 c 2
 443 200 l 2
 443 183 444 78 451 54 c 1
 458 45 462 41 477 41 c 2
 609 41 l 2
 624 41 614 45 621 54 c 1
 628 78 629 183 629 200 c 2
 629 249 l 2
 629 325 627.5 372 619 429 c 1
 621 432 l 1
 621 432 635.7 429 670 429 c 0
 705 429 719 432 719 432 c 1
 720 429 l 1
 711.5 375.5 709 324.1 709 249 c 2
 709 200 l 2
 709 90 715.3 35 749 32 c 0
 773.9 29.8 779 20.7 779 11 c 2
 767 -125 l 1
 765 -128 l 1
 733 -128 l 1
 731 -125 l 1
 720.1 -52.4 707.7 0 628 0 c 2
 140 0 l 2
EndSplineSet
EndChar

StartChar: afii10092
Encoding: 1098 1098 98
Width: 539
VWidth: 999
Flags: HW
HStem: -2 36<257.183 402.245> 219 37<273 402.262> 374 55<34.7075 190>
VStem: 193 80<40.3429 219 256 372.311> 428 80<60.92 197.087>
LayerCount: 2
Fore
SplineSet
428 126 m 0
 428 179 411 219 340 219 c 2
 273 219 l 1
 273 79 l 2
 273 44 290 34 336 34 c 0
 386 34 428 44 428 126 c 0
193 250 m 2
 193 321 190 374 190 374 c 1
 65 374 34 363 34 363 c 1
 32 366 l 1
 34 380 34 403 32 429 c 1
 34 431 l 1
 49 430 70 429 89 429 c 2
 233 429 l 2
 267 429 281 432 281 432 c 1
 283 429 l 1
 274 372 273 334 273 259 c 2
 273 256 l 1
 330 256 l 2
 426 256 508 230 508 136 c 0
 508 52 446 -2 335 -2 c 0
 295.2 -2 272.8 0 233 0 c 0
 198 0 184 -3 184 -3 c 1
 183 0 l 1
 192 54 193 105 193 179 c 2
 193 250 l 2
EndSplineSet
EndChar

StartChar: afii10093
Encoding: 1099 1099 99
Width: 681
VWidth: 999
Flags: HW
HStem: -3 21<496 546 546 596> -2 36<165.183 310.245> 219 37<181 310.262> 412 20<91 141 141 191 496 546 546 596>
VStem: 101 80<40.3429 219 256 426.342> 336 80<60.92 197.087> 506 80<2.66468 426.335>
LayerCount: 2
Fore
SplineSet
506 250 m 2
 506 321 505 375 496 429 c 1
 497 432 l 1
 497 432 511 429 546 429 c 0
 580 429 594 432 594 432 c 1
 596 429 l 1
 587 372 587 325 586 250 c 1
 586 179 l 2
 586 104 587 57 596 0 c 1
 594 -3 l 1
 594 -3 580 0 546 0 c 0
 511 0 497 -3 497 -3 c 1
 496 0 l 1
 505 54 506 105 506 179 c 2
 506 250 l 2
336 126 m 0
 336 179 319 219 248 219 c 2
 181 219 l 1
 181 79 l 2
 181 44 198 34 244 34 c 0
 294 34 336 44 336 126 c 0
181 259 m 2
 181 256 l 1
 238 256 l 2
 334 256 416 230 416 136 c 0
 416 52 354 -2 243 -2 c 0
 203.2 -2 180.8 0 141 0 c 0
 106 0 92 -3 92 -3 c 1
 91 0 l 1
 100 54 101 105 101 179 c 2
 101 250 l 2
 101 321 100 375 91 429 c 1
 92 432 l 1
 92 432 106 429 141 429 c 0
 175 429 189 432 189 432 c 1
 191 429 l 1
 182 372 181 334 181 259 c 2
EndSplineSet
Colour: ff00ff
EndChar

StartChar: afii10094
Encoding: 1100 1100 100
Width: 447
VWidth: 999
Flags: HW
HStem: -2 36<165.183 310.245> 219 37<181 310.262> 412 20G<91 141 141 191>
VStem: 101 80<40.3429 219 256 426.342> 336 80<60.92 197.087>
LayerCount: 2
Fore
SplineSet
336 126 m 0
 336 179 319 219 248 219 c 2
 181 219 l 1
 181 79 l 2
 181 44 198 34 244 34 c 0
 294 34 336 44 336 126 c 0
181 259 m 2
 181 256 l 1
 238 256 l 2
 334 256 416 230 416 136 c 0
 416 52 354 -2 243 -2 c 0
 203.2 -2 180.8 0 141 0 c 0
 106 0 92 -3 92 -3 c 1
 91 0 l 1
 100 54 101 105 101 179 c 2
 101 250 l 2
 101 321 100 375 91 429 c 1
 92 432 l 1
 92 432 106 429 141 429 c 0
 175 429 189 432 189 432 c 1
 191 429 l 1
 182 372 181 334 181 259 c 2
EndSplineSet
EndChar

StartChar: afii10095
Encoding: 1101 1101 101
Width: 434
VWidth: 999
Flags: HMW
HStem: -10 31<133.489 237.744> 180 49<160.832 302.074> 207 41<92.6331 188.46> 408 31<122.738 236.146>
VStem: 314 77<116.594 208 230.421 318.818>
LayerCount: 2
Fore
SplineSet
313 236 m 1
 306 309 272 408 182 408 c 0
 102 408 81 351 67 290 c 1
 40 294 l 1
 46 338 49 372 51 427 c 1
 121 427 121 439 192 439 c 0
 315 439 391 335 391 225 c 0
 391 68 284 -10 178 -10 c 0
 96 -10 37 34 37 86 c 0
 37 100 49 115 67 115 c 0
 78 115 100 111 105 78 c 0
 111 44 142 21 185 21 c 0
 279 21 314 130 314 208 c 1
 292 196 259 180 228 180 c 0
 184 180 155 207 120 207 c 0
 108 207 98 202 90 202 c 0
 84 202 83 211 83 215 c 0
 83 230 128 248 171 248 c 0
 216 248 233 229 271 229 c 0
 287 229 301 231 313 236 c 1
EndSplineSet
EndChar

StartChar: afii10096
Encoding: 1102 1102 102
Width: 686
VWidth: 999
Flags: HW
HStem: -10 35<422.78 523.403> -2 29<29 54 214 240> 198 39<171 268> 402 29<29 54 214 240> 406 33<403.08 503.112>
VStem: 97 74<33.7976 198 237 394.785> 268 80<113.871 198 237 323.327> 569 80<107.111 329.997>
LayerCount: 2
Fore
SplineSet
449 401 m 0
 375 401 353 313 353 226 c 0
 353 149 381 30 475 30 c 0
 516 30 564 53 564 185 c 0
 564 331 527 401 449 401 c 0
93 250 m 2
 93 321 92 375 83 429 c 1
 84 432 l 1
 84 432 98 429 133 429 c 0
 167 429 181 432 181 432 c 1
 183 429 l 1
 174 372 174 325 173 250 c 1
 173 237 l 1
 269 237 l 1
 279 356 344 439 459 439 c 0
 603 439 649 321 649 217 c 0
 649 117 597 -10 458 -10 c 0
 330 -10 270 97 268 198 c 1
 173 198 l 1
 173 179 l 2
 173 104 174 57 183 0 c 1
 181 -3 l 1
 181 -3 167 0 133 0 c 0
 98 0 84 -3 84 -3 c 1
 83 0 l 1
 92 54 93 105 93 179 c 2
 93 250 l 2
EndSplineSet
EndChar

StartChar: afii10097
Encoding: 1103 1103 103
Width: 429
VWidth: 999
Flags: HW
HStem: -3 30<10 25> 195 35<206.934 268> 204 26<157.163 165> 402 30<151.259 285.062>
VStem: 38 85<253.842 371.816> 268 80<2.65817 195 230 398.777>
LayerCount: 2
Fore
SplineSet
268 230 m 1
 268 366 l 2
 268 398 253 402 214 402 c 0
 140 402 123 368 123 321 c 0
 123 271 146 230 203 230 c 2
 268 230 l 1
348 251 m 2
 348 178 l 2
 348 108 349 54 358 0 c 1
 357 -3 l 1
 357 -3 343 0 308 0 c 0
 274 0 260 -3 260 -3 c 1
 258 0 l 1
 267 57 268 95 268 169 c 2
 268 195 l 1
 243 195 l 2
 203 195 179 145 159 84 c 0
 145 43 118 1 83 0 c 2
 10 -3 l 1
 7 0 l 1
 7 19 l 2
 7 26 13 27 17 27 c 2
 25 28 l 2
 52 31 86 98 100 136 c 0
 116 177 137 198 165 204 c 1
 110 204 38 239 38 310 c 0
 38 339 56 432 217 432 c 0
 254 432 272 429 308 429 c 0
 343 429 357 432 357 432 c 1
 358 429 l 1
 349 375 348 324 348 251 c 2
EndSplineSet
EndChar

StartChar: uni04AE
Encoding: 1198 1198 104
Width: 591
VWidth: 999
Flags: HW
HStem: -3 21<242.42 247 334 339.566> 628 20<24.5 36 121.5 157.5 454.375 486 503.5 557.5>
LayerCount: 2
Fore
SplineSet
334.3 285.6 m 1
 335.2 186.5 337.9 44.9 342 -3 c 1
 326 0 305 0 290 0 c 0
 275 0 255 0 239 -3 c 1
 244.7 52.5 245.8 177.5 246 275.1 c 1
 207.9 340.2 56 588 16 648 c 1
 33 645 56 645 73 645 c 0
 90 645 113 645 130 648 c 1
 183.7 542.6 242 448.7 305.2 340.2 c 1
 363 431.1 429.5 543.2 480 648 c 1
 492 645 509 645 522 645 c 0
 534 645 551 645 564 648 c 1
 443.3 463.5 375.3 365.5 334.3 285.6 c 1
EndSplineSet
Colour: ff00ff
EndChar

StartChar: uni04C0
Encoding: 1216 1216 105
Width: 293
VWidth: 999
Flags: HW
HStem: -3 21<96 149 149 202> 628 20<96 149 149 202>
VStem: 106 86<2.67992 642.32>
LayerCount: 2
Fore
SplineSet
106 445 m 2
 106 520 104 588 96 645 c 1
 98 648 l 1
 98 648 115 645 149 645 c 0
 184 645 201 648 201 648 c 1
 202 645 l 1
 194 592 192 520 192 445 c 2
 192 200 l 2
 192 125 194 57 202 0 c 1
 200 -3 l 1
 200 -3 183 0 149 0 c 0
 114 0 97 -3 97 -3 c 1
 96 0 l 1
 104 54 106 125 106 200 c 2
 106 445 l 2
EndSplineSet
Colour: ff00ff
EndChar

StartChar: uni04D0
Encoding: 1232 1232 106
Width: 633
VWidth: 999
Flags: HW
HStem: -3 21<24 68.5 92 115.444 500.087 513.5 590 606.5> 230 44<188.935 310> 638 20<265 387> 698 31<285.536 376.309>
VStem: 206 70<736.681 803.162> 385 70<735.774 803.125>
LayerCount: 2
Fore
SplineSet
331 729 m 0
 364 729 387 746 387 763 c 0
 387 768 386 774 386 776 c 0
 386 791 396 806 419 806 c 0
 446 806 456 792 456 773 c 0
 456 721 397 698 331 698 c 0
 265 698 206 721 206 773 c 0
 206 792 216 806 243 806 c 0
 266 806 276 791 276 776 c 0
 276 774 275 768 275 763 c 0
 275 746 298 729 331 729 c 0
181 228.3 m 1
 145.3 140.8 114.4 58.3 98 -3 c 1
 86 0 64 0 53 0 c 0
 42 0 30 0 18 -3 c 1
 119 218 217 436 313 658 c 1
 341 658 l 1
 433 439 565 98 615 -3 c 1
 598 0 572 0 555 0 c 0
 538 0 522 0 505 -3 c 1
 498.9 19.2 476.3 97.2 427.3 228.3 c 1
 389.6 229.2 348 230 310 230 c 0
 275.5 230 219 229.2 181 228.3 c 1
409.3 275.5 m 1
 382.4 345.2 349.1 427.4 308 521.8 c 1
 306 521.8 l 1
 200.6 275.9 l 1
 232.3 275.5 276.1 274 305 274 c 0
 334.7 274 376.4 274.7 409.3 275.5 c 1
EndSplineSet
LCarets2: 1 0 
Colour: ff00ff
EndChar

StartChar: uni04D1
Encoding: 1233 1233 107
Width: 461
VWidth: 999
Flags: HW
HStem: -10 51<138.029 242.029 327.75 409.627> 394 45<147.355 264.803> 489 31<171.971 246.548>
VStem: 42 81<56.8026 162.817> 88 73<526.553 605.612> 257 73<526.548 606.379> 293 79.1<81.0426 223 264.049 363.451>
DStem2: 199 243 212 202 0.972687 0.232119<-72.5363 85.8176>
LayerCount: 2
Fore
SplineSet
330 577 m 0
 330 522 272 489 208 489 c 0
 143 489 88 522 88 576 c 0
 88 594 104 609 127 609 c 0
 149 609 161 595 161 579 c 0
 161 576 161 574 160 571 c 0
 159 568 159 565 159 563 c 0
 159 541 179 520 209 520 c 0
 238 520 259 540 259 562 c 0
 259 565 259 568 258 571 c 0
 257 573 257 575 257 578 c 0
 257 595 274 609 292 609 c 0
 316 609 330 596 330 577 c 0
292 223 m 1
 212 202 l 2
 138.1 182.6 123 147 123 102 c 0
 123 71 147 41 189 41 c 0
 217 41 249 63 275 84 c 0
 283 90 289 97 289 110 c 2
 292 223 l 1
368 76 m 0
 368 56 373 45 384 45 c 0
 398 45 411 59 420 66 c 1
 423 64 l 1
 439 43 l 1
 408 3 382 -10 351 -10 c 0
 304 -10 293 32 291 48 c 1
 289 48 l 1
 239 3 212 -10 160 -10 c 0
 90 -10 42 24 42 98 c 0
 42 166 103 220 199 243 c 2
 287 264 l 2
 290 265 293 269 293 276 c 0
 293 389 237 394 203 394 c 0
 158 394 116 350 90 305 c 1
 77 306 l 1
 61 373 l 1
 64 377 l 1
 88 398 140 439 212 439 c 0
 284 439 372 412 372 277 c 0
 372 266 368 105 368 76 c 0
EndSplineSet
LCarets2: 1 0 
Colour: ff00ff
EndChar

StartChar: uni04D2
Encoding: 1234 1234 108
Width: 633
VWidth: 999
Flags: HW
HStem: -3 21<24 68.5 92 115.444 500.087 513.5 590 606.5> 230 44<188.935 310> 638 20<265 387> 712 92<210.347 287.653 370.347 447.653>
VStem: 203 92<719.347 796.653> 363 92<719.347 796.653>
LayerCount: 2
Fore
SplineSet
203 758 m 0
 203 783 224 804 249 804 c 0
 274 804 295 783 295 758 c 0
 295 733 274 712 249 712 c 0
 224 712 203 733 203 758 c 0
363 758 m 0
 363 783 384 804 409 804 c 0
 434 804 455 783 455 758 c 0
 455 733 434 712 409 712 c 0
 384 712 363 733 363 758 c 0
181 228.3 m 1
 145.3 140.8 114.4 58.3 98 -3 c 1
 86 0 64 0 53 0 c 0
 42 0 30 0 18 -3 c 1
 119 218 217 436 313 658 c 1
 341 658 l 1
 433 439 565 98 615 -3 c 1
 598 0 572 0 555 0 c 0
 538 0 522 0 505 -3 c 1
 498.9 19.2 476.3 97.2 427.3 228.3 c 1
 389.6 229.2 348 230 310 230 c 0
 275.5 230 219 229.2 181 228.3 c 1
409.3 275.5 m 1
 382.4 345.2 349.1 427.4 308 521.8 c 1
 306 521.8 l 1
 200.6 275.9 l 1
 232.3 275.5 276.1 274 305 274 c 0
 334.7 274 376.4 274.7 409.3 275.5 c 1
EndSplineSet
LCarets2: 1 0 
Colour: ff00ff
EndChar

StartChar: uni04D3
Encoding: 1235 1235 109
Width: 461
VWidth: 999
Flags: HW
HStem: -10 51<138.029 242.029 327.75 409.627> 394 45<147.355 264.803> 527 92<94.3474 171.653 254.347 331.653>
VStem: 42 81<56.8026 162.817> 87 92<534.347 611.653> 247 92<534.347 611.653> 293 79.1<81.0426 223 264.049 363.451>
DStem2: 199 243 212 202 0.972687 0.232119<-72.5363 85.8176>
LayerCount: 2
Fore
SplineSet
87 573 m 0
 87 598 108 619 133 619 c 0
 158 619 179 598 179 573 c 0
 179 548 158 527 133 527 c 0
 108 527 87 548 87 573 c 0
247 573 m 0
 247 598 268 619 293 619 c 0
 318 619 339 598 339 573 c 0
 339 548 318 527 293 527 c 0
 268 527 247 548 247 573 c 0
292 223 m 1
 212 202 l 2
 138.1 182.6 123 147 123 102 c 0
 123 71 147 41 189 41 c 0
 217 41 249 63 275 84 c 0
 283 90 289 97 289 110 c 2
 292 223 l 1
368 76 m 0
 368 56 373 45 384 45 c 0
 398 45 411 59 420 66 c 1
 423 64 l 1
 439 43 l 1
 408 3 382 -10 351 -10 c 0
 304 -10 293 32 291 48 c 1
 289 48 l 1
 239 3 212 -10 160 -10 c 0
 90 -10 42 24 42 98 c 0
 42 166 103 220 199 243 c 2
 287 264 l 2
 290 265 293 269 293 276 c 0
 293 389 237 394 203 394 c 0
 158 394 116 350 90 305 c 1
 77 306 l 1
 61 373 l 1
 64 377 l 1
 88 398 140 439 212 439 c 0
 284 439 372 412 372 277 c 0
 372 266 368 105 368 76 c 0
EndSplineSet
LCarets2: 1 0 
Colour: ff00ff
EndChar

StartChar: uni04D4
Encoding: 1236 1236 110
Width: 802
VWidth: 999
Flags: HW
HStem: -2 29<4 35 167 201 342 374> 0 39<514.23 740.226> 266 39<271 429> 329 34<512 654.005> 605 40<517.062 711.984> 618 28<296 333>
VStem: 429 83<40.8651 266 305 329 363 597.745> 671 33<247 312.081 407 445>
DStem2: 102.87 85 148 68 0.46188 0.886943<-25.6807 228.955 272.783 581.116>
LayerCount: 2
Fore
SplineSet
222 278.5 m 1
 170.6 171.8 125.5 69.1 98 -3 c 1
 86 0 64 0 53 0 c 0
 42 0 30 0 18 -3 c 1
 124 200 221 410 366 645.7 c 1
 366.2 645.3 l 1
 368 648 l 1
 368 648 385 645 419 645 c 0
 449 645 632 645 632 645 c 2
 653 645 676 646 692 648 c 1
 694 645 l 1
 693 631 692 622 692 614 c 0
 692 605 693 596 694 588 c 1
 692 584 l 1
 692 584 614.7 594.3 509 594.3 c 0
 433.5 594.3 419.2 585.3 424.4 545.5 c 1
 438.6 475.1 454.6 402.4 470.7 333 c 1
 582.8 333.2 637.5 338.1 695 343 c 1
 698 340 l 1
 696 331 695 321 695 312 c 0
 695 303 696 293 698 284 c 1
 695 281 l 1
 633.7 287.2 535.4 290.3 480.5 290.9 c 1
 502 199.9 523 116.9 539.5 55.8 c 1
 639.3 59.2 752 66 752 66 c 2
 754 62 l 1
 753 54 752 39 752 29 c 0
 752 19 753 14 754 0 c 1
 752 -3 l 1
 736 -1 713 0 692 0 c 2
 555 0 l 1
 553.5 0 l 1
 500 0 l 2
 483 0 467 0 450 -3 c 1
 450 32.7 436.6 117.3 405.9 279.4 c 1
 383.7 279.8 361.3 280 340 280 c 0
 308.7 280 259.3 279.3 222 278.5 c 1
397.2 324.7 m 1
 356.5 533.5 l 1
 354.5 533.5 l 1
 318.2 469.5 280.5 397.6 245 325.7 c 1
 274.6 325.1 310.2 324 335 324 c 0
 352.9 324 375.1 324.3 397.2 324.7 c 1
EndSplineSet
Colour: ff00ff
EndChar

StartChar: uni04D5
Encoding: 1237 1237 111
Width: 687
VWidth: 999
Flags: HW
HStem: -10 42<134.122 258.283> -10 49<441.951 572.545> 215 35<204.499 298 372 496.805> 409 30<145.729 252.328 445.807 530.397>
VStem: 39 72<54.272 157.224> 50 73<295.734 386.882> 298 73<118.361 215 253 332.285> 572 76<289.995 379.656>
LayerCount: 2
Fore
SplineSet
296 215 m 1
 163 203 121 157 121 106 c 0
 121 61 145 40 192 40 c 0
 228 40 271 61 285 100 c 0
 291.4 117.9 296 165 296 215 c 1
375 258 m 1
 515 266 562 245 562 306 c 0
 562 338 537 394 489 394 c 0
 426 394 383 343 375 258 c 1
202 394 m 0
 157.5 394 115 350 89 305 c 1
 76 306 l 1
 60 373 l 1
 63 377 l 1
 87.5 397.5 138.5 439 211 439 c 0
 235 439 311 436 348 369 c 1
 381 414 433 439 490 439 c 0
 604 439 646 343 646 309 c 0
 646 278.1 640 254 620 237 c 1
 584.3 217.3 509.5 225.4 374 218 c 1
 374 112 423 44 498 44 c 0
 552 44 591 77 621 112 c 1
 641 84 l 1
 612 30 550 -10 484 -10 c 0
 393 -10 360 34 340 59 c 1
 294 15 245 -10 190 -10 c 0
 85 -10 39 33 39 101 c 0
 39 184 126 243 296 255 c 1
 294.8 348.6 274.8 394 202 394 c 0
EndSplineSet
Colour: ff00ff
EndChar

StartChar: uni04D6
Encoding: 1238 1238 112
Width: 522
VWidth: 999
Flags: HW
HStem: 0 54<186.656 409.594> 321 42<182 388.188> 596 49<186.656 403.188> 698 31<228.531 319.312>
VStem: 96 86<55.2087 321 363 594.385> 149 70<736.681 803.162> 328 70<735.774 803.125>
LayerCount: 2
Fore
SplineSet
274 729 m 0
 307 729 330 746 330 763 c 0
 330 768 329 774 329 776 c 0
 329 791 339 806 362 806 c 0
 389 806 399 792 399 773 c 0
 399 721 340 698 274 698 c 0
 208 698 149 721 149 773 c 0
 149 792 159 806 186 806 c 0
 209 806 219 791 219 776 c 0
 219 774 218 768 218 763 c 0
 218 746 241 729 274 729 c 0
182 200 m 2
 182 183 183 78 190 54 c 1
 324 54 472 66 472 66 c 1
 474 62 l 1
 473 54 472 39 472 29 c 0
 472 19 473 14 474 0 c 1
 472 -3 l 1
 456 -1 433 0 412 0 c 2
 139 0 l 2
 104 0 87 -3 87 -3 c 1
 86 0 l 1
 94 54 96 125 96 200 c 2
 96 445 l 2
 96 520 94 588 86 645 c 1
 88 648 l 1
 88 648 105 645 139 645 c 0
 169 645 402 645 402 645 c 2
 423 645 446 646 462 648 c 1
 464 645 l 1
 463 631 462 622 462 614 c 0
 462 605 463 596 464 588 c 1
 462 584 l 1
 462 584 324 596 190 596 c 1
 183 572 182 462 182 445 c 2
 182 363 l 1
 300 363 346 368 405 373 c 1
 408 370 l 1
 406 361 405 351 405 342 c 0
 405 333 406 323 408 314 c 1
 405 311 l 1
 336 318 230 321 182 321 c 1
 182 200 l 2
EndSplineSet
LCarets2: 1 0 
Colour: ff00ff
EndChar

StartChar: uni04D7
Encoding: 1239 1239 113
Width: 442
VWidth: 999
Flags: HW
HStem: -10 59<197.345 335.48> 243 44<125 319.997> 399 40<175.584 290.389> 489 31<186.971 261.548>
VStem: 34 88<132.133 243> 103 73<526.553 605.612> 272 73<526.548 606.379> 320 89<254.5 358.106>
LayerCount: 2
Fore
SplineSet
345 577 m 0
 345 522 287 489 223 489 c 0
 158 489 103 522 103 576 c 0
 103 594 119 609 142 609 c 0
 164 609 176 595 176 579 c 0
 176 576 176 574 175 571 c 0
 174 568 174 565 174 563 c 0
 174 541 194 520 224 520 c 0
 253 520 274 540 274 562 c 0
 274 565 274 568 273 571 c 0
 272 573 272 575 272 578 c 0
 272 595 289 609 307 609 c 0
 331 609 345 596 345 577 c 0
125 287 m 1
 306 287 l 2
 316 287 320 292 320 301 c 0
 320 376 275 399 239 399 c 0
 216 399 142 391 125 287 c 1
396 105 m 1
 416 79 l 1
 378 27 317 -10 245 -10 c 0
 108 -10 34 84 34 199 c 0
 34 351 144 439 239 439 c 0
 371 439 409 344 409 260 c 0
 409 249 402 243 391 243 c 2
 122 243 l 1
 122 94 209 49 265 49 c 0
 320 49 361 67 396 105 c 1
EndSplineSet
LCarets2: 1 0 
Colour: ff00ff
EndChar

StartChar: uni04D8
Encoding: 1240 1240 114
Width: 644
VWidth: 999
Flags: HW
HStem: -12 34<246.269 393.278> 216 44<122 511> 624 34<207.892 368.818>
VStem: 521 90<221.919 443.038>
LayerCount: 2
Fore
SplineSet
97 523 m 1
 74 547 l 1
 153 621 200 658 310 658 c 0
 525 658 611 485 611 326 c 0
 611 131 509 -12 316 -12 c 0
 124 -12 53 118 42 260 c 1
 520 260 l 1
 521 271 521 283 521 297 c 0
 521 483 429 624 294 624 c 0
 201 624 150 575 97 523 c 1
122 216 m 1
 153 86 225 22 323 22 c 0
 429 22 493 116 511 216 c 1
 122 216 l 1
EndSplineSet
Colour: ff00ff
EndChar

StartChar: afii10846
Encoding: 1241 1241 115
Width: 442
VWidth: 999
Flags: HW
HStem: -11 40<137.611 252.416> 141 44<108.003 303> 379 59<92.52 230.655>
VStem: 19 89<69.8942 173.5> 306 88<185 295.867>
LayerCount: 2
Fore
SplineSet
303 141 m 1
 122 141 l 2
 112 141 108 136 108 127 c 0
 108 52 153 29 189 29 c 0
 212 29 286 37 303 141 c 1
32 323 m 1
 12 349 l 1
 50 401 111 438 183 438 c 0
 320 438 394 344 394 229 c 0
 394 77 284 -11 189 -11 c 0
 57 -11 19 84 19 168 c 0
 19 179 26 185 37 185 c 2
 306 185 l 1
 306 334 219 379 163 379 c 0
 108 379 67 361 32 323 c 1
EndSplineSet
Colour: ff00ff
EndChar

StartChar: uni04DA
Encoding: 1242 1242 116
Width: 644
VWidth: 999
Flags: HW
HStem: -12 34<246.269 393.278> 216 44<122 511> 624 34<207.892 368.818> 706 90<192.481 269.519 382.301 458.653>
VStem: 186 90<712.481 789.519> 375 91<713.347 789.699> 521 90<221.919 443.038>
LayerCount: 2
Fore
SplineSet
372 752 m 0
 372 778 394 800 420 800 c 0
 446 800 468 778 468 752 c 0
 468 726 446 704 420 704 c 0
 394 704 372 726 372 752 c 0
183 752 m 0
 183 778 205 800 231 800 c 0
 257 800 279 778 279 752 c 0
 279 726 257 704 231 704 c 0
 205 704 183 726 183 752 c 0
97 523 m 1
 74 547 l 1
 153 621 200 658 310 658 c 0
 525 658 611 485 611 326 c 0
 611 131 509 -12 316 -12 c 0
 124 -12 53 118 42 260 c 1
 520 260 l 1
 521 271 521 283 521 297 c 0
 521 483 429 624 294 624 c 0
 201 624 150 575 97 523 c 1
122 216 m 1
 153 86 225 22 323 22 c 0
 429 22 493 116 511 216 c 1
 122 216 l 1
EndSplineSet
LCarets2: 1 0 
Colour: ff00ff
EndChar

StartChar: uni04DB
Encoding: 1243 1243 117
Width: 442
VWidth: 999
Flags: HW
HStem: -11 40<137.611 252.416> 141 44<108.003 303> 379 59<92.52 230.655> 527 92<94.3474 171.653 254.347 331.653>
VStem: 19 89<69.8942 173.5> 87 92<534.347 611.653> 247 92<534.347 611.653> 306 88<185 295.867>
LayerCount: 2
Fore
SplineSet
87 573 m 0
 87 598 108 619 133 619 c 0
 158 619 179 598 179 573 c 0
 179 548 158 527 133 527 c 0
 108 527 87 548 87 573 c 0
247 573 m 0
 247 598 268 619 293 619 c 0
 318 619 339 598 339 573 c 0
 339 548 318 527 293 527 c 0
 268 527 247 548 247 573 c 0
303 141 m 1
 122 141 l 2
 112 141 108 136 108 127 c 0
 108 52 153 29 189 29 c 0
 212 29 286 37 303 141 c 1
32 323 m 1
 12 349 l 1
 50 401 111 438 183 438 c 0
 320 438 394 344 394 229 c 0
 394 77 284 -11 189 -11 c 0
 57 -11 19 84 19 168 c 0
 19 179 26 185 37 185 c 2
 306 185 l 1
 306 334 219 379 163 379 c 0
 108 379 67 361 32 323 c 1
EndSplineSet
LCarets2: 1 0 
Colour: ff00ff
EndChar

StartChar: uni04E0
Encoding: 1248 1248 118
Width: 608
VWidth: 999
Flags: HW
HStem: -211 37<215 357> 605 39<141 167 167 446>
VStem: 475 89<-42 146>
DStem2: 250 252 367 288 0.48636 0.873758<88.8042 404.592>
LayerCount: 2
Fore
SplineSet
167 645 m 2
 522 645 l 2
 543 645 550 639 550 631 c 0
 550 621 544 605 535 590 c 2
 367 288 l 1
 501 261 564 162 564 51 c 0
 564 -88 432 -211 272 -211 c 0
 192 -211 42 -176 42 -110 c 0
 42 -87 52 -60 86 -60 c 0
 113 -60 141 -74 154 -95 c 0
 186 -144 236 -174 291 -174 c 0
 378 -174 475 -53 475 42 c 0
 475 201 360 255 291 255 c 0
 275 255 264 255 250 252 c 1
 446 605 l 1
 197 605 l 1
 123 604 94 521 90 477 c 1
 64 479 l 1
 85 667 l 1
 108 662 143 645 167 645 c 2
EndSplineSet
Colour: ff00ff
EndChar

StartChar: uni04E1
Encoding: 1249 1249 119
Width: 416
VWidth: 999
Flags: HW
HStem: -235 35<149 244> 103 34<216 268> 395 34<107 295>
VStem: 40 27<303 337> 312 81<-120 61>
DStem2: 127 107 216 137 0.505072 0.863077<70.4402 332.658>
LayerCount: 2
Fore
SplineSet
127 107 m 1
 295 395 l 1
 150 395 l 2
 120 395 86 374 66 301 c 1
 40 304 l 1
 48 353 54 397 55 442 c 1
 80 442 l 1
 82 436 91 429 106 429 c 2
 309 429 l 2
 338 429 374 435 376 435 c 0
 383 435 389 433 389 429 c 0
 389 425 383 414 367 387 c 2
 216 137 l 1
 312 137 393 84 393 -22 c 0
 393 -141 308 -235 185 -235 c 0
 100 -235 42 -174 42 -142 c 0
 42 -124 52 -106 74 -106 c 0
 97 -106 110 -116 118 -140 c 0
 126 -162 153 -200 193 -200 c 0
 243 -200 312 -146 312 -38 c 0
 312 63 281 103 203 103 c 0
 192 103 162 96 144 92 c 1
 127 107 l 1
EndSplineSet
Colour: ff00ff
EndChar

StartChar: uni04E6
Encoding: 1254 1254 120
Width: 721
VWidth: 999
Flags: HW
HStem: -10 44<287.518 460.882> 614 44<261.342 446.336> 706 90<218.481 295.519 408.301 484.653>
VStem: 42 103<199.871 439.073> 212 90<712.481 789.519> 401 91<713.347 789.699> 576 103<198.639 454.348>
LayerCount: 2
Fore
SplineSet
398 752 m 0
 398 778 420 800 446 800 c 0
 472 800 494 778 494 752 c 0
 494 726 472 704 446 704 c 0
 420 704 398 726 398 752 c 0
209 752 m 0
 209 778 231 800 257 800 c 0
 283 800 305 778 305 752 c 0
 305 726 283 704 257 704 c 0
 231 704 209 726 209 752 c 0
345 614 m 0
 249 614 145 537 145 327 c 0
 145 135 259 34 379 34 c 0
 493 34 576 131 576 310 c 0
 576 518 486 614 345 614 c 0
679 329 m 0
 679 129 550 -10 359 -10 c 0
 187 -10 42 113 42 310 c 0
 42 506 179 658 358 658 c 0
 538 658 679 527 679 329 c 0
EndSplineSet
LCarets2: 1 0 
Colour: ff00ff
EndChar

StartChar: uni04E7
Encoding: 1255 1255 121
Width: 510
VWidth: 999
Flags: HW
HStem: -10 41<204.375 329.082> 398 41<186.898 318.163> 528 92<135.347 212.653 295.347 372.653>
VStem: 36 90<124.397 311.463> 128 92<535.347 612.653> 288 92<535.347 612.653> 384 90<116.419 317.676>
LayerCount: 2
Fore
SplineSet
36 205 m 0
 36 342 126 439 257 439 c 0
 414 439 474 318 474 214 c 0
 474 107 398 -10 255 -10 c 0
 117 -10 36 95 36 205 c 0
250 398 m 0
 164 398 126 315 126 228 c 0
 126 151 165 31 269 31 c 0
 314 31 384 63 384 187 c 0
 384 334 335 398 250 398 c 0
128 574 m 0
 128 599 149 620 174 620 c 0
 199 620 220 599 220 574 c 0
 220 549 199 528 174 528 c 0
 149 528 128 549 128 574 c 0
288 574 m 0
 288 599 309 620 334 620 c 0
 359 620 380 599 380 574 c 0
 380 549 359 528 334 528 c 0
 309 528 288 549 288 574 c 0
EndSplineSet
LCarets2: 1 0 
Colour: ff00ff
EndChar

StartChar: uni04E8
Encoding: 1256 1256 122
Width: 721
VWidth: 999
Flags: HW
HStem: -10 44<287.518 460.882> 266 57<387.324 534.392> 312 58<177.336 340.102> 614 44<261.342 446.336>
VStem: 42 103<199.871 439.073> 576 103<198.639 454.348>
LayerCount: 2
Fore
SplineSet
679 329 m 0
 679 129 550 -10 359 -10 c 0
 187 -10 42 113 42 310 c 0
 42 506 179 658 358 658 c 0
 538 658 679 527 679 329 c 0
576 316.3 m 1
 534 277.6 483.9 266 446 266 c 0
 354 266 330 312 255 312 c 0
 228.1 312 180.9 307.7 146.5 289.2 c 1
 160.4 121.7 267.1 34 379 34 c 0
 493 34 576 131 576 310 c 0
 576 312.1 576 314.2 576 316.3 c 1
574.2 358.6 m 1
 561 533 474.5 614 345 614 c 0
 249.7 614 146.6 538.2 145 331.8 c 1
 184 357.9 238.8 370 273 370 c 0
 371 370 401 323 464 323 c 0
 495.6 323 541.7 335.4 574.2 358.6 c 1
EndSplineSet
Colour: ff00ff
EndChar

StartChar: uni04E9
Encoding: 1257 1257 123
Width: 510
VWidth: 999
Flags: HMW
HStem: -12 36<202 328> 179 49<204 349> 207 42<118 238> 409 33<183 304>
VStem: 44 79<124 320> 377 79<113 318>
AnchorPoint: "unten_punkt" 246 -107 basechar 0
AnchorPoint: "top_punkt" 245 550 basechar 0
AnchorPoint: "top_akzent" 236 645 basechar 0
LayerCount: 2
Fore
SplineSet
380 219 m 1
 361 206 315 179 274 179 c 0
 231 179 197 207 162 207 c 0
 154.4 207 139.3 204.2 127.4 202.1 c 1
 135.1 126.8 176.1 31 269 31 c 0
 314 31 384 63 384 187 c 0
 384 334 335 398 250 398 c 0
 164.8 398 126.7 316.6 126 230.5 c 1
 149.1 240.5 185.7 249 213 249 c 0
 258 249 280 229 318 229 c 0
 340 229 362 237 377 244 c 1
 380 219 l 1
36 205 m 0
 36 342 126 439 257 439 c 0
 414 439 474 318 474 214 c 0
 474 107 398 -10 255 -10 c 0
 117 -10 36 95 36 205 c 0
EndSplineSet
Colour: ff80cc
EndChar

StartChar: uni04EA
Encoding: 1258 1258 124
Width: 721
VWidth: 999
Flags: HW
HStem: -10 44<287.518 460.882> 266 57<387.324 534.392> 312 58<177.336 340.102> 614 44<261.342 446.336> 708 90<215.481 292.519 405.301 481.653>
VStem: 42 103<199.871 439.073> 209 90<714.481 791.519> 398 91<715.347 791.699> 576 103<198.639 454.348>
LayerCount: 2
Fore
SplineSet
395 754 m 0
 395 780 417 802 443 802 c 0
 469 802 491 780 491 754 c 0
 491 728 469 706 443 706 c 0
 417 706 395 728 395 754 c 0
206 754 m 0
 206 780 228 802 254 802 c 0
 280 802 302 780 302 754 c 0
 302 728 280 706 254 706 c 0
 228 706 206 728 206 754 c 0
679 329 m 0
 679 129 550 -10 359 -10 c 0
 187 -10 42 113 42 310 c 0
 42 506 179 658 358 658 c 0
 538 658 679 527 679 329 c 0
576 316.3 m 1
 534 277.6 483.9 266 446 266 c 0
 354 266 330 312 255 312 c 0
 228.1 312 180.9 307.7 146.5 289.2 c 1
 160.4 121.7 267.1 34 379 34 c 0
 493 34 576 131 576 310 c 0
 576 312.1 576 314.2 576 316.3 c 1
574.2 358.6 m 1
 561 533 474.5 614 345 614 c 0
 249.7 614 146.6 538.2 145 331.8 c 1
 184 357.9 238.8 370 273 370 c 0
 371 370 401 323 464 323 c 0
 495.6 323 541.7 335.4 574.2 358.6 c 1
EndSplineSet
LCarets2: 1 0 
Colour: ff00ff
EndChar

StartChar: uni04EB
Encoding: 1259 1259 125
Width: 510
VWidth: 999
Flags: HW
HStem: -12 36<202 328> 179 49<204 349> 207 42<118 238> 409 33<183 304> 527 92<137.347 214.653 297.347 374.653>
VStem: 44 79<124 320> 130 92<534.347 611.653> 290 92<534.347 611.653> 377 79<113 318>
LayerCount: 2
Fore
SplineSet
380 219 m 1
 361 206 315 179 274 179 c 0
 231 179 197 207 162 207 c 0
 154.4 207 139.3 204.2 127.4 202.1 c 1
 135.1 126.8 176.1 31 269 31 c 0
 314 31 384 63 384 187 c 0
 384 334 335 398 250 398 c 0
 164.8 398 126.7 316.6 126 230.5 c 1
 149.1 240.5 185.7 249 213 249 c 0
 258 249 280 229 318 229 c 0
 340 229 362 237 377 244 c 1
 380 219 l 1
36 205 m 0
 36 342 126 439 257 439 c 0
 414 439 474 318 474 214 c 0
 474 107 398 -10 255 -10 c 0
 117 -10 36 95 36 205 c 0
130 573 m 0
 130 598 151 619 176 619 c 0
 201 619 222 598 222 573 c 0
 222 548 201 527 176 527 c 0
 151 527 130 548 130 573 c 0
290 573 m 0
 290 598 311 619 336 619 c 0
 361 619 382 598 382 573 c 0
 382 548 361 527 336 527 c 0
 311 527 290 548 290 573 c 0
EndSplineSet
LCarets2: 1 0 
Colour: ff00ff
EndChar

StartChar: uni04EF
Encoding: 1263 1263 126
Width: 486
VWidth: 999
Flags: HW
HStem: 412 20<25 37.8974 112.5 137.704 367.982 391 451.5 463> 538 44<111.088 389.515>
VStem: 18 101<384.934 432> 89 84<-246 -210.595> 110 281<538.205 582>
LayerCount: 2
Fore
SplineSet
18 432 m 1
 32 429 57 429 70 429 c 0
 84 429 106 429 119 432 c 1
 156.4 317.8 203.5 206.5 252.7 87.6 c 1
 254.7 87.6 l 1
 303.3 191.2 350 319 386 432 c 1
 396 429 415 429 425 429 c 0
 435 429 458 429 468 432 c 1
 435 365 216 -112 178 -237 c 1
 168 -234 139 -232 129 -232 c 0
 119 -232 104 -234 94 -237 c 1
 139.2 -161.7 173.8 -93.8 205.8 -19.1 c 1
 170.4 76 57.8 343.2 18 432 c 1
367 538 m 2
 123 538 l 2
 114 538 110 546 110 553 c 0
 110 565 121 582 132 582 c 2
 377 582 l 2
 387 582 391 574 391 568 c 0
 391 556 380 538 367 538 c 2
EndSplineSet
LCarets2: 1 0 
Colour: ff00ff
EndChar

StartChar: uni04F1
Encoding: 1265 1265 127
Width: 486
VWidth: 999
Flags: HW
HStem: 412 20<25 37.8974 112.5 137.704 367.982 391 451.5 463> 527 92<142.347 219.653 302.347 379.653>
VStem: 18 101<384.934 432> 89 84<-246 -210.595> 135 92<534.347 611.653> 295 92<534.347 611.653>
LayerCount: 2
Fore
SplineSet
18 432 m 1
 32 429 57 429 70 429 c 0
 84 429 106 429 119 432 c 1
 156.4 317.8 203.5 206.5 252.7 87.6 c 1
 254.7 87.6 l 1
 303.3 191.2 350 319 386 432 c 1
 396 429 415 429 425 429 c 0
 435 429 458 429 468 432 c 1
 435 365 216 -112 178 -237 c 1
 168 -234 139 -232 129 -232 c 0
 119 -232 104 -234 94 -237 c 1
 139.2 -161.7 173.8 -93.8 205.8 -19.1 c 1
 170.4 76 57.8 343.2 18 432 c 1
135 573 m 0
 135 598 156 619 181 619 c 0
 206 619 227 598 227 573 c 0
 227 548 206 527 181 527 c 0
 156 527 135 548 135 573 c 0
295 573 m 0
 295 598 316 619 341 619 c 0
 366 619 387 598 387 573 c 0
 387 548 366 527 341 527 c 0
 316 527 295 548 295 573 c 0
EndSplineSet
LCarets2: 1 0 
Colour: ff00ff
EndChar

StartChar: uni04F3
Encoding: 1267 1267 128
Width: 486
VWidth: 999
Flags: HW
HStem: 412 20<25 37.8974 112.5 137.704 367.982 391 451.5 463>
VStem: 18 101<384.934 432> 89 84<-246 -210.595>
LayerCount: 2
Fore
SplineSet
18 432 m 1
 32 429 57 429 70 429 c 0
 84 429 106 429 119 432 c 1
 156.4 317.8 203.5 206.5 252.7 87.6 c 1
 254.7 87.6 l 1
 303.3 191.2 350 319 386 432 c 1
 396 429 415 429 425 429 c 0
 435 429 458 429 468 432 c 1
 435 365 216 -112 178 -237 c 1
 168 -234 139 -232 129 -232 c 0
 119 -232 104 -234 94 -237 c 1
 139.2 -161.7 173.8 -93.8 205.8 -19.1 c 1
 170.4 76 57.8 343.2 18 432 c 1
444 615 m 0
 444 609 443 602 437 596 c 2
 323 486 l 2
 321 484 319 484 317 484 c 0
 312 484 303 489 303 497 c 0
 303 498 303 500 304 501 c 2
 382 640 l 2
 387 649 394 652 406 652 c 0
 427 652 444 633.6 444 615 c 0
312 621 m 0
 312 616 311 610 307 605 c 2
 205 484 l 2
 203 482 200 481 197 481 c 0
 191 481 183 486 183 494 c 0
 183 495 183 496 184 497 c 2
 248 643 l 2
 254 656 270 657 274 657 c 0
 294.9 657 312 641.5 312 621 c 0
EndSplineSet
LCarets2: 1 0 
Colour: ff00ff
EndChar

StartChar: uni1E00
Encoding: 7680 7680 129
Width: 633
VWidth: 999
Flags: HW
HStem: -215 27<274.238 341.262> -76 27<273.737 342.086> -3 21<24 68.5 92 115.444 500.087 513.5 590 606.5> 230 44<188.935 310> 638 20<265 387>
VStem: 222 32<-170.178 -92.558> 362 31<-169.958 -93.519>
LayerCount: 2
Fore
SplineSet
308 -76 m 0
 277 -76 258 -102 258 -132 c 0
 258 -160 277 -188 308 -188 c 0
 339 -188 358 -160 358 -132 c 0
 358 -101 338 -76 308 -76 c 0
221 -132 m 0
 221 -86 262 -49 308 -49 c 0
 354 -49 395 -85 395 -132 c 0
 395 -177 356 -215 308 -215 c 0
 262 -215 221 -178 221 -132 c 0
181 228.3 m 1
 145.3 140.8 114.4 58.3 98 -3 c 1
 86 0 64 0 53 0 c 0
 42 0 30 0 18 -3 c 1
 119 218 217 436 313 658 c 1
 341 658 l 1
 433 439 565 98 615 -3 c 1
 598 0 572 0 555 0 c 0
 538 0 522 0 505 -3 c 1
 498.9 19.2 476.3 97.2 427.3 228.3 c 1
 389.6 229.2 348 230 310 230 c 0
 275.5 230 219 229.2 181 228.3 c 1
409.3 275.5 m 1
 382.4 345.2 349.1 427.4 308 521.8 c 1
 306 521.8 l 1
 200.6 275.9 l 1
 232.3 275.5 276.1 274 305 274 c 0
 334.7 274 376.4 274.7 409.3 275.5 c 1
EndSplineSet
LCarets2: 1 0 
Colour: ff00ff
EndChar

StartChar: uni1E01
Encoding: 7681 7681 130
Width: 461
VWidth: 999
Flags: HW
HStem: -216 27<190.238 257.262> -77 27<189.737 258.086> -10 51<138.029 242.029 327.75 409.627> 394 45<147.355 264.803>
VStem: 42 81<56.8026 162.817> 138 32<-171.178 -93.558> 278 31<-170.958 -94.519> 293 79.1<81.0426 223 264.049 363.451>
DStem2: 199 243 212 202 0.972687 0.232119<-72.5363 85.8176>
LayerCount: 2
Fore
SplineSet
224 -77 m 0
 193 -77 174 -103 174 -133 c 0
 174 -161 193 -189 224 -189 c 0
 255 -189 274 -161 274 -133 c 0
 274 -102 254 -77 224 -77 c 0
137 -133 m 0
 137 -87 178 -50 224 -50 c 0
 270 -50 311 -86 311 -133 c 0
 311 -178 272 -216 224 -216 c 0
 178 -216 137 -179 137 -133 c 0
292 223 m 1
 212 202 l 2
 138.1 182.6 123 147 123 102 c 0
 123 71 147 41 189 41 c 0
 217 41 249 63 275 84 c 0
 283 90 289 97 289 110 c 2
 292 223 l 1
368 76 m 0
 368 56 373 45 384 45 c 0
 398 45 411 59 420 66 c 1
 423 64 l 1
 439 43 l 1
 408 3 382 -10 351 -10 c 0
 304 -10 293 32 291 48 c 1
 289 48 l 1
 239 3 212 -10 160 -10 c 0
 90 -10 42 24 42 98 c 0
 42 166 103 220 199 243 c 2
 287 264 l 2
 290 265 293 269 293 276 c 0
 293 389 237 394 203 394 c 0
 158 394 116 350 90 305 c 1
 77 306 l 1
 61 373 l 1
 64 377 l 1
 88 398 140 439 212 439 c 0
 284 439 372 412 372 277 c 0
 372 266 368 105 368 76 c 0
EndSplineSet
LCarets2: 1 0 
Colour: ff00ff
EndChar

StartChar: uni1E02
Encoding: 7682 7682 131
Width: 582
VWidth: 999
Flags: HW
HStem: -3 44<171.13 393.675> 327 44<189 355.197> 604 44<169.378 351.471> 689 104<241.248 324.458>
VStem: 103 86<49.3073 327 371 597.325> 231 104<699.542 782.752> 395 87<424.724 562.128> 442 99<97.3818 255.662>
LayerCount: 2
Fore
SplineSet
232 741 m 0
 232 768 256 792 283 792 c 0
 310 792 334 768 334 741 c 0
 334 714 310 690 283 690 c 0
 256 690 232 714 232 741 c 0
189 559 m 2
 189 371 l 1
 261 371 l 2
 344 371 395 396 395 481 c 0
 395 583 330 604 274 604 c 0
 193 604 189 592.3 189 559 c 2
189 327 m 1
 189 88 l 2
 189 55 200 41 270 41 c 0
 422 41 442 92 442 165 c 0
 442 255 393 327 276 327 c 2
 189 327 l 1
146 645 m 0
 193.2 645 232 648 267 648 c 0
 453 648 482 560 482 493 c 0
 482 438 440 385 389 360 c 1
 476 335 541 280 541 184 c 0
 541 98 488 -3 289 -3 c 0
 200 -3 201.8 0 146 0 c 0
 111 0 94 -3 94 -3 c 1
 93 0 l 1
 101 54 103 125 103 200 c 2
 103 445 l 2
 103 520 101 588 93 645 c 1
 95 648 l 1
 95 648 112 645 146 645 c 0
EndSplineSet
LCarets2: 1 0 
Colour: ff00ff
EndChar

StartChar: uni1E03
Encoding: 7683 7683 132
Width: 497
VWidth: 999
Flags: HW
HStem: -10 44<179.548 305.024> 385 54<196.637 317.65> 519 104<223.248 306.458> 678 20<143.465 159.167>
VStem: 75 80<58.0308 360.44 384 667.981> 213 104<529.542 612.752> 375 85<134.529 320.197>
LayerCount: 2
Fore
SplineSet
214 571 m 0
 214 598 238 622 265 622 c 0
 292 622 316 598 316 571 c 0
 316 544 292 520 265 520 c 0
 238 520 214 544 214 571 c 0
155 81 m 1
 175 56 199 34 230 34 c 0
 325 34 375 110 375 224 c 0
 375 321 321 385 260 385 c 0
 249 385 194 383 155 343 c 1
 155 81 l 1
155 500 m 2
 155 384 l 1
 189 421 232 439 280 439 c 0
 367 439 460 364 460 242 c 0
 460 83 338 -10 236 -10 c 0
 193 -10 163 2 134 27 c 1
 119.5 14 110 2 101 -12 c 1
 91.5 -12 76 -10.8 70 -7 c 1
 74.2 14.8 75 32 75 71 c 2
 75 482 l 2
 75 558 72.7 627.3 65 670 c 1
 67 673 l 1
 107.5 676 130.9 688 156 698 c 1
 162.3 698 165 695 165 688 c 0
 157.3 626.7 155 574 155 500 c 2
EndSplineSet
LCarets2: 1 0 
Colour: ff00ff
EndChar

StartChar: uni1E04
Encoding: 7684 7684 133
Width: 582
VWidth: 999
Flags: HW
HStem: -167 104<228.248 311.458> -3 44<171.13 393.675> 327 44<189 355.197> 604 44<169.378 351.471>
VStem: 103 86<49.3073 327 371 597.325> 218 104<-156.458 -73.2479> 395 87<424.724 562.128> 442 99<97.3818 255.662>
LayerCount: 2
Fore
SplineSet
219 -115 m 0
 219 -88 243 -64 270 -64 c 0
 297 -64 321 -88 321 -115 c 0
 321 -142 297 -166 270 -166 c 0
 243 -166 219 -142 219 -115 c 0
189 559 m 2
 189 371 l 1
 261 371 l 2
 344 371 395 396 395 481 c 0
 395 583 330 604 274 604 c 0
 193 604 189 592.3 189 559 c 2
189 327 m 1
 189 88 l 2
 189 55 200 41 270 41 c 0
 422 41 442 92 442 165 c 0
 442 255 393 327 276 327 c 2
 189 327 l 1
146 645 m 0
 193.2 645 232 648 267 648 c 0
 453 648 482 560 482 493 c 0
 482 438 440 385 389 360 c 1
 476 335 541 280 541 184 c 0
 541 98 488 -3 289 -3 c 0
 200 -3 201.8 0 146 0 c 0
 111 0 94 -3 94 -3 c 1
 93 0 l 1
 101 54 103 125 103 200 c 2
 103 445 l 2
 103 520 101 588 93 645 c 1
 95 648 l 1
 95 648 112 645 146 645 c 0
EndSplineSet
LCarets2: 1 0 
Colour: ff00ff
EndChar

StartChar: uni1E05
Encoding: 7685 7685 134
Width: 497
VWidth: 999
Flags: HW
HStem: -167 104<183.248 266.458> -10 44<179.548 305.024> 385 54<196.637 317.65> 678 20<143.465 159.167>
VStem: 75 80<58.0308 360.44 384 667.981> 173 104<-156.458 -73.2479> 375 85<134.529 320.197>
LayerCount: 2
Fore
SplineSet
174 -115 m 0
 174 -88 198 -64 225 -64 c 0
 252 -64 276 -88 276 -115 c 0
 276 -142 252 -166 225 -166 c 0
 198 -166 174 -142 174 -115 c 0
155 81 m 1
 175 56 199 34 230 34 c 0
 325 34 375 110 375 224 c 0
 375 321 321 385 260 385 c 0
 249 385 194 383 155 343 c 1
 155 81 l 1
155 500 m 2
 155 384 l 1
 189 421 232 439 280 439 c 0
 367 439 460 364 460 242 c 0
 460 83 338 -10 236 -10 c 0
 193 -10 163 2 134 27 c 1
 119.5 14 110 2 101 -12 c 1
 91.5 -12 76 -10.8 70 -7 c 1
 74.2 14.8 75 32 75 71 c 2
 75 482 l 2
 75 558 72.7 627.3 65 670 c 1
 67 673 l 1
 107.5 676 130.9 688 156 698 c 1
 162.3 698 165 695 165 688 c 0
 157.3 626.7 155 574 155 500 c 2
EndSplineSet
LCarets2: 1 0 
Colour: ff00ff
EndChar

StartChar: uni1E06
Encoding: 7686 7686 135
Width: 582
VWidth: 999
Flags: HW
HStem: -106 44<137 148 148 415> -3 44<171.13 393.675> 327 44<189 355.197> 604 44<169.378 351.471>
VStem: 103 86<49.3073 327 371 597.325> 395 87<424.724 562.128> 442 99<97.3818 255.662>
LayerCount: 2
Fore
SplineSet
393 -106 m 2
 148 -106 l 2
 140 -106 136 -98 136 -91 c 0
 136 -79 146 -62 158 -62 c 2
 403 -62 l 2
 412 -62 416 -69 416 -76 c 0
 416 -88 406 -106 393 -106 c 2
189 559 m 2
 189 371 l 1
 261 371 l 2
 344 371 395 396 395 481 c 0
 395 583 330 604 274 604 c 0
 193 604 189 592.3 189 559 c 2
189 327 m 1
 189 88 l 2
 189 55 200 41 270 41 c 0
 422 41 442 92 442 165 c 0
 442 255 393 327 276 327 c 2
 189 327 l 1
146 645 m 0
 193.2 645 232 648 267 648 c 0
 453 648 482 560 482 493 c 0
 482 438 440 385 389 360 c 1
 476 335 541 280 541 184 c 0
 541 98 488 -3 289 -3 c 0
 200 -3 201.8 0 146 0 c 0
 111 0 94 -3 94 -3 c 1
 93 0 l 1
 101 54 103 125 103 200 c 2
 103 445 l 2
 103 520 101 588 93 645 c 1
 95 648 l 1
 95 648 112 645 146 645 c 0
EndSplineSet
LCarets2: 1 0 
Colour: ff00ff
EndChar

StartChar: uni1E07
Encoding: 7687 7687 136
Width: 497
VWidth: 999
Flags: HW
HStem: -110 44<107 118 118 385> -10 44<179.548 305.024> 385 54<196.637 317.65> 678 20<143.465 159.167>
VStem: 75 80<58.0308 360.44 384 667.981> 375 85<134.529 320.197>
LayerCount: 2
Fore
SplineSet
363 -110 m 2
 118 -110 l 2
 110 -110 106 -102 106 -95 c 0
 106 -83 116 -66 128 -66 c 2
 373 -66 l 2
 382 -66 386 -73 386 -80 c 0
 386 -92 376 -110 363 -110 c 2
155 81 m 1
 175 56 199 34 230 34 c 0
 325 34 375 110 375 224 c 0
 375 321 321 385 260 385 c 0
 249 385 194 383 155 343 c 1
 155 81 l 1
155 500 m 2
 155 384 l 1
 189 421 232 439 280 439 c 0
 367 439 460 364 460 242 c 0
 460 83 338 -10 236 -10 c 0
 193 -10 163 2 134 27 c 1
 119.5 14 110 2 101 -12 c 1
 91.5 -12 76 -10.8 70 -7 c 1
 74.2 14.8 75 32 75 71 c 2
 75 482 l 2
 75 558 72.7 627.3 65 670 c 1
 67 673 l 1
 107.5 676 130.9 688 156 698 c 1
 162.3 698 165 695 165 688 c 0
 157.3 626.7 155 574 155 500 c 2
EndSplineSet
LCarets2: 1 0 
Colour: ff00ff
EndChar

StartChar: uni1E08
Encoding: 7688 7688 137
Width: 650
VWidth: 999
Flags: HW
HStem: -185 25<286.659 383.933> -84 32<356.31 393.165> -10 51<269.467 470.143> 611 47<271.061 460.844> 697 122
VStem: 37 103<195.742 435.455> 269 201 400 53<-150.949 -88.278>
DStem2: 307 -84 356 -55 0.397156 0.917751<46.0754 95.3334>
LayerCount: 2
Fore
SplineSet
408 819 m 1
 436.6 805.7 457.3 788.3 470 767 c 1
 326 709 l 2
 305 700 293 697 284 697 c 0
 275 697 269 704 269 712 c 0
 269 719 271 724 284 733 c 2
 408 819 l 1
367 -100 m 0
 348 -100 338 -101 322 -106 c 1
 316 -100 l 1
 353.5 -10 l 2
 352.7 -10 351.8 -10 351 -10 c 0
 136 -10 37 154 37 315 c 0
 37 512 196 658 365 658 c 0
 487 658 583 613 583 613 c 1
 585 610 l 1
 573.2 560.7 568.6 550 565 499 c 1
 555 498 l 1
 514 580 441 611 351 611 c 0
 269 611 140 537 140 334 c 0
 140 188 205 41 360 41 c 0
 453 41 521 62 592 140 c 1
 615 125 l 1
 555.8 47.5 473 2.6 388.6 -7.7 c 1
 365 -71 l 1
 373 -69 382 -68 391 -68 c 0
 431 -68 462 -92 462 -130 c 0
 462 -173 416 -204 355 -204 c 0
 323 -204 306 -198 281 -187 c 1
 281 -175 284 -168 291 -161 c 1
 318 -171 329 -175 349 -175 c 0
 379 -175 400 -161 400 -135 c 0
 400 -114 390 -100 367 -100 c 0
EndSplineSet
LCarets2: 1 0 
Colour: ff00ff
EndChar

StartChar: uni1E09
Encoding: 7689 7689 138
Width: 437
VWidth: 999
Flags: HW
HStem: -198 29<156.047 256.231> -94 32<231.31 261.355> -10 54<198.612 332.08> 394 45<189.998 317.695>
VStem: 36 85<130.336 304.92> 266 62<-163.259 -95.4563>
DStem2: 182 -94 231 -65 0.384615 0.923077<45.6154 104>
LayerCount: 2
Fore
SplineSet
300 671 m 1
 303 672 309 673 314 673 c 0
 320.4 673 346 672 369 650 c 1
 372 639 l 1
 257 530 l 2
 242 515 234 511 227 511 c 0
 220 511 213 517 213 524 c 0
 213 535.2 216.3 539.2 224.4 552 c 2
 300 671 l 1
233 -94 m 0
 214 -94 204 -95 188 -100 c 1
 182 -94 l 1
 217.8 -8.1 l 1
 108.9 5.4 36 89.9 36 208 c 0
 36 350 153 439 261 439 c 0
 311 439 364 423 395 407 c 1
 397 404 l 1
 374 322 l 1
 361 321 l 1
 334.5 366.5 298.5 394 260 394 c 0
 194 394 121 340 121 230 c 0
 121 113 194 44 271 44 c 0
 314 44 350 62 381 107 c 1
 385 107 l 1
 405 91 l 1
 372.5 23.5 310.7 -9.1 251.5 -10 c 1
 231 -65 l 1
 239 -63 248 -62 257 -62 c 0
 297 -62 328 -86 328 -124 c 0
 328 -167 282 -198 221 -198 c 0
 189 -198 172 -192 147 -181 c 1
 147 -169 150 -162 157 -155 c 1
 184 -165 195 -169 215 -169 c 0
 245 -169 266 -155 266 -129 c 0
 266 -108 256 -94 233 -94 c 0
EndSplineSet
LCarets2: 1 0 
Colour: ff00ff
EndChar

StartChar: uni1E0A
Encoding: 7690 7690 139
Width: 698
VWidth: 999
Flags: HW
HStem: -2 44<168.546 432.266> 604 44<169.401 389.698> 693 104<254.248 337.458>
VStem: 101 86<49.3073 594.385> 244 104<703.542 786.752> 552 103<179.784 425.325>
LayerCount: 2
Fore
SplineSet
245 745 m 0
 245 772 269 796 296 796 c 0
 323 796 347 772 347 745 c 0
 347 718 323 694 296 694 c 0
 269 694 245 718 245 745 c 0
187 82 m 2
 187 50 198 42 296 42 c 0
 437 42 552 82 552 284 c 0
 552 438 487 604 271 604 c 0
 222 604 187 599 187 564 c 2
 187 82 l 2
144 645 m 0
 208 645 245 648 309 648 c 0
 501 648 655 494 655 308 c 0
 655 62 468 -2 327 -2 c 0
 224 -2 215 0 144 0 c 0
 109 0 92 -3 92 -3 c 1
 91 0 l 1
 99 54 101 125 101 200 c 2
 101 445 l 2
 101 520 99 588 91 645 c 1
 93 648 l 1
 93 648 110 645 144 645 c 0
EndSplineSet
LCarets2: 1 0 
Colour: ff00ff
EndChar

StartChar: uni1E0B
Encoding: 7691 7691 140
Width: 514
VWidth: 999
Flags: HW
HStem: -10 57<184.507 297.415> -3 21<374 383.667 449.5 458> 394 45<189.467 329.898> 519 104<190.248 273.458> 678 20<429.466 445.167>
VStem: 40 85<116.128 302.432> 180 104<529.542 612.752> 361 80<87.1288 364.244 417 667.981>
LayerCount: 2
Fore
SplineSet
181 571 m 0
 181 598 205 622 232 622 c 0
 259 622 283 598 283 571 c 0
 283 544 259 520 232 520 c 0
 205 520 181 544 181 571 c 0
361 109 m 1
 361 335 l 1
 337 373 313 394 266 394 c 0
 217.6 394 125 371 125 221 c 0
 125 96 190 47 244 47 c 0
 284.5 47 324.5 62.5 361 109 c 1
361 64 m 1
 325 17.5 266 -10 218 -10 c 0
 110 -10 40 80 40 203 c 0
 40 339 146.8 439 277 439 c 0
 297 439 338 430 361 417 c 1
 361 482 l 2
 361 558 358.7 627.3 351 670 c 1
 353 673 l 1
 393.5 676 416.9 688 442 698 c 1
 448.3 698 451 695 451 688 c 0
 443.3 626.7 441 574 441 500 c 2
 441 192 l 2
 441 117 450 43 458 0 c 1
 456 -3 l 1
 443 -1 424.1 0 411.5 0 c 0
 397 0 390.3 -1.3 377 -3 c 0
 371 -3 368 -2 368 0 c 2
 363 64 l 1
 361 64 l 1
EndSplineSet
LCarets2: 1 0 
Colour: ff00ff
EndChar

StartChar: uni1E0C
Encoding: 7692 7692 141
Width: 698
VWidth: 999
Flags: HW
HStem: -167 104<248.248 331.458> -2 44<168.546 432.266> 604 44<169.401 389.698>
VStem: 101 86<49.3073 594.385> 238 104<-156.458 -73.2479> 552 103<179.784 425.325>
LayerCount: 2
Fore
SplineSet
239 -115 m 0
 239 -88 263 -64 290 -64 c 0
 317 -64 341 -88 341 -115 c 0
 341 -142 317 -166 290 -166 c 0
 263 -166 239 -142 239 -115 c 0
187 82 m 2
 187 50 198 42 296 42 c 0
 437 42 552 82 552 284 c 0
 552 438 487 604 271 604 c 0
 222 604 187 599 187 564 c 2
 187 82 l 2
144 645 m 0
 208 645 245 648 309 648 c 0
 501 648 655 494 655 308 c 0
 655 62 468 -2 327 -2 c 0
 224 -2 215 0 144 0 c 0
 109 0 92 -3 92 -3 c 1
 91 0 l 1
 99 54 101 125 101 200 c 2
 101 445 l 2
 101 520 99 588 91 645 c 1
 93 648 l 1
 93 648 110 645 144 645 c 0
EndSplineSet
LCarets2: 1 0 
Colour: ff00ff
EndChar

StartChar: uni1E0D
Encoding: 7693 7693 142
Width: 514
VWidth: 999
Flags: HW
HStem: -167 104<244.248 327.458> -10 57<184.507 297.415> -3 21<374 383.667 449.5 458> 394 45<189.467 329.898> 678 20<429.466 445.167>
VStem: 40 85<116.128 302.432> 234 104<-156.458 -73.2479> 361 80<87.1288 364.244 417 667.981>
LayerCount: 2
Fore
SplineSet
235 -115 m 0
 235 -88 259 -64 286 -64 c 0
 313 -64 337 -88 337 -115 c 0
 337 -142 313 -166 286 -166 c 0
 259 -166 235 -142 235 -115 c 0
361 109 m 1
 361 335 l 1
 337 373 313 394 266 394 c 0
 217.6 394 125 371 125 221 c 0
 125 96 190 47 244 47 c 0
 284.5 47 324.5 62.5 361 109 c 1
361 64 m 1
 325 17.5 266 -10 218 -10 c 0
 110 -10 40 80 40 203 c 0
 40 339 146.8 439 277 439 c 0
 297 439 338 430 361 417 c 1
 361 482 l 2
 361 558 358.7 627.3 351 670 c 1
 353 673 l 1
 393.5 676 416.9 688 442 698 c 1
 448.3 698 451 695 451 688 c 0
 443.3 626.7 441 574 441 500 c 2
 441 192 l 2
 441 117 450 43 458 0 c 1
 456 -3 l 1
 443 -1 424.1 0 411.5 0 c 0
 397 0 390.3 -1.3 377 -3 c 0
 371 -3 368 -2 368 0 c 2
 363 64 l 1
 361 64 l 1
EndSplineSet
LCarets2: 1 0 
Colour: ff00ff
EndChar

StartChar: uni1E0E
Encoding: 7694 7694 143
Width: 698
VWidth: 999
Flags: HW
HStem: -105 44<144 155 155 422> -2 44<168.546 432.266> 604 44<169.401 389.698>
VStem: 101 86<49.3073 594.385> 552 103<179.784 425.325>
LayerCount: 2
Fore
SplineSet
400 -105 m 2
 155 -105 l 2
 147 -105 143 -97 143 -90 c 0
 143 -78 153 -61 165 -61 c 2
 410 -61 l 2
 419 -61 423 -68 423 -75 c 0
 423 -87 413 -105 400 -105 c 2
187 82 m 2
 187 50 198 42 296 42 c 0
 437 42 552 82 552 284 c 0
 552 438 487 604 271 604 c 0
 222 604 187 599 187 564 c 2
 187 82 l 2
144 645 m 0
 208 645 245 648 309 648 c 0
 501 648 655 494 655 308 c 0
 655 62 468 -2 327 -2 c 0
 224 -2 215 0 144 0 c 0
 109 0 92 -3 92 -3 c 1
 91 0 l 1
 99 54 101 125 101 200 c 2
 101 445 l 2
 101 520 99 588 91 645 c 1
 93 648 l 1
 93 648 110 645 144 645 c 0
EndSplineSet
LCarets2: 1 0 
Colour: ff00ff
EndChar

StartChar: uni1E0F
Encoding: 7695 7695 144
Width: 514
VWidth: 999
Flags: HW
HStem: -109 44<146 157 157 424> -10 57<184.507 297.415> -3 21<374 383.667 449.5 458> 394 45<189.467 329.898> 678 20<429.466 445.167>
VStem: 40 85<116.128 302.432> 361 80<87.1288 364.244 417 667.981>
LayerCount: 2
Fore
SplineSet
402 -109 m 2
 157 -109 l 2
 149 -109 145 -101 145 -94 c 0
 145 -82 155 -65 167 -65 c 2
 412 -65 l 2
 421 -65 425 -72 425 -79 c 0
 425 -91 415 -109 402 -109 c 2
361 109 m 1
 361 335 l 1
 337 373 313 394 266 394 c 0
 217.6 394 125 371 125 221 c 0
 125 96 190 47 244 47 c 0
 284.5 47 324.5 62.5 361 109 c 1
361 64 m 1
 325 17.5 266 -10 218 -10 c 0
 110 -10 40 80 40 203 c 0
 40 339 146.8 439 277 439 c 0
 297 439 338 430 361 417 c 1
 361 482 l 2
 361 558 358.7 627.3 351 670 c 1
 353 673 l 1
 393.5 676 416.9 688 442 698 c 1
 448.3 698 451 695 451 688 c 0
 443.3 626.7 441 574 441 500 c 2
 441 192 l 2
 441 117 450 43 458 0 c 1
 456 -3 l 1
 443 -1 424.1 0 411.5 0 c 0
 397 0 390.3 -1.3 377 -3 c 0
 371 -3 368 -2 368 0 c 2
 363 64 l 1
 361 64 l 1
EndSplineSet
LCarets2: 1 0 
Colour: ff00ff
EndChar

StartChar: uni1E10
Encoding: 7696 7696 145
Width: 698
VWidth: 999
Flags: HW
HStem: -181 25<103.659 200.933> -80 32<173.31 210.165> -2 44<168.546 432.266> 604 44<169.401 389.698>
VStem: 101 86<49.3073 594.385> 217 53<-146.949 -84.278> 552 103<179.784 425.325>
DStem2: 124 -80 173 -51 0.397156 0.917751<46.0754 95.3334>
LayerCount: 2
Fore
SplineSet
184 -96 m 0
 165 -96 155 -97 139 -102 c 1
 133 -96 l 1
 172.9 -0.1 l 1
 164.3 -1.49012e-09 154.9 0 144 0 c 0
 109 0 92 -3 92 -3 c 1
 91 0 l 1
 99 54 101 125 101 200 c 2
 101 445 l 2
 101 520 99 588 91 645 c 1
 93 648 l 1
 93 648 110 645 144 645 c 0
 208 645 245 648 309 648 c 0
 501 648 655 494 655 308 c 0
 655 62 468 -2 327 -2 c 0
 263.2 -2 235.5 -1.2 206.8 -0.6 c 1
 182 -67 l 1
 190 -65 199 -64 208 -64 c 0
 248 -64 279 -88 279 -126 c 0
 279 -169 233 -200 172 -200 c 0
 140 -200 123 -194 98 -183 c 1
 98 -171 101 -164 108 -157 c 1
 135 -167 146 -171 166 -171 c 0
 196 -171 217 -157 217 -131 c 0
 217 -110 207 -96 184 -96 c 0
187 82 m 2
 187 50 198 42 296 42 c 0
 437 42 552 82 552 284 c 0
 552 438 487 604 271 604 c 0
 222 604 187 599 187 564 c 2
 187 82 l 2
EndSplineSet
LCarets2: 1 0 
Colour: ff00ff
EndChar

StartChar: uni1E11
Encoding: 7697 7697 146
Width: 514
VWidth: 999
Flags: HW
HStem: -177 25<200.659 297.933> -76 32<270.31 307.165> -10 57<184.507 297.415> -3 21<374 383.667 449.5 458> 394 45<189.467 329.898> 678 20<429.466 445.167>
VStem: 40 85<116.128 302.432> 314 53<-142.949 -80.278> 361 80<87.1288 364.244 417 667.981>
DStem2: 221 -76 270 -47 0.397156 0.917751<46.0754 95.3334>
LayerCount: 2
Fore
SplineSet
281 -92 m 0
 262 -92 252 -93 236 -98 c 1
 230 -92 l 1
 267.8 -1.4 l 1
 250.8 -7.1 233.8 -10 218 -10 c 0
 110 -10 40 80 40 203 c 0
 40 339 146.8 439 277 439 c 0
 297 439 338 430 361 417 c 1
 361 482 l 2
 361 558 358.7 627.3 351 670 c 1
 353 673 l 1
 393.5 676 416.9 688 442 698 c 1
 448.3 698 451 695 451 688 c 0
 443.3 626.7 441 574 441 500 c 2
 441 192 l 2
 441 117 450 43 458 0 c 1
 456 -3 l 1
 443 -1 424.1 0 411.5 0 c 0
 397 0 390.3 -1.3 377 -3 c 0
 371 -3 368 -2 368 0 c 2
 363 64 l 1
 361 64 l 1
 340.2 37.1 311.7 16.5 282 4 c 1
 304 4 l 1
 279 -63 l 1
 287 -61 296 -60 305 -60 c 0
 345 -60 376 -84 376 -122 c 0
 376 -165 330 -196 269 -196 c 0
 237 -196 220 -190 195 -179 c 1
 195 -167 198 -160 205 -153 c 1
 232 -163 243 -167 263 -167 c 0
 293 -167 314 -153 314 -127 c 0
 314 -106 304 -92 281 -92 c 0
361 109 m 1
 361 335 l 1
 337 373 313 394 266 394 c 0
 217.6 394 125 371 125 221 c 0
 125 96 190 47 244 47 c 0
 284.5 47 324.5 62.5 361 109 c 1
EndSplineSet
LCarets2: 1 0 
Colour: ff00ff
EndChar

StartChar: uni1E12
Encoding: 7698 7698 147
Width: 698
VWidth: 999
Flags: HW
HStem: -2 44<168.546 432.266> 604 44<169.401 389.698>
VStem: 101 86<49.3073 594.385> 140 253<-186 -186> 552 103<179.784 425.325>
LayerCount: 2
Fore
SplineSet
292 -57 m 1
 321 -104 357 -146 393 -186 c 1
 372 -200 l 1
 333 -171 300 -146 266 -110 c 1
 229 -148 197 -173 159 -200 c 1
 139 -186 l 1
 175 -146 213 -103 242 -57 c 1
 292 -57 l 1
187 82 m 2
 187 50 198 42 296 42 c 0
 437 42 552 82 552 284 c 0
 552 438 487 604 271 604 c 0
 222 604 187 599 187 564 c 2
 187 82 l 2
144 645 m 0
 208 645 245 648 309 648 c 0
 501 648 655 494 655 308 c 0
 655 62 468 -2 327 -2 c 0
 224 -2 215 0 144 0 c 0
 109 0 92 -3 92 -3 c 1
 91 0 l 1
 99 54 101 125 101 200 c 2
 101 445 l 2
 101 520 99 588 91 645 c 1
 93 648 l 1
 93 648 110 645 144 645 c 0
EndSplineSet
LCarets2: 1 0 
Colour: ff00ff
EndChar

StartChar: uni1E13
Encoding: 7699 7699 148
Width: 514
VWidth: 999
Flags: HW
HStem: -10 57<184.507 297.415> -3 21<374 383.667 449.5 458> 394 45<189.467 329.898> 678 20<429.466 445.167>
VStem: 40 85<116.128 302.432> 140 253<-186 -186> 361 80<87.1288 364.244 417 667.981>
LayerCount: 2
Fore
SplineSet
292 -57 m 1
 321 -104 357 -146 393 -186 c 1
 372 -200 l 1
 333 -171 300 -146 266 -110 c 1
 229 -148 197 -173 159 -200 c 1
 139 -186 l 1
 175 -146 213 -103 242 -57 c 1
 292 -57 l 1
361 109 m 1
 361 335 l 1
 337 373 313 394 266 394 c 0
 217.6 394 125 371 125 221 c 0
 125 96 190 47 244 47 c 0
 284.5 47 324.5 62.5 361 109 c 1
361 64 m 1
 325 17.5 266 -10 218 -10 c 0
 110 -10 40 80 40 203 c 0
 40 339 146.8 439 277 439 c 0
 297 439 338 430 361 417 c 1
 361 482 l 2
 361 558 358.7 627.3 351 670 c 1
 353 673 l 1
 393.5 676 416.9 688 442 698 c 1
 448.3 698 451 695 451 688 c 0
 443.3 626.7 441 574 441 500 c 2
 441 192 l 2
 441 117 450 43 458 0 c 1
 456 -3 l 1
 443 -1 424.1 0 411.5 0 c 0
 397 0 390.3 -1.3 377 -3 c 0
 371 -3 368 -2 368 0 c 2
 363 64 l 1
 361 64 l 1
EndSplineSet
LCarets2: 1 0 
Colour: ff00ff
EndChar

StartChar: uni1E14
Encoding: 7700 7700 149
Width: 522
VWidth: 999
Flags: HW
HStem: 0 54<186.656 409.594> 321 42<182 388.188> 596 49<186.656 403.188> 733 44<164.094 442.5>
VStem: 96 86<55.2087 321 363 594.385> 163 281<733.205 777>
LayerCount: 2
Fore
SplineSet
420 733 m 2
 176 733 l 2
 167 733 163 741 163 748 c 0
 163 760 174 777 185 777 c 2
 430 777 l 2
 440 777 444 769 444 763 c 0
 444 751 433 733 420 733 c 2
182 200 m 2
 182 183 183 78 190 54 c 1
 324 54 472 66 472 66 c 1
 474 62 l 1
 473 54 472 39 472 29 c 0
 472 19 473 14 474 0 c 1
 472 -3 l 1
 456 -1 433 0 412 0 c 2
 139 0 l 2
 104 0 87 -3 87 -3 c 1
 86 0 l 1
 94 54 96 125 96 200 c 2
 96 445 l 2
 96 520 94 588 86 645 c 1
 88 648 l 1
 88 648 105 645 139 645 c 0
 169 645 402 645 402 645 c 2
 423 645 446 646 462 648 c 1
 464 645 l 1
 463 631 462 622 462 614 c 0
 462 605 463 596 464 588 c 1
 462 584 l 1
 462 584 324 596 190 596 c 1
 183 572 182 462 182 445 c 2
 182 363 l 1
 300 363 346 368 405 373 c 1
 408 370 l 1
 406 361 405 351 405 342 c 0
 405 333 406 323 408 314 c 1
 405 311 l 1
 336 318 230 321 182 321 c 1
 182 200 l 2
20.9 831.1 m 1
 114.1 757.2 l 2
 122.6 750.2 125.6 744.9 125.6 738.7 c 0
 125.6 731.7 120.3 725.5 114.1 725.5 c 0
 107.9 725.5 97.2 728.1 81 736 c 2
 -37.6 791.5 l 1
 -23.5 807.1 -5.4 820.9 20.9 831.1 c 1
EndSplineSet
LCarets2: 1 0 
Colour: ff00ff
EndChar

StartChar: uni1E15
Encoding: 7701 7701 150
Width: 442
VWidth: 999
Flags: HW
HStem: -10 59<197.345 335.48> 243 44<125 319.997> 399 40<175.584 290.389> 538 44<91.0876 369.515>
VStem: 34 88<132.133 243> 90 281<538.205 582> 320 89<254.5 358.106>
LayerCount: 2
Fore
SplineSet
212.2 765.2 m 1
 268.2 651.8 l 2
 272.2 642.8 273 636.5 273 630.2 c 0
 273 625.7 267.4 620.3 261 620.3 c 0
 256.2 620.3 250.6 624.8 237.8 638.3 c 2
 146.6 736.4 l 1
 148.2 746.3 l 1
 154.6 751.7 173 767 200.2 767 c 0
 204.2 767 209 766.1 212.2 765.2 c 1
347 538 m 2
 103 538 l 2
 94 538 90 546 90 553 c 0
 90 565 101 582 112 582 c 2
 357 582 l 2
 367 582 371 574 371 568 c 0
 371 556 360 538 347 538 c 2
125 287 m 1
 306 287 l 2
 316 287 320 292 320 301 c 0
 320 376 275 399 239 399 c 0
 216 399 142 391 125 287 c 1
396 105 m 1
 416 79 l 1
 378 27 317 -10 245 -10 c 0
 108 -10 34 84 34 199 c 0
 34 351 144 439 239 439 c 0
 371 439 409 344 409 260 c 0
 409 249 402 243 391 243 c 2
 122 243 l 1
 122 94 209 49 265 49 c 0
 320 49 361 67 396 105 c 1
EndSplineSet
LCarets2: 1 0 
Colour: ff00ff
EndChar

StartChar: uni1E16
Encoding: 7702 7702 151
Width: 522
VWidth: 999
Flags: HW
HStem: 0 54<186.656 409.594> 321 42<182 388.188> 596 49<186.656 403.188> 724.5 107.4 733 44<107.094 385.5>
VStem: 96 86<55.2087 321 363 594.385> 106 281<733.205 777> 428.1 154.8
LayerCount: 2
Fore
SplineSet
363 733 m 2
 119 733 l 2
 110 733 106 741 106 748 c 0
 106 760 117 777 128 777 c 2
 373 777 l 2
 383 777 387 769 387 763 c 0
 387 751 376 733 363 733 c 2
182 200 m 2
 182 183 183 78 190 54 c 1
 324 54 472 66 472 66 c 1
 474 62 l 1
 473 54 472 39 472 29 c 0
 472 19 473 14 474 0 c 1
 472 -3 l 1
 456 -1 433 0 412 0 c 2
 139 0 l 2
 104 0 87 -3 87 -3 c 1
 86 0 l 1
 94 54 96 125 96 200 c 2
 96 445 l 2
 96 520 94 588 86 645 c 1
 88 648 l 1
 88 648 105 645 139 645 c 0
 169 645 402 645 402 645 c 2
 423 645 446 646 462 648 c 1
 464 645 l 1
 463 631 462 622 462 614 c 0
 462 605 463 596 464 588 c 1
 462 584 l 1
 462 584 324 596 190 596 c 1
 183 572 182 462 182 445 c 2
 182 363 l 1
 300 363 346 368 405 373 c 1
 408 370 l 1
 406 361 405 351 405 342 c 0
 405 333 406 323 408 314 c 1
 405 311 l 1
 336 318 230 321 182 321 c 1
 182 200 l 2
535.1 831.9 m 1
 557.2 820.2 573 804.9 582.8 786.1 c 1
 472 735 l 2
 455.8 727.1 446.5 724.5 439.6 724.5 c 0
 432.7 724.5 428.1 730.7 428.1 737.7 c 0
 428.1 743.9 429.6 748.3 439.6 756.2 c 2
 535.1 831.9 l 1
EndSplineSet
LCarets2: 1 0 
Colour: ff00ff
EndChar

StartChar: uni1E17
Encoding: 7703 7703 152
Width: 442
VWidth: 999
Flags: HW
HStem: -10 59<197.345 335.48> 243 44<125 319.997> 399 40<175.584 290.389> 538 44<91.0876 369.515>
VStem: 34 88<132.133 243> 90 281<538.205 582> 320 89<254.5 358.106>
LayerCount: 2
Fore
SplineSet
264.4 759.2 m 1
 266.8 760.1 271.6 761 275.6 761 c 0
 280.7 761 301.2 760.1 319.6 740.3 c 1
 322 730.4 l 1
 230 632.3 l 2
 218 618.8 211.6 615.2 206 615.2 c 0
 200.4 615.2 194.8 620.6 194.8 626.9 c 0
 194.8 637 197.5 640.6 204 652.1 c 2
 264.4 759.2 l 1
347 538 m 2
 103 538 l 2
 94 538 90 546 90 553 c 0
 90 565 101 582 112 582 c 2
 357 582 l 2
 367 582 371 574 371 568 c 0
 371 556 360 538 347 538 c 2
125 287 m 1
 306 287 l 2
 316 287 320 292 320 301 c 0
 320 376 275 399 239 399 c 0
 216 399 142 391 125 287 c 1
396 105 m 1
 416 79 l 1
 378 27 317 -10 245 -10 c 0
 108 -10 34 84 34 199 c 0
 34 351 144 439 239 439 c 0
 371 439 409 344 409 260 c 0
 409 249 402 243 391 243 c 2
 122 243 l 1
 122 94 209 49 265 49 c 0
 320 49 361 67 396 105 c 1
EndSplineSet
LCarets2: 1 0 
Colour: ff00ff
EndChar

StartChar: uni1E18
Encoding: 7704 7704 153
Width: 522
VWidth: 999
Flags: HW
HStem: 0 54<186.656 409.594> 321 42<182 388.188> 596 49<186.656 403.188>
VStem: 96 86<55.2087 321 363 594.385> 148 253<-186 -186>
LayerCount: 2
Fore
SplineSet
300 -57 m 1
 329 -104 365 -146 401 -186 c 1
 380 -200 l 1
 341 -171 308 -146 274 -110 c 1
 237 -148 205 -173 167 -200 c 1
 147 -186 l 1
 183 -146 221 -103 250 -57 c 1
 300 -57 l 1
182 200 m 2
 182 183 183 78 190 54 c 1
 324 54 472 66 472 66 c 1
 474 62 l 1
 473 54 472 39 472 29 c 0
 472 19 473 14 474 0 c 1
 472 -3 l 1
 456 -1 433 0 412 0 c 2
 139 0 l 2
 104 0 87 -3 87 -3 c 1
 86 0 l 1
 94 54 96 125 96 200 c 2
 96 445 l 2
 96 520 94 588 86 645 c 1
 88 648 l 1
 88 648 105 645 139 645 c 0
 169 645 402 645 402 645 c 2
 423 645 446 646 462 648 c 1
 464 645 l 1
 463 631 462 622 462 614 c 0
 462 605 463 596 464 588 c 1
 462 584 l 1
 462 584 324 596 190 596 c 1
 183 572 182 462 182 445 c 2
 182 363 l 1
 300 363 346 368 405 373 c 1
 408 370 l 1
 406 361 405 351 405 342 c 0
 405 333 406 323 408 314 c 1
 405 311 l 1
 336 318 230 321 182 321 c 1
 182 200 l 2
EndSplineSet
LCarets2: 1 0 
Colour: ff00ff
EndChar

StartChar: uni1E19
Encoding: 7705 7705 154
Width: 442
VWidth: 999
Flags: HW
HStem: -10 59<197.345 335.48> 243 44<125 319.997> 399 40<175.584 290.389>
VStem: 34 88<132.133 243> 95 253<-186 -186> 320 89<254.5 358.106>
LayerCount: 2
Fore
SplineSet
247 -57 m 1
 276 -104 312 -146 348 -186 c 1
 327 -200 l 1
 288 -171 255 -146 221 -110 c 1
 184 -148 152 -173 114 -200 c 1
 94 -186 l 1
 130 -146 168 -103 197 -57 c 1
 247 -57 l 1
125 287 m 1
 306 287 l 2
 316 287 320 292 320 301 c 0
 320 376 275 399 239 399 c 0
 216 399 142 391 125 287 c 1
396 105 m 1
 416 79 l 1
 378 27 317 -10 245 -10 c 0
 108 -10 34 84 34 199 c 0
 34 351 144 439 239 439 c 0
 371 439 409 344 409 260 c 0
 409 249 402 243 391 243 c 2
 122 243 l 1
 122 94 209 49 265 49 c 0
 320 49 361 67 396 105 c 1
EndSplineSet
LCarets2: 1 0 
Colour: ff00ff
EndChar

StartChar: uni1E1A
Encoding: 7706 7706 155
Width: 522
VWidth: 999
Flags: HW
HStem: -164 44<285 372> -116 46<167 258> -77 10 0 54<186.656 409.594> 321 42<182 388.188> 596 49<186.656 403.188>
VStem: 96 86<55.2087 321 363 594.385>
LayerCount: 2
Fore
SplineSet
336 -120 m 0
 358 -120 372 -110 386 -68 c 1
 410 -74 l 1
 398 -134 369 -164 323 -164 c 0
 301 -164 280 -152 259 -138 c 0
 241 -127 222 -116 205 -116 c 0
 179 -116 166 -131 156 -164 c 1
 132 -159 l 1
 146 -100 169 -70 212 -70 c 0
 242 -70 264 -84 284 -98 c 0
 300 -110 317 -120 336 -120 c 0
182 200 m 2
 182 183 183 78 190 54 c 1
 324 54 472 66 472 66 c 1
 474 62 l 1
 473 54 472 39 472 29 c 0
 472 19 473 14 474 0 c 1
 472 -3 l 1
 456 -1 433 0 412 0 c 2
 139 0 l 2
 104 0 87 -3 87 -3 c 1
 86 0 l 1
 94 54 96 125 96 200 c 2
 96 445 l 2
 96 520 94 588 86 645 c 1
 88 648 l 1
 88 648 105 645 139 645 c 0
 169 645 402 645 402 645 c 2
 423 645 446 646 462 648 c 1
 464 645 l 1
 463 631 462 622 462 614 c 0
 462 605 463 596 464 588 c 1
 462 584 l 1
 462 584 324 596 190 596 c 1
 183 572 182 462 182 445 c 2
 182 363 l 1
 300 363 346 368 405 373 c 1
 408 370 l 1
 406 361 405 351 405 342 c 0
 405 333 406 323 408 314 c 1
 405 311 l 1
 336 318 230 321 182 321 c 1
 182 200 l 2
EndSplineSet
LCarets2: 1 0 
Colour: ff00ff
EndChar

StartChar: uni1E1B
Encoding: 7707 7707 156
Width: 442
VWidth: 999
Flags: HW
HStem: -162 44<237 324> -114 46<119 210> -75 10 -10 59<197.345 335.48> 243 44<125 319.997> 399 40<175.584 290.389>
VStem: 34 88<132.133 243> 320 89<254.5 358.106>
LayerCount: 2
Fore
SplineSet
288 -118 m 0
 310 -118 324 -108 338 -66 c 1
 362 -72 l 1
 350 -132 321 -162 275 -162 c 0
 253 -162 232 -150 211 -136 c 0
 193 -125 174 -114 157 -114 c 0
 131 -114 118 -129 108 -162 c 1
 84 -157 l 1
 98 -98 121 -68 164 -68 c 0
 194 -68 216 -82 236 -96 c 0
 252 -108 269 -118 288 -118 c 0
125 287 m 1
 306 287 l 2
 316 287 320 292 320 301 c 0
 320 376 275 399 239 399 c 0
 216 399 142 391 125 287 c 1
396 105 m 1
 416 79 l 1
 378 27 317 -10 245 -10 c 0
 108 -10 34 84 34 199 c 0
 34 351 144 439 239 439 c 0
 371 439 409 344 409 260 c 0
 409 249 402 243 391 243 c 2
 122 243 l 1
 122 94 209 49 265 49 c 0
 320 49 361 67 396 105 c 1
EndSplineSet
LCarets2: 1 0 
Colour: ff00ff
EndChar

StartChar: uni1E1C
Encoding: 7708 7708 157
Width: 522
VWidth: 999
Flags: HW
HStem: -181 25<194.656 291.938> -80 32<264.312 301.156> 0 54<186.656 409.594> 321 42<182 388.188> 596 49<186.656 403.188> 692 52<221 377>
VStem: 96 86<55.2087 321 363 594.385> 164 28<765 803> 308 53<-146.949 -84.278> 408 27<767 805>
DStem2: 215 -80 264 -51 0.397156 0.917751<46.0754 95.3334>
LayerCount: 2
Fore
SplineSet
436 805 m 1
 430 734 366 692 300 692 c 0
 227 692 169 735 164 805 c 1
 192 805 l 1
 200 766 247 744 300 744 c 0
 349 744 401 766 408 805 c 1
 436 805 l 1
275 -96 m 0
 256 -96 246 -97 230 -102 c 1
 224 -96 l 1
 264 0 l 1
 139 0 l 2
 104 0 87 -3 87 -3 c 1
 86 0 l 1
 94 54 96 125 96 200 c 2
 96 445 l 2
 96 520 94 588 86 645 c 1
 88 648 l 1
 88 648 105 645 139 645 c 0
 169 645 402 645 402 645 c 2
 423 645 446 646 462 648 c 1
 464 645 l 1
 463 631 462 622 462 614 c 0
 462 605 463 596 464 588 c 1
 462 584 l 1
 462 584 324 596 190 596 c 1
 183 572 182 462 182 445 c 2
 182 363 l 1
 300 363 346 368 405 373 c 1
 408 370 l 1
 406 361 405 351 405 342 c 0
 405 333 406 323 408 314 c 1
 405 311 l 1
 336 318 230 321 182 321 c 1
 182 200 l 2
 182 183 183 78 190 54 c 1
 324 54 472 66 472 66 c 1
 474 62 l 1
 473 54 472 39 472 29 c 0
 472 19 473 14 474 0 c 1
 472 -3 l 1
 456 -1 433 0 412 0 c 2
 298 0 l 1
 273 -67 l 1
 281 -65 290 -64 299 -64 c 0
 339 -64 370 -88 370 -126 c 0
 370 -169 324 -200 263 -200 c 0
 231 -200 214 -194 189 -183 c 1
 189 -171 192 -164 199 -157 c 1
 226 -167 237 -171 257 -171 c 0
 287 -171 308 -157 308 -131 c 0
 308 -110 298 -96 275 -96 c 0
EndSplineSet
LCarets2: 1 0 
Colour: ff00ff
EndChar

StartChar: uni1E1D
Encoding: 7709 7709 158
Width: 442
VWidth: 999
Flags: HW
HStem: -186 25<148.659 245.933> -85 32<218.31 255.165> -10 59<197.345 335.48> 243 44<125 319.997> 399 40<175.584 290.389> 501 57<150.968 287.898>
VStem: 34 88<132.133 243> 85 26<607.805 639.769> 262 53<-151.949 -89.278> 320 89<254.5 358.106> 328 27<609.333 639.63>
DStem2: 169 -85 218 -56 0.397156 0.917751<46.0754 95.3334>
LayerCount: 2
Fore
SplineSet
112 648 m 1
 123 595 166 558 220 558 c 0
 272 558 318 590 328 648 c 1
 355 636 l 1
 343 550 279 501 220 501 c 0
 150 501 99 551 85 636 c 1
 112 648 l 1
229 -101 m 0
 210 -101 200 -102 184 -107 c 1
 178 -101 l 1
 216.5 -8.6 l 1
 97.8 3.6 34 92.2 34 199 c 0
 34 351 144 439 239 439 c 0
 371 439 409 344 409 260 c 0
 409 249 402 243 391 243 c 2
 122 243 l 1
 122 94 209 49 265 49 c 0
 320 49 361 67 396 105 c 1
 416 79 l 1
 378.9 28.2 320 -8.2 250.2 -9.9 c 1
 227 -72 l 1
 235 -70 244 -69 253 -69 c 0
 293 -69 324 -93 324 -131 c 0
 324 -174 278 -205 217 -205 c 0
 185 -205 168 -199 143 -188 c 1
 143 -176 146 -169 153 -162 c 1
 180 -172 191 -176 211 -176 c 0
 241 -176 262 -162 262 -136 c 0
 262 -115 252 -101 229 -101 c 0
125 287 m 1
 306 287 l 2
 316 287 320 292 320 301 c 0
 320 376 275 399 239 399 c 0
 216 399 142 391 125 287 c 1
EndSplineSet
LCarets2: 1 0 
Colour: ff00ff
EndChar

StartChar: uni1E1E
Encoding: 7710 7710 159
Width: 477
VWidth: 999
Flags: HW
HStem: -3 21<88 141 141 194> 321 42<184 390.196> 596 49<188.662 405.195> 700 104<243.248 326.458>
VStem: 98 86<2.67992 321 363 594.385> 233 104<710.542 793.752>
LayerCount: 2
Fore
SplineSet
234 752 m 0
 234 779 258 803 285 803 c 0
 312 803 336 779 336 752 c 0
 336 725 312 701 285 701 c 0
 258 701 234 725 234 752 c 0
401 645 m 2
 425 645 448 646 464 648 c 1
 466 645 l 1
 465 631 464 622 464 614 c 0
 464 605 465 596 466 588 c 1
 464 584 l 1
 464 584 326 596 192 596 c 1
 185 572 184 462 184 445 c 2
 184 363 l 1
 302 363 348 368 407 373 c 1
 410 370 l 1
 408 361 407 351 407 342 c 0
 407 333 408 323 410 314 c 1
 407 311 l 1
 338 318 232 321 184 321 c 1
 184 200 l 2
 184 125 186 57 194 0 c 1
 192 -3 l 1
 192 -3 175 0 141 0 c 0
 106 0 89 -3 89 -3 c 1
 88 0 l 1
 96 54 98 125 98 200 c 2
 98 445 l 2
 98 520 96 588 88 645 c 1
 90 648 l 1
 90 648 107 645 141 645 c 2
 401 645 l 2
EndSplineSet
LCarets2: 1 0 
Colour: ff00ff
EndChar

StartChar: uni1E1F
Encoding: 7711 7711 160
Width: 308
VWidth: 999
Flags: HW
HStem: -3 21<83 133 133 183> 385 44<22 93 173 289> 638 60<212.167 319.107> 732 104<212.248 295.458>
VStem: 93 80<2.67975 385 429 572.061> 202 104<742.542 825.752>
LayerCount: 2
Fore
SplineSet
203 784 m 0
 203 811 227 835 254 835 c 0
 281 835 305 811 305 784 c 0
 305 757 281 733 254 733 c 0
 227 733 203 757 203 784 c 0
148 622 m 0
 184 671 239 698 302 698 c 0
 321 698 339 694 347 689 c 1
 348 686 l 1
 337 667 327 631 320 604 c 1
 309 603 l 1
 298 623 280 638 251 638 c 0
 193.7 638 168 590.2 168 535 c 0
 168 517 173 476 173 439 c 2
 173 429 l 1
 281 429 l 2
 286 429 289 427 289 423 c 2
 289 398 l 2
 289 389 275 385 266 385 c 2
 173 385 l 1
 173 200 l 2
 173 124.8 174.5 57 183 0 c 1
 181 -3 l 1
 181 -3 167.3 0 133 0 c 0
 98 0 84 -3 84 -3 c 1
 83 0 l 1
 91.5 53.5 93 125.5 93 200 c 2
 93 385 l 1
 27 385 l 2
 23 385 22 386 22 391 c 2
 22 409 l 2
 22 417 27 429 45 429 c 2
 93 429 l 1
 93 469 l 2
 93 547 112 573 148 622 c 0
EndSplineSet
LCarets2: 1 0 
Colour: ff00ff
EndChar

StartChar: uni1E20
Encoding: 7712 7712 161
Width: 699
VWidth: 999
Flags: HW
HStem: -10 46<295.106 519.78> 611 47<271.555 476.844> 733 44<227.088 505.515>
VStem: 32 103<213.43 430.807> 226 281<733.205 777> 546 86<83.5114 304.327>
LayerCount: 2
Fore
SplineSet
483 733 m 2
 239 733 l 2
 230 733 226 741 226 748 c 0
 226 760 237 777 248 777 c 2
 493 777 l 2
 503 777 507 769 507 763 c 0
 507 751 496 733 483 733 c 2
546 117 m 1
 544.5 192 544 250 536 307 c 1
 538 310 l 1
 538 310 555 307 589 307 c 0
 624 307 641 310 641 310 c 1
 642 307 l 1
 634 254 632 212 632 137 c 2
 632 131 l 2
 632 120 633.3 93.7 642 83 c 1
 642 80 l 1
 574.5 23.4 492.5 -10 376 -10 c 0
 175 -10 32 134 32 307 c 0
 32 527 209 658 381 658 c 0
 503 658 599 613 599 613 c 1
 601 610 l 1
 589.2 560.7 584.6 550 581 499 c 1
 571 498 l 1
 530 580 457 611 367 611 c 0
 232 611 135 502 135 327 c 0
 135 195 221 36 399 36 c 0
 453 36 512 42 546 74 c 1
 546 117 l 1
EndSplineSet
LCarets2: 1 0 
Colour: ff00ff
EndChar

StartChar: uni1E21
Encoding: 7713 7713 162
Width: 479
VWidth: 999
Flags: HW
HStem: -238 43<141.427 314.366> -15 62<137.607 251.772> -12 66<172.809 355.253> 136 44<169.974 279.135> 395 44<163.808 275.455> 538 44<102.088 380.515>
VStem: 32 66<-157.208 -57.419> 59 78<215.424 363.363> 64 56<55.5258 149.891> 101 281<538.205 582> 308 76<209.668 361.501> 392 61<-135.741 -44.0939>
LayerCount: 2
Fore
SplineSet
358 538 m 2
 114 538 l 2
 105 538 101 546 101 553 c 0
 101 565 112 582 123 582 c 2
 368 582 l 2
 378 582 382 574 382 568 c 0
 382 556 371 538 358 538 c 2
147.1 -13.7 m 1
 110.3 -42.9 98 -70.9 98 -104 c 0
 98 -172 178 -195 212 -195 c 0
 298 -195 392 -152 392 -91 c 0
 392 -65 385.5 -50.8 348 -29 c 0
 320.5 -13 283 -12 235 -12 c 0
 221.2 -12 195.5 -15 166 -15 c 0
 160.1 -15 153.5 -14.5 147.1 -13.7 c 1
384 289 m 0
 384 191 306 136 222 136 c 0
 185 136 160 143 137 157 c 1
 126 140 120 119 120 99 c 0
 120 56 150 47 178 47 c 0
 183 47 193 48 207 49 c 0
 230 52 253 54 270 54 c 0
 305 54 373.5 53 411 21 c 0
 439 -2.9 453 -36 453 -68 c 0
 453 -176 313 -238 184 -238 c 0
 111 -238 32 -211 32 -124 c 0
 32 -81 59 -35 110 -3 c 1
 85 10 64 38 64 74 c 0
 64 108 79 151 106 175 c 1
 79 202 59 233 59 287 c 0
 59 379 138 439 223 439 c 0
 244.5 439 264.4 436 282.3 430.4 c 1
 356.9 434.3 392.2 444.9 440 449 c 1
 443 446 l 1
 441 437 440 429 440 420 c 0
 440 411 441 403 443 394 c 1
 440 391 l 1
 398.8 395.2 365.7 399 335.6 401.4 c 1
 366.3 375 384 336.1 384 289 c 0
308 279 m 0
 308 354 274 395 214 395 c 0
 162 395 137 347 137 302 c 0
 137 238 161 180 227 180 c 0
 262 180 308 208 308 279 c 0
EndSplineSet
LCarets2: 1 0 
Colour: ff00ff
EndChar

StartChar: uni1E22
Encoding: 7714 7714 163
Width: 700
VWidth: 999
Flags: HW
HStem: -3 21<93 146 146 199 501 554 554 607> 321 42<187 513> 628 20<93 146 146 199 501 554 554 607> 693 104<312.248 395.458>
VStem: 103 86<2.67992 642.32> 302 104<703.542 786.752> 511 86<2.67992 642.32>
LayerCount: 2
Fore
SplineSet
511 445 m 2
 511 520 509 588 501 645 c 1
 503 648 l 1
 503 648 520 645 554 645 c 0
 589 645 606 648 606 648 c 1
 607 645 l 1
 599 592 597 520 597 445 c 2
 597 200 l 2
 597 125 599 57 607 0 c 1
 605 -3 l 1
 605 -3 588 0 554 0 c 0
 519 0 502 -3 502 -3 c 1
 501 0 l 1
 509 54 511 125 511 200 c 2
 511 321 l 1
 189 321 l 1
 189 200 l 2
 189 125 191 57 199 0 c 1
 197 -3 l 1
 197 -3 180 0 146 0 c 0
 111 0 94 -3 94 -3 c 1
 93 0 l 1
 101 54 103 125 103 200 c 2
 103 445 l 2
 103 520 101 588 93 645 c 1
 95 648 l 1
 95 648 112 645 146 645 c 0
 181 645 198 648 198 648 c 1
 199 645 l 1
 191 592 189 520 189 445 c 2
 189 363 l 1
 511 363 l 1
 511 445 l 2
303 745 m 0
 303 772 327 796 354 796 c 0
 381 796 405 772 405 745 c 0
 405 718 381 694 354 694 c 0
 327 694 303 718 303 745 c 0
EndSplineSet
LCarets2: 1 0 
Colour: ff00ff
EndChar

StartChar: uni1E23
Encoding: 7715 7715 164
Width: 520
VWidth: 999
Flags: HW
HStem: -3 21<73 123 123 173 348 398 398 448> 382 57<239.694 343.936> 519 104<246.248 329.458> 678 20<151.465 167.167>
VStem: 83 80<2.66453 327.568 360 667.98> 236 104<529.542 612.752> 358 80<2.66453 368.709>
LayerCount: 2
Fore
SplineSet
237 571 m 0
 237 598 261 622 288 622 c 0
 315 622 339 598 339 571 c 0
 339 544 315 520 288 520 c 0
 261 520 237 544 237 571 c 0
358 180 m 2
 358 285 l 2
 358 366 339 382 283 382 c 0
 254 382 211 356 163 309 c 1
 163 180 l 2
 163 103.8 164.5 57 173 0 c 1
 171 -3 l 1
 171 -3 157.3 0 123 0 c 0
 88 0 74 -3 74 -3 c 1
 73 0 l 1
 81.5 53.5 83 105.5 83 180 c 2
 83 481 l 2
 83 557 80.7 627.3 73 670 c 1
 75 673 l 1
 115.5 676 138.9 688 164 698 c 1
 170.3 698 173 695 173 688 c 0
 165.3 626.7 163 575 163 501 c 2
 163 360 l 1
 230 427 289 439 328 439 c 0
 400 439 438 387 438 284 c 2
 438 180 l 2
 438 103.8 439.5 57 448 0 c 1
 446 -3 l 1
 446 -3 432.3 0 398 0 c 0
 363 0 349 -3 349 -3 c 1
 348 0 l 1
 356.5 53.5 358 105.5 358 180 c 2
EndSplineSet
LCarets2: 1 0 
Colour: ff00ff
EndChar

StartChar: uni1E24
Encoding: 7716 7716 165
Width: 700
VWidth: 999
Flags: HW
HStem: -167 104<312.248 395.458> -3 21<93 146 146 199 501 554 554 607> 321 42<187 513> 628 20<93 146 146 199 501 554 554 607>
VStem: 103 86<2.67992 642.32> 302 104<-156.458 -73.248> 511 86<2.67992 642.32>
LayerCount: 2
Fore
SplineSet
511 445 m 2
 511 520 509 588 501 645 c 1
 503 648 l 1
 503 648 520 645 554 645 c 0
 589 645 606 648 606 648 c 1
 607 645 l 1
 599 592 597 520 597 445 c 2
 597 200 l 2
 597 125 599 57 607 0 c 1
 605 -3 l 1
 605 -3 588 0 554 0 c 0
 519 0 502 -3 502 -3 c 1
 501 0 l 1
 509 54 511 125 511 200 c 2
 511 321 l 1
 189 321 l 1
 189 200 l 2
 189 125 191 57 199 0 c 1
 197 -3 l 1
 197 -3 180 0 146 0 c 0
 111 0 94 -3 94 -3 c 1
 93 0 l 1
 101 54 103 125 103 200 c 2
 103 445 l 2
 103 520 101 588 93 645 c 1
 95 648 l 1
 95 648 112 645 146 645 c 0
 181 645 198 648 198 648 c 1
 199 645 l 1
 191 592 189 520 189 445 c 2
 189 363 l 1
 511 363 l 1
 511 445 l 2
303 -115 m 0
 303 -88 327 -64 354 -64 c 0
 381 -64 405 -88 405 -115 c 0
 405 -142 381 -166 354 -166 c 0
 327 -166 303 -142 303 -115 c 0
EndSplineSet
LCarets2: 1 0 
Colour: ff00ff
EndChar

StartChar: uni1E25
Encoding: 7717 7717 166
Width: 520
VWidth: 999
Flags: HW
HStem: -168 104<218.248 301.458> -3 21<73 123 123 173 348 398 398 448> 382 57<239.694 343.936> 678 20<151.465 167.167>
VStem: 83 80<2.66453 327.568 360 667.98> 208 104<-157.458 -74.2479> 358 80<2.66453 368.709>
LayerCount: 2
Fore
SplineSet
209 -116 m 0
 209 -89 233 -65 260 -65 c 0
 287 -65 311 -89 311 -116 c 0
 311 -143 287 -167 260 -167 c 0
 233 -167 209 -143 209 -116 c 0
358 180 m 2
 358 285 l 2
 358 366 339 382 283 382 c 0
 254 382 211 356 163 309 c 1
 163 180 l 2
 163 103.8 164.5 57 173 0 c 1
 171 -3 l 1
 171 -3 157.3 0 123 0 c 0
 88 0 74 -3 74 -3 c 1
 73 0 l 1
 81.5 53.5 83 105.5 83 180 c 2
 83 481 l 2
 83 557 80.7 627.3 73 670 c 1
 75 673 l 1
 115.5 676 138.9 688 164 698 c 1
 170.3 698 173 695 173 688 c 0
 165.3 626.7 163 575 163 501 c 2
 163 360 l 1
 230 427 289 439 328 439 c 0
 400 439 438 387 438 284 c 2
 438 180 l 2
 438 103.8 439.5 57 448 0 c 1
 446 -3 l 1
 446 -3 432.3 0 398 0 c 0
 363 0 349 -3 349 -3 c 1
 348 0 l 1
 356.5 53.5 358 105.5 358 180 c 2
EndSplineSet
LCarets2: 1 0 
Colour: ff00ff
EndChar

StartChar: uni1E26
Encoding: 7718 7718 167
Width: 700
VWidth: 999
Flags: HW
HStem: -3 21<93 146 146 199 501 554 554 607> 321 42<187 513> 628 20<93 146 146 199 501 554 554 607> 704 90<216.481 293.519 406.301 482.653>
VStem: 103 86<2.67992 642.32> 210 90<710.481 787.519> 399 91<711.347 787.699> 511 86<2.67992 642.32>
LayerCount: 2
Fore
SplineSet
511 445 m 2
 511 520 509 588 501 645 c 1
 503 648 l 1
 503 648 520 645 554 645 c 0
 589 645 606 648 606 648 c 1
 607 645 l 1
 599 592 597 520 597 445 c 2
 597 200 l 2
 597 125 599 57 607 0 c 1
 605 -3 l 1
 605 -3 588 0 554 0 c 0
 519 0 502 -3 502 -3 c 1
 501 0 l 1
 509 54 511 125 511 200 c 2
 511 321 l 1
 189 321 l 1
 189 200 l 2
 189 125 191 57 199 0 c 1
 197 -3 l 1
 197 -3 180 0 146 0 c 0
 111 0 94 -3 94 -3 c 1
 93 0 l 1
 101 54 103 125 103 200 c 2
 103 445 l 2
 103 520 101 588 93 645 c 1
 95 648 l 1
 95 648 112 645 146 645 c 0
 181 645 198 648 198 648 c 1
 199 645 l 1
 191 592 189 520 189 445 c 2
 189 363 l 1
 511 363 l 1
 511 445 l 2
396 750 m 0
 396 776 418 798 444 798 c 0
 470 798 492 776 492 750 c 0
 492 724 470 702 444 702 c 0
 418 702 396 724 396 750 c 0
207 750 m 0
 207 776 229 798 255 798 c 0
 281 798 303 776 303 750 c 0
 303 724 281 702 255 702 c 0
 229 702 207 724 207 750 c 0
EndSplineSet
LCarets2: 1 0 
Colour: ff00ff
EndChar

StartChar: uni1E27
Encoding: 7719 7719 168
Width: 520
VWidth: 999
Flags: HW
HStem: -3 21<73 123 123 173 348 398 398 448> 382 57<239.694 343.936> 527 91<215.053 290.947 352.053 428.653> 678 20<151.465 167.167>
VStem: 83 80<2.66453 327.568 360 667.98> 208 90<533.481 611.246> 345 91<534.053 610.653> 358 80<2.66453 368.709>
LayerCount: 2
Fore
SplineSet
345 572 m 0
 345 597 365 618 390 618 c 0
 415 618 436 597 436 572 c 0
 436 547 415 527 390 527 c 0
 365 527 345 547 345 572 c 0
208 572 m 0
 208 597 228 618 253 618 c 0
 278 618 298 597 298 572 c 0
 298 547 278 527 253 527 c 0
 228 527 208 547 208 572 c 0
358 180 m 2
 358 285 l 2
 358 366 339 382 283 382 c 0
 254 382 211 356 163 309 c 1
 163 180 l 2
 163 103.8 164.5 57 173 0 c 1
 171 -3 l 1
 171 -3 157.3 0 123 0 c 0
 88 0 74 -3 74 -3 c 1
 73 0 l 1
 81.5 53.5 83 105.5 83 180 c 2
 83 481 l 2
 83 557 80.7 627.3 73 670 c 1
 75 673 l 1
 115.5 676 138.9 688 164 698 c 1
 170.3 698 173 695 173 688 c 0
 165.3 626.7 163 575 163 501 c 2
 163 360 l 1
 230 427 289 439 328 439 c 0
 400 439 438 387 438 284 c 2
 438 180 l 2
 438 103.8 439.5 57 448 0 c 1
 446 -3 l 1
 446 -3 432.3 0 398 0 c 0
 363 0 349 -3 349 -3 c 1
 348 0 l 1
 356.5 53.5 358 105.5 358 180 c 2
EndSplineSet
LCarets2: 1 0 
Colour: ff80cc
EndChar

StartChar: uni1E28
Encoding: 7720 7720 169
Width: 700
VWidth: 999
Flags: HW
HStem: -177 25<83.659 180.933> -76 32<153.31 190.165> -3 21<93 146 146 199 501 554 554 607> 321 42<187 513> 628 20<93 146 146 199 501 554 554 607>
VStem: 103 86<2.67992 642.32> 197 53<-142.949 -80.278> 511 86<2.67992 642.32>
DStem2: 104 -76 153 -47 0.397156 0.917751<46.0754 95.3334>
LayerCount: 2
Fore
SplineSet
511 445 m 2
 511 520 509 588 501 645 c 1
 503 648 l 1
 503 648 520 645 554 645 c 0
 589 645 606 648 606 648 c 1
 607 645 l 1
 599 592 597 520 597 445 c 2
 597 200 l 2
 597 125 599 57 607 0 c 1
 605 -3 l 1
 605 -3 588 0 554 0 c 0
 519 0 502 -3 502 -3 c 1
 501 0 l 1
 509 54 511 125 511 200 c 2
 511 321 l 1
 189 321 l 1
 189 200 l 2
 189 125 191 57 199 0 c 1
 197 -3 l 1
 197 -3 192.9 -2.3 184.9 -1.6 c 1
 162 -63 l 1
 170 -61 179 -60 188 -60 c 0
 228 -60 259 -84 259 -122 c 0
 259 -165 213 -196 152 -196 c 0
 120 -196 103 -190 78 -179 c 1
 78 -167 81 -160 88 -153 c 1
 115 -163 126 -167 146 -167 c 0
 176 -167 197 -153 197 -127 c 0
 197 -106 187 -92 164 -92 c 0
 145 -92 135 -93 119 -98 c 1
 113 -92 l 1
 151.3 -0 l 1
 149.6 0 147.8 0 146 0 c 0
 111 0 94 -3 94 -3 c 1
 93 0 l 1
 101 54 103 125 103 200 c 2
 103 445 l 2
 103 520 101 588 93 645 c 1
 95 648 l 1
 95 648 112 645 146 645 c 0
 181 645 198 648 198 648 c 1
 199 645 l 1
 191 592 189 520 189 445 c 2
 189 363 l 1
 511 363 l 1
 511 445 l 2
EndSplineSet
LCarets2: 1 0 
Colour: ff00ff
EndChar

StartChar: uni1E29
Encoding: 7721 7721 170
Width: 520
VWidth: 999
Flags: HW
HStem: -175 25<54.659 151.933> -74 32<124.31 161.165> -3 21<73 123 123 173 348 398 398 448> 382 57<239.694 343.936> 678 20<151.465 167.167>
VStem: 83 80<2.66453 327.568 360 667.98> 168 53<-140.949 -78.278> 358 80<2.66453 368.709>
DStem2: 75 -74 124 -45 0.397156 0.917751<46.0754 95.3334>
LayerCount: 2
Fore
SplineSet
135 -90 m 0
 116 -90 106 -91 90 -96 c 1
 84 -90 l 1
 121.5 -0 l 1
 87.6 -0.1 74 -3 74 -3 c 1
 73 0 l 1
 81.5 53.5 83 105.5 83 180 c 2
 83 481 l 2
 83 557 80.7 627.3 73 670 c 1
 75 673 l 1
 115.5 676 138.9 688 164 698 c 1
 170.3 698 173 695 173 688 c 0
 165.3 626.7 163 575 163 501 c 2
 163 360 l 1
 230 427 289 439 328 439 c 0
 400 439 438 387 438 284 c 2
 438 180 l 2
 438 103.8 439.5 57 448 0 c 1
 446 -3 l 1
 446 -3 432.3 0 398 0 c 0
 363 0 349 -3 349 -3 c 1
 348 0 l 1
 356.5 53.5 358 105.5 358 180 c 2
 358 285 l 2
 358 366 339 382 283 382 c 0
 254 382 211 356 163 309 c 1
 163 180 l 2
 163 103.8 164.5 57 173 0 c 1
 171 -3 l 1
 171 -3 166.2 -2 155.3 -1.1 c 1
 133 -61 l 1
 141 -59 150 -58 159 -58 c 0
 199 -58 230 -82 230 -120 c 0
 230 -163 184 -194 123 -194 c 0
 91 -194 74 -188 49 -177 c 1
 49 -165 52 -158 59 -151 c 1
 86 -161 97 -165 117 -165 c 0
 147 -165 168 -151 168 -125 c 0
 168 -104 158 -90 135 -90 c 0
EndSplineSet
LCarets2: 1 0 
Colour: ff00ff
EndChar

StartChar: uni1E2A
Encoding: 7722 7722 171
Width: 700
VWidth: 999
Flags: HW
HStem: -199 57<274.968 411.898> -3 21<93 146 146 199 501 554 554 607> 321 42<187 513> 628 20<93 146 146 199 501 554 554 607>
VStem: 103 86<2.67992 642.32> 209 26<-92.195 -60.231> 452 27<-90.667 -60.37> 511 86<2.67992 642.32>
LayerCount: 2
Fore
SplineSet
511 445 m 2
 511 520 509 588 501 645 c 1
 503 648 l 1
 503 648 520 645 554 645 c 0
 589 645 606 648 606 648 c 1
 607 645 l 1
 599 592 597 520 597 445 c 2
 597 200 l 2
 597 125 599 57 607 0 c 1
 605 -3 l 1
 605 -3 588 0 554 0 c 0
 519 0 502 -3 502 -3 c 1
 501 0 l 1
 509 54 511 125 511 200 c 2
 511 321 l 1
 189 321 l 1
 189 200 l 2
 189 125 191 57 199 0 c 1
 197 -3 l 1
 197 -3 180 0 146 0 c 0
 111 0 94 -3 94 -3 c 1
 93 0 l 1
 101 54 103 125 103 200 c 2
 103 445 l 2
 103 520 101 588 93 645 c 1
 95 648 l 1
 95 648 112 645 146 645 c 0
 181 645 198 648 198 648 c 1
 199 645 l 1
 191 592 189 520 189 445 c 2
 189 363 l 1
 511 363 l 1
 511 445 l 2
236 -52 m 1
 247 -105 290 -142 344 -142 c 0
 396 -142 442 -110 452 -52 c 1
 479 -64 l 1
 467 -150 403 -199 344 -199 c 0
 274 -199 223 -149 209 -64 c 1
 236 -52 l 1
EndSplineSet
LCarets2: 1 0 
Colour: ff00ff
EndChar

StartChar: uni1E2B
Encoding: 7723 7723 172
Width: 520
VWidth: 999
Flags: HW
HStem: -209 57<209.968 346.898> -3 21<73 123 123 173 348 398 398 448> 382 57<239.694 343.936> 678 20<151.465 167.167>
VStem: 83 80<2.66453 327.568 360 667.98> 144 26<-102.195 -70.231> 358 80<2.66453 368.709> 387 27<-100.667 -70.37>
LayerCount: 2
Fore
SplineSet
171 -62 m 1
 182 -115 225 -152 279 -152 c 0
 331 -152 377 -120 387 -62 c 1
 414 -74 l 1
 402 -160 338 -209 279 -209 c 0
 209 -209 158 -159 144 -74 c 1
 171 -62 l 1
358 180 m 2
 358 285 l 2
 358 366 339 382 283 382 c 0
 254 382 211 356 163 309 c 1
 163 180 l 2
 163 103.8 164.5 57 173 0 c 1
 171 -3 l 1
 171 -3 157.3 0 123 0 c 0
 88 0 74 -3 74 -3 c 1
 73 0 l 1
 81.5 53.5 83 105.5 83 180 c 2
 83 481 l 2
 83 557 80.7 627.3 73 670 c 1
 75 673 l 1
 115.5 676 138.9 688 164 698 c 1
 170.3 698 173 695 173 688 c 0
 165.3 626.7 163 575 163 501 c 2
 163 360 l 1
 230 427 289 439 328 439 c 0
 400 439 438 387 438 284 c 2
 438 180 l 2
 438 103.8 439.5 57 448 0 c 1
 446 -3 l 1
 446 -3 432.3 0 398 0 c 0
 363 0 349 -3 349 -3 c 1
 348 0 l 1
 356.5 53.5 358 105.5 358 180 c 2
EndSplineSet
Colour: ff00ff
EndChar

StartChar: uni1E2C
Encoding: 7724 7724 173
Width: 293
VWidth: 999
Flags: HW
HStem: -164 44<165 252> -116 46<47 138> -77 10 -3 21<96 149 149 202> 628 20<96 149 149 202>
VStem: 106 86<2.67992 642.32>
LayerCount: 2
Fore
SplineSet
216 -120 m 0
 238 -120 252 -110 266 -68 c 1
 290 -74 l 1
 278 -134 249 -164 203 -164 c 0
 181 -164 160 -152 139 -138 c 0
 121 -127 102 -116 85 -116 c 0
 59 -116 46 -131 36 -164 c 1
 12 -159 l 1
 26 -100 49 -70 92 -70 c 0
 122 -70 144 -84 164 -98 c 0
 180 -110 197 -120 216 -120 c 0
106 445 m 2
 106 520 104 588 96 645 c 1
 98 648 l 1
 98 648 115 645 149 645 c 0
 184 645 201 648 201 648 c 1
 202 645 l 1
 194 592 192 520 192 445 c 2
 192 200 l 2
 192 125 194 57 202 0 c 1
 200 -3 l 1
 200 -3 183 0 149 0 c 0
 114 0 97 -3 97 -3 c 1
 96 0 l 1
 104 54 106 125 106 200 c 2
 106 445 l 2
EndSplineSet
LCarets2: 1 0 
Colour: ff00ff
EndChar

StartChar: uni1E2D
Encoding: 7725 7725 174
Width: 268
VWidth: 999
Flags: HW
HStem: -164 44<162 249> -116 46<44 135> -77 10 -3 21<84 134 134 184> 419 20<162.5 178> 518 104<92.248 175.458>
VStem: 82 104<528.542 611.752> 94 80<2.6647 408.973>
LayerCount: 2
Fore
SplineSet
213 -120 m 0
 235 -120 249 -110 263 -68 c 1
 287 -74 l 1
 275 -134 246 -164 200 -164 c 0
 178 -164 157 -152 136 -138 c 0
 118 -127 99 -116 82 -116 c 0
 56 -116 43 -131 33 -164 c 1
 9 -159 l 1
 23 -100 46 -70 89 -70 c 0
 119 -70 141 -84 161 -98 c 0
 177 -110 194 -120 213 -120 c 0
83 570 m 0
 83 597 107 621 134 621 c 0
 161 621 185 597 185 570 c 0
 185 543 161 519 134 519 c 0
 107 519 83 543 83 570 c 0
94 235 m 2
 94 310 92 368 84 411 c 1
 86 414 l 1
 126 417 150 429 175 439 c 1
 181 439 184 436 184 429 c 0
 176 368 174 326 174 251 c 2
 174 180 l 2
 174 104 176 57 184 0 c 1
 182 -3 l 1
 182 -3 168 0 134 0 c 0
 99 0 85 -3 85 -3 c 1
 84 0 l 1
 92 54 94 105 94 180 c 2
 94 235 l 2
EndSplineSet
LCarets2: 1 0 
Colour: ff00ff
EndChar

StartChar: uni1E2E
Encoding: 7726 7726 175
Width: 293
VWidth: 999
Flags: HW
HStem: -3 21<96 149 149 202> 628 20<96 149 149 202> 704 90<13.481 90.519 203.301 279.653> 782.5 107.4
VStem: 7 90<710.481 787.519> 106 86<2.67992 642.32> 118.1 154.8 196 91<711.347 787.699>
LayerCount: 2
Fore
SplineSet
225.1 889.9 m 1
 247.2 878.2 263.1 862.9 272.9 844.1 c 1
 162 793 l 2
 145.8 785.1 136.5 782.5 129.6 782.5 c 0
 122.7 782.5 118.1 788.7 118.1 795.7 c 0
 118.1 801.9 119.6 806.3 129.6 814.2 c 2
 225.1 889.9 l 1
193 750 m 0
 193 776 215 798 241 798 c 0
 267 798 289 776 289 750 c 0
 289 724 267 702 241 702 c 0
 215 702 193 724 193 750 c 0
4 750 m 0
 4 776 26 798 52 798 c 0
 78 798 100 776 100 750 c 0
 100 724 78 702 52 702 c 0
 26 702 4 724 4 750 c 0
106 445 m 2
 106 520 104 588 96 645 c 1
 98 648 l 1
 98 648 115 645 149 645 c 0
 184 645 201 648 201 648 c 1
 202 645 l 1
 194 592 192 520 192 445 c 2
 192 200 l 2
 192 125 194 57 202 0 c 1
 200 -3 l 1
 200 -3 183 0 149 0 c 0
 114 0 97 -3 97 -3 c 1
 96 0 l 1
 104 54 106 125 106 200 c 2
 106 445 l 2
EndSplineSet
LCarets2: 1 0 
Colour: ff00ff
EndChar

StartChar: uni1E2F
Encoding: 7727 7727 176
Width: 268
VWidth: 999
Flags: HW
HStem: -3 21<84 134 134 184> 419 20<162.5 178> 527 92<18.3474 95.6526 178.347 255.653>
VStem: 11 92<534.347 611.653> 94 80<2.6647 408.973> 171 92<534.347 611.653>
LayerCount: 2
Fore
SplineSet
188 740 m 1
 190.3 740.9 194.8 741.8 198.7 741.8 c 0
 203.6 741.8 223.4 741 241.1 721.6 c 1
 243.4 711.9 l 1
 154.8 616 l 2
 143.3 602.8 137.2 599.2 131.8 599.2 c 0
 126.4 599.2 121 604.5 121 610.7 c 0
 121 620.6 123.5 624 129.8 635.3 c 2
 188 740 l 1
11 573 m 0
 11 598 32 619 57 619 c 0
 82 619 103 598 103 573 c 0
 103 548 82 527 57 527 c 0
 32 527 11 548 11 573 c 0
171 573 m 0
 171 598 192 619 217 619 c 0
 242 619 263 598 263 573 c 0
 263 548 242 527 217 527 c 0
 192 527 171 548 171 573 c 0
94 235 m 2
 94 310 92 368 84 411 c 1
 86 414 l 1
 126 417 150 429 175 439 c 1
 181 439 184 436 184 429 c 0
 176 368 174 326 174 251 c 2
 174 180 l 2
 174 104 176 57 184 0 c 1
 182 -3 l 1
 182 -3 168 0 134 0 c 0
 99 0 85 -3 85 -3 c 1
 84 0 l 1
 92 54 94 105 94 180 c 2
 94 235 l 2
EndSplineSet
LCarets2: 1 0 
Colour: ff00ff
EndChar

StartChar: uni1E30
Encoding: 7728 7728 177
Width: 637
VWidth: 999
Flags: HW
HStem: -3 21<96 149 149 202 426 479.5 577.31 585.5> 628 20<96 149 149 202 440.5 491.5 541 577> 697 122
VStem: 106 86<2.67992 642.32> 270 201
DStem2: 281 352 197 322 0.662528 -0.749037<0 415.76>
LayerCount: 2
Fore
SplineSet
409 819 m 1
 437.6 805.7 458.3 788.3 471 767 c 1
 327 709 l 2
 306 700 294 697 285 697 c 0
 276 697 270 704 270 712 c 0
 270 719 272 724 285 733 c 2
 409 819 l 1
106 445 m 2
 106 520 104 588 96 645 c 1
 98 648 l 1
 98 648 115 645 149 645 c 0
 184 645 201 648 201 648 c 1
 202 645 l 1
 194 592 192 520 192 445 c 2
 192 347.9 l 1
 194.8 349.2 197.6 350.9 200 353 c 0
 288 430 396 546 485 648 c 1
 498 645 521 645 534 645 c 0
 549 645 569 645 585 648 c 1
 497 571 349 433 281 354 c 1
 281 352 l 1
 595 -3 l 1
 576 0 552 0 533 0 c 0
 516 0 488 0 471 -3 c 1
 381 108 238 281 197 322 c 0
 195.6 323.1 193.9 324.2 192 325 c 1
 192 200 l 2
 192 125 194 57 202 0 c 1
 200 -3 l 1
 200 -3 183 0 149 0 c 0
 114 0 97 -3 97 -3 c 1
 96 0 l 1
 104 54 106 125 106 200 c 2
 106 445 l 2
EndSplineSet
LCarets2: 1 0 
Colour: ff00ff
EndChar

StartChar: uni1E31
Encoding: 7729 7729 178
Width: 476
VWidth: 999
Flags: HW
HStem: -3 21<75 125 125 175 330.524 373.667 479.5 486> 212 25<164 188.776> 412 20<450.5 462> 678 20<153.465 169.167>
VStem: 85 80<2.67975 667.981>
LayerCount: 2
Fore
SplineSet
347 671 m 1
 350 672 356 673 361 673 c 0
 367.4 673 393 672 416 650 c 1
 419 639 l 1
 304 530 l 2
 289 515 281 511 274 511 c 0
 267 511 260 517 260 524 c 0
 260 535.2 263.3 539.2 271.4 552 c 2
 347 671 l 1
85 200 m 2
 85 482 l 2
 85 558 82.7 627.3 75 670 c 1
 77 673 l 1
 117.5 676 140.9 688 166 698 c 1
 172.3 698 175 695 175 688 c 0
 167.3 626.7 165 575 165 500 c 2
 165 237.9 l 1
 172.8 239.8 180.3 244.5 190 252 c 0
 229.6 282.5 301.9 366.5 345 429 c 1
 372 429 427 429 446 432 c 1
 448 429 l 1
 383 373.9 300.4 278.9 261 238 c 1
 356.4 122.8 394.6 78.6 469 0 c 1
 467 -3 l 1
 458 -1.2 423.7 0 407 0 c 0
 390 0 356.3 -1.2 341 -3 c 1
 270 95.8 251 135 186 203 c 0
 179.8 208.5 171.7 210.7 165 211.5 c 1
 165 200 l 2
 165 124.8 166.5 57 175 0 c 1
 173 -3 l 1
 173 -3 159.3 0 125 0 c 0
 90 0 76 -3 76 -3 c 1
 75 0 l 1
 83.5 53.5 85 125.5 85 200 c 2
EndSplineSet
LCarets2: 1 0 
Colour: ff00ff
EndChar

StartChar: uni1E32
Encoding: 7730 7730 179
Width: 637
VWidth: 999
Flags: HW
HStem: -167 104<284.248 367.458> -3 21<96 149 149 202 426 479.5 577.31 585.5> 628 20<96 149 149 202 440.5 491.5 541 577>
VStem: 106 86<2.67992 642.32> 274 104<-156.458 -73.2479>
DStem2: 281 352 197 322 0.662528 -0.749037<0 415.76>
LayerCount: 2
Fore
SplineSet
275 -115 m 0
 275 -88 299 -64 326 -64 c 0
 353 -64 377 -88 377 -115 c 0
 377 -142 353 -166 326 -166 c 0
 299 -166 275 -142 275 -115 c 0
106 445 m 2
 106 520 104 588 96 645 c 1
 98 648 l 1
 98 648 115 645 149 645 c 0
 184 645 201 648 201 648 c 1
 202 645 l 1
 194 592 192 520 192 445 c 2
 192 347.9 l 1
 194.8 349.2 197.6 350.9 200 353 c 0
 288 430 396 546 485 648 c 1
 498 645 521 645 534 645 c 0
 549 645 569 645 585 648 c 1
 497 571 349 433 281 354 c 1
 281 352 l 1
 595 -3 l 1
 576 0 552 0 533 0 c 0
 516 0 488 0 471 -3 c 1
 381 108 238 281 197 322 c 0
 195.6 323.1 193.9 324.2 192 325 c 1
 192 200 l 2
 192 125 194 57 202 0 c 1
 200 -3 l 1
 200 -3 183 0 149 0 c 0
 114 0 97 -3 97 -3 c 1
 96 0 l 1
 104 54 106 125 106 200 c 2
 106 445 l 2
EndSplineSet
LCarets2: 1 0 
Colour: ff00ff
EndChar

StartChar: uni1E33
Encoding: 7731 7731 180
Width: 476
VWidth: 999
Flags: HW
HStem: -167 104<210.248 293.458> -3 21<75 125 125 175 330.524 373.667 479.5 486> 212 25<164 188.776> 412 20<450.5 462> 678 20<153.465 169.167>
VStem: 85 80<2.67975 667.981> 200 104<-156.458 -73.2479>
LayerCount: 2
Fore
SplineSet
201 -115 m 0
 201 -88 225 -64 252 -64 c 0
 279 -64 303 -88 303 -115 c 0
 303 -142 279 -166 252 -166 c 0
 225 -166 201 -142 201 -115 c 0
85 200 m 2
 85 482 l 2
 85 558 82.7 627.3 75 670 c 1
 77 673 l 1
 117.5 676 140.9 688 166 698 c 1
 172.3 698 175 695 175 688 c 0
 167.3 626.7 165 575 165 500 c 2
 165 237.9 l 1
 172.8 239.8 180.3 244.5 190 252 c 0
 229.6 282.5 301.9 366.5 345 429 c 1
 372 429 427 429 446 432 c 1
 448 429 l 1
 383 373.9 300.4 278.9 261 238 c 1
 356.4 122.8 394.6 78.6 469 0 c 1
 467 -3 l 1
 458 -1.2 423.7 0 407 0 c 0
 390 0 356.3 -1.2 341 -3 c 1
 270 95.8 251 135 186 203 c 0
 179.8 208.5 171.7 210.7 165 211.5 c 1
 165 200 l 2
 165 124.8 166.5 57 175 0 c 1
 173 -3 l 1
 173 -3 159.3 0 125 0 c 0
 90 0 76 -3 76 -3 c 1
 75 0 l 1
 83.5 53.5 85 125.5 85 200 c 2
EndSplineSet
LCarets2: 1 0 
Colour: ff00ff
EndChar

StartChar: uni1E34
Encoding: 7732 7732 181
Width: 637
VWidth: 999
Flags: HW
HStem: -106 44<200 211 211 478> -3 21<96 149 149 202 426 479.5 577.31 585.5> 628 20<96 149 149 202 440.5 491.5 541 577>
VStem: 106 86<2.67992 642.32>
DStem2: 281 352 197 322 0.662528 -0.749037<0 415.76>
LayerCount: 2
Fore
SplineSet
456 -106 m 2
 211 -106 l 2
 203 -106 199 -98 199 -91 c 0
 199 -79 209 -62 221 -62 c 2
 466 -62 l 2
 475 -62 479 -69 479 -76 c 0
 479 -88 469 -106 456 -106 c 2
106 445 m 2
 106 520 104 588 96 645 c 1
 98 648 l 1
 98 648 115 645 149 645 c 0
 184 645 201 648 201 648 c 1
 202 645 l 1
 194 592 192 520 192 445 c 2
 192 347.9 l 1
 194.8 349.2 197.6 350.9 200 353 c 0
 288 430 396 546 485 648 c 1
 498 645 521 645 534 645 c 0
 549 645 569 645 585 648 c 1
 497 571 349 433 281 354 c 1
 281 352 l 1
 595 -3 l 1
 576 0 552 0 533 0 c 0
 516 0 488 0 471 -3 c 1
 381 108 238 281 197 322 c 0
 195.6 323.1 193.9 324.2 192 325 c 1
 192 200 l 2
 192 125 194 57 202 0 c 1
 200 -3 l 1
 200 -3 183 0 149 0 c 0
 114 0 97 -3 97 -3 c 1
 96 0 l 1
 104 54 106 125 106 200 c 2
 106 445 l 2
EndSplineSet
LCarets2: 1 0 
Colour: ff00ff
EndChar

StartChar: uni1E35
Encoding: 7733 7733 182
Width: 476
VWidth: 999
Flags: HW
HStem: -107 44<124 135 135 402> -3 21<75 125 125 175 330.524 373.667 479.5 486> 212 25<164 188.776> 412 20<450.5 462> 678 20<153.465 169.167>
VStem: 85 80<2.67975 667.981>
LayerCount: 2
Fore
SplineSet
380 -107 m 2
 135 -107 l 2
 127 -107 123 -99 123 -92 c 0
 123 -80 133 -63 145 -63 c 2
 390 -63 l 2
 399 -63 403 -70 403 -77 c 0
 403 -89 393 -107 380 -107 c 2
85 200 m 2
 85 482 l 2
 85 558 82.7 627.3 75 670 c 1
 77 673 l 1
 117.5 676 140.9 688 166 698 c 1
 172.3 698 175 695 175 688 c 0
 167.3 626.7 165 575 165 500 c 2
 165 237.9 l 1
 172.8 239.8 180.3 244.5 190 252 c 0
 229.6 282.5 301.9 366.5 345 429 c 1
 372 429 427 429 446 432 c 1
 448 429 l 1
 383 373.9 300.4 278.9 261 238 c 1
 356.4 122.8 394.6 78.6 469 0 c 1
 467 -3 l 1
 458 -1.2 423.7 0 407 0 c 0
 390 0 356.3 -1.2 341 -3 c 1
 270 95.8 251 135 186 203 c 0
 179.8 208.5 171.7 210.7 165 211.5 c 1
 165 200 l 2
 165 124.8 166.5 57 175 0 c 1
 173 -3 l 1
 173 -3 159.3 0 125 0 c 0
 90 0 76 -3 76 -3 c 1
 75 0 l 1
 83.5 53.5 85 125.5 85 200 c 2
EndSplineSet
LCarets2: 1 0 
Colour: ff00ff
EndChar

StartChar: uni1E36
Encoding: 7734 7734 183
Width: 526
VWidth: 999
Flags: HW
HStem: -167 104<235.248 318.458> 0 54<193.662 416.584> 628 20<92 146 146 199>
VStem: 103 86<55.2087 642.32> 225 104<-156.458 -73.2479>
LayerCount: 2
Fore
SplineSet
226 -115 m 0
 226 -88 250 -64 277 -64 c 0
 304 -64 328 -88 328 -115 c 0
 328 -142 304 -166 277 -166 c 0
 250 -166 226 -142 226 -115 c 0
189 200 m 2
 189 183 190 78 197 54 c 1
 331 54 479 66 479 66 c 1
 481 62 l 1
 480 54 479 39 479 29 c 0
 479 19 480 14 481 0 c 1
 479 -3 l 1
 463 -1 440 0 419 0 c 2
 146 0 l 2
 112 0 94 -3 94 -3 c 1
 93 0 l 1
 101 54 103 125 103 200 c 2
 103 445 l 2
 103 520 100 588 92 645 c 1
 94 648 l 1
 94 648 112 645 146 645 c 0
 181 645 198 648 198 648 c 1
 199 645 l 1
 191 592 189 520 189 445 c 2
 189 200 l 2
EndSplineSet
LCarets2: 1 0 
Colour: ff00ff
EndChar

StartChar: uni1E37
Encoding: 7735 7735 184
Width: 260
VWidth: 999
Flags: HW
HStem: -167 104<90.2479 173.458> -3 21<80 130 130 180> 678 20<158.465 174.167>
VStem: 80 104<-156.458 -73.2479> 90 80<2.67975 667.981>
LayerCount: 2
Fore
SplineSet
90 200 m 2
 90 482 l 2
 90 558 87.7 627.3 80 670 c 1
 82 673 l 1
 122.5 676 145.9 688 171 698 c 1
 177.3 698 180 695 180 688 c 0
 172.3 626.7 170 575 170 500 c 2
 170 200 l 2
 170 124.8 171.5 57 180 0 c 1
 178 -3 l 1
 178 -3 164.3 0 130 0 c 0
 95 0 81 -3 81 -3 c 1
 80 0 l 1
 88.5 53.5 90 125.5 90 200 c 2
81 -115 m 0
 81 -88 105 -64 132 -64 c 0
 159 -64 183 -88 183 -115 c 0
 183 -142 159 -166 132 -166 c 0
 105 -166 81 -142 81 -115 c 0
EndSplineSet
LCarets2: 1 0 
Colour: ff00ff
EndChar

StartChar: uni1E38
Encoding: 7736 7736 185
Width: 526
VWidth: 999
Flags: HW
HStem: -167 104<235.248 318.458> 0 54<193.662 416.584> 628 20<92 146 146 199> 733 44<11.0876 289.515>
VStem: 10 281<733.205 777> 103 86<55.2087 642.32> 225 104<-156.458 -73.2479>
LayerCount: 2
Fore
SplineSet
267 733 m 2
 23 733 l 2
 14 733 10 741 10 748 c 0
 10 760 21 777 32 777 c 2
 277 777 l 2
 287 777 291 769 291 763 c 0
 291 751 280 733 267 733 c 2
226 -115 m 0
 226 -88 250 -64 277 -64 c 0
 304 -64 328 -88 328 -115 c 0
 328 -142 304 -166 277 -166 c 0
 250 -166 226 -142 226 -115 c 0
189 200 m 2
 189 183 190 78 197 54 c 1
 331 54 479 66 479 66 c 1
 481 62 l 1
 480 54 479 39 479 29 c 0
 479 19 480 14 481 0 c 1
 479 -3 l 1
 463 -1 440 0 419 0 c 2
 146 0 l 2
 112 0 94 -3 94 -3 c 1
 93 0 l 1
 101 54 103 125 103 200 c 2
 103 445 l 2
 103 520 100 588 92 645 c 1
 94 648 l 1
 94 648 112 645 146 645 c 0
 181 645 198 648 198 648 c 1
 199 645 l 1
 191 592 189 520 189 445 c 2
 189 200 l 2
EndSplineSet
LCarets2: 1 0 
Colour: ff00ff
EndChar

StartChar: uni1E39
Encoding: 7737 7737 186
Width: 260
VWidth: 999
Flags: HW
HStem: -167 104<90.2479 173.458> -3 21<80 130 130 180> 678 20<158.465 174.167> 756 44<-14.9124 263.515>
VStem: -16 281<756.205 800> 80 104<-156.458 -73.2479> 90 80<2.67975 667.981>
LayerCount: 2
Fore
SplineSet
90 200 m 2
 90 482 l 2
 90 558 87.7 627.3 80 670 c 1
 82 673 l 1
 122.5 676 145.9 688 171 698 c 1
 177.3 698 180 695 180 688 c 0
 172.3 626.7 170 575 170 500 c 2
 170 200 l 2
 170 124.8 171.5 57 180 0 c 1
 178 -3 l 1
 178 -3 164.3 0 130 0 c 0
 95 0 81 -3 81 -3 c 1
 80 0 l 1
 88.5 53.5 90 125.5 90 200 c 2
81 -115 m 0
 81 -88 105 -64 132 -64 c 0
 159 -64 183 -88 183 -115 c 0
 183 -142 159 -166 132 -166 c 0
 105 -166 81 -142 81 -115 c 0
241 756 m 2
 -3 756 l 2
 -12 756 -16 764 -16 771 c 0
 -16 783 -5 800 6 800 c 2
 251 800 l 2
 261 800 265 792 265 786 c 0
 265 774 254 756 241 756 c 2
EndSplineSet
LCarets2: 1 0 
Colour: ff00ff
EndChar

StartChar: uni1E3A
Encoding: 7738 7738 187
Width: 526
VWidth: 999
Flags: HW
HStem: -112 44<132 143 143 410> 0 54<193.662 416.584> 628 20<92 146 146 199>
VStem: 103 86<55.2087 642.32>
LayerCount: 2
Fore
SplineSet
388 -112 m 2
 143 -112 l 2
 135 -112 131 -104 131 -97 c 0
 131 -85 141 -68 153 -68 c 2
 398 -68 l 2
 407 -68 411 -75 411 -82 c 0
 411 -94 401 -112 388 -112 c 2
189 200 m 2
 189 183 190 78 197 54 c 1
 331 54 479 66 479 66 c 1
 481 62 l 1
 480 54 479 39 479 29 c 0
 479 19 480 14 481 0 c 1
 479 -3 l 1
 463 -1 440 0 419 0 c 2
 146 0 l 2
 112 0 94 -3 94 -3 c 1
 93 0 l 1
 101 54 103 125 103 200 c 2
 103 445 l 2
 103 520 100 588 92 645 c 1
 94 648 l 1
 94 648 112 645 146 645 c 0
 181 645 198 648 198 648 c 1
 199 645 l 1
 191 592 189 520 189 445 c 2
 189 200 l 2
EndSplineSet
LCarets2: 1 0 
Colour: ff00ff
EndChar

StartChar: uni1E3B
Encoding: 7739 7739 188
Width: 260
VWidth: 999
Flags: HW
HStem: -112 44<-9 2 2 269> -3 21<80 130 130 180> 678 20<158.465 174.167>
VStem: 90 80<2.67975 667.981>
LayerCount: 2
Fore
SplineSet
90 200 m 2
 90 482 l 2
 90 558 87.7 627.3 80 670 c 1
 82 673 l 1
 122.5 676 145.9 688 171 698 c 1
 177.3 698 180 695 180 688 c 0
 172.3 626.7 170 575 170 500 c 2
 170 200 l 2
 170 124.8 171.5 57 180 0 c 1
 178 -3 l 1
 178 -3 164.3 0 130 0 c 0
 95 0 81 -3 81 -3 c 1
 80 0 l 1
 88.5 53.5 90 125.5 90 200 c 2
247 -112 m 2
 2 -112 l 2
 -6 -112 -10 -104 -10 -97 c 0
 -10 -85 0 -68 12 -68 c 2
 257 -68 l 2
 266 -68 270 -75 270 -82 c 0
 270 -94 260 -112 247 -112 c 2
EndSplineSet
LCarets2: 1 0 
Colour: ff00ff
EndChar

StartChar: uni1E3C
Encoding: 7740 7740 189
Width: 526
VWidth: 999
Flags: HW
HStem: 0 54<193.662 416.584> 628 20<92 146 146 199>
VStem: 103 86<55.2087 642.32> 155 253<-186 -186>
LayerCount: 2
Fore
SplineSet
307 -57 m 1
 336 -104 372 -146 408 -186 c 1
 387 -200 l 1
 348 -171 315 -146 281 -110 c 1
 244 -148 212 -173 174 -200 c 1
 154 -186 l 1
 190 -146 228 -103 257 -57 c 1
 307 -57 l 1
189 200 m 2
 189 183 190 78 197 54 c 1
 331 54 479 66 479 66 c 1
 481 62 l 1
 480 54 479 39 479 29 c 0
 479 19 480 14 481 0 c 1
 479 -3 l 1
 463 -1 440 0 419 0 c 2
 146 0 l 2
 112 0 94 -3 94 -3 c 1
 93 0 l 1
 101 54 103 125 103 200 c 2
 103 445 l 2
 103 520 100 588 92 645 c 1
 94 648 l 1
 94 648 112 645 146 645 c 0
 181 645 198 648 198 648 c 1
 199 645 l 1
 191 592 189 520 189 445 c 2
 189 200 l 2
EndSplineSet
LCarets2: 1 0 
Colour: ff00ff
EndChar

StartChar: uni1E3D
Encoding: 7741 7741 190
Width: 260
VWidth: 999
Flags: HW
HStem: -3 21<80 130 130 180> 678 20<158.465 174.167>
VStem: 6 253<-186 -186> 90 80<2.67975 667.981>
LayerCount: 2
Fore
SplineSet
90 200 m 2
 90 482 l 2
 90 558 87.7 627.3 80 670 c 1
 82 673 l 1
 122.5 676 145.9 688 171 698 c 1
 177.3 698 180 695 180 688 c 0
 172.3 626.7 170 575 170 500 c 2
 170 200 l 2
 170 124.8 171.5 57 180 0 c 1
 178 -3 l 1
 178 -3 164.3 0 130 0 c 0
 95 0 81 -3 81 -3 c 1
 80 0 l 1
 88.5 53.5 90 125.5 90 200 c 2
158 -57 m 1
 187 -104 223 -146 259 -186 c 1
 238 -200 l 1
 199 -171 166 -146 132 -110 c 1
 95 -148 63 -173 25 -200 c 1
 5 -186 l 1
 41 -146 79 -103 108 -57 c 1
 158 -57 l 1
EndSplineSet
LCarets2: 1 0 
Colour: ff00ff
EndChar

StartChar: uni1E3E
Encoding: 7742 7742 191
Width: 839
VWidth: 999
Flags: HW
HStem: -3 21<46.5 57.5 111.5 117.486 361.968 453.552 697.173 711.5 787.5 795.5> 697 122
VStem: 325 201
LayerCount: 2
Fore
SplineSet
464 819 m 1
 492.6 805.7 513.3 788.3 526 767 c 1
 382 709 l 2
 361 700 349 697 340 697 c 0
 331 697 325 704 325 712 c 0
 325 719 327 724 340 733 c 2
 464 819 l 1
133 662 m 1
 159 662 l 1
 243.4 487.4 330.1 320.8 424.9 146.5 c 1
 703 662 l 1
 725 662 l 1
 753 419 772 214 803 -3 c 1
 788 0 768 0 753 0 c 0
 738 0 719 0 704 -3 c 1
 690.3 162.8 677.7 315.2 658.5 472.9 c 1
 574.6 318.1 490.1 166.7 417 0 c 1
 398 0 l 1
 325.9 152.9 241.5 312.4 160.5 472.1 c 1
 142.6 315.9 118 101.1 117 -3 c 1
 106 0 90 0 79 0 c 0
 67 0 52 0 41 -3 c 1
 74 207 112 461 133 662 c 1
EndSplineSet
LCarets2: 1 0 
Colour: ff00ff
EndChar

StartChar: uni1E3F
Encoding: 7743 7743 192
Width: 765
VWidth: 999
Flags: HW
HStem: -3 21<70 120 120 170 332 382 382 432 595 645 645 695> 381 58<226.093 320.744 483.539 587.727>
VStem: 80 80<2.6647 331.01> 342 80<2.66453 310.443> 605 80<2.66453 366.224>
LayerCount: 2
Fore
SplineSet
388 671 m 1
 391 672 397 673 402 673 c 0
 408.4 673 434 672 457 650 c 1
 460 639 l 1
 345 530 l 2
 330 515 322 511 315 511 c 0
 308 511 301 517 301 524 c 0
 301 535.2 304.3 539.2 312.4 552 c 2
 388 671 l 1
605 180 m 2
 605 292 l 2
 605 359 585 381 531 381 c 0
 492 381 469 364 421 311 c 1
 422 299 422 295 422 281 c 2
 422 180 l 2
 422 103.8 423.5 57 432 0 c 1
 430 -3 l 1
 430 -3 416.3 0 382 0 c 0
 347 0 333 -3 333 -3 c 1
 332 0 l 1
 340.5 53.5 342 105.5 342 180 c 2
 342 290 l 2
 342 357 307 381 269 381 c 0
 234 381 207 359 160 310 c 1
 160 180 l 2
 160 104 161.5 57 170 0 c 1
 168 -3 l 1
 168 -3 154.3 0 120 0 c 0
 85 0 71 -3 71 -3 c 1
 70 0 l 1
 78.5 53.5 80 105 80 180 c 2
 80 235 l 2
 80 309.7 77.7 368.3 70 411 c 1
 72 414 l 1
 112.5 417 132.9 429 158 439 c 1
 164.3 439 167 436 167 429 c 1
 162 398.7 157.8 360 157.8 360 c 1
 160 360 l 1
 207 410 243 439 305 439 c 0
 361 439 408 405 415 360 c 1
 472 420 513 439 567 439 c 0
 675 439 685 369 685 280 c 2
 685 180 l 2
 685 103.8 686.5 57 695 0 c 1
 693 -3 l 1
 693 -3 679.3 0 645 0 c 0
 610 0 596 -3 596 -3 c 1
 595 0 l 1
 603.5 53.5 605 105.5 605 180 c 2
EndSplineSet
LCarets2: 1 0 
Colour: ff00ff
EndChar

StartChar: uni1E40
Encoding: 7744 7744 193
Width: 839
VWidth: 999
Flags: HW
HStem: -3 21<46.5 57.5 111.5 117.486 361.968 453.552 697.173 711.5 787.5 795.5> 693 104<383.248 466.458>
VStem: 373 104<703.542 786.752>
LayerCount: 2
Fore
SplineSet
374 745 m 0
 374 772 398 796 425 796 c 0
 452 796 476 772 476 745 c 0
 476 718 452 694 425 694 c 0
 398 694 374 718 374 745 c 0
133 662 m 1
 159 662 l 1
 243.4 487.4 330.1 320.8 424.9 146.5 c 1
 703 662 l 1
 725 662 l 1
 753 419 772 214 803 -3 c 1
 788 0 768 0 753 0 c 0
 738 0 719 0 704 -3 c 1
 690.3 162.8 677.7 315.2 658.5 472.9 c 1
 574.6 318.1 490.1 166.7 417 0 c 1
 398 0 l 1
 325.9 152.9 241.5 312.4 160.5 472.1 c 1
 142.6 315.9 118 101.1 117 -3 c 1
 106 0 90 0 79 0 c 0
 67 0 52 0 41 -3 c 1
 74 207 112 461 133 662 c 1
EndSplineSet
LCarets2: 1 0 
Colour: ff00ff
EndChar

StartChar: uni1E41
Encoding: 7745 7745 194
Width: 765
VWidth: 999
Flags: HW
HStem: -3 21<70 120 120 170 332 382 382 432 595 645 645 695> 381 58<226.093 320.744 483.539 587.727> 521 104<326.248 409.458>
VStem: 80 80<2.6647 331.01> 316 104<531.542 614.752> 342 80<2.66453 310.443> 605 80<2.66453 366.224>
LayerCount: 2
Fore
SplineSet
317 573 m 0
 317 600 341 624 368 624 c 0
 395 624 419 600 419 573 c 0
 419 546 395 522 368 522 c 0
 341 522 317 546 317 573 c 0
605 180 m 2
 605 292 l 2
 605 359 585 381 531 381 c 0
 492 381 469 364 421 311 c 1
 422 299 422 295 422 281 c 2
 422 180 l 2
 422 103.8 423.5 57 432 0 c 1
 430 -3 l 1
 430 -3 416.3 0 382 0 c 0
 347 0 333 -3 333 -3 c 1
 332 0 l 1
 340.5 53.5 342 105.5 342 180 c 2
 342 290 l 2
 342 357 307 381 269 381 c 0
 234 381 207 359 160 310 c 1
 160 180 l 2
 160 104 161.5 57 170 0 c 1
 168 -3 l 1
 168 -3 154.3 0 120 0 c 0
 85 0 71 -3 71 -3 c 1
 70 0 l 1
 78.5 53.5 80 105 80 180 c 2
 80 235 l 2
 80 309.7 77.7 368.3 70 411 c 1
 72 414 l 1
 112.5 417 132.9 429 158 439 c 1
 164.3 439 167 436 167 429 c 1
 162 398.7 157.8 360 157.8 360 c 1
 160 360 l 1
 207 410 243 439 305 439 c 0
 361 439 408 405 415 360 c 1
 472 420 513 439 567 439 c 0
 675 439 685 369 685 280 c 2
 685 180 l 2
 685 103.8 686.5 57 695 0 c 1
 693 -3 l 1
 693 -3 679.3 0 645 0 c 0
 610 0 596 -3 596 -3 c 1
 595 0 l 1
 603.5 53.5 605 105.5 605 180 c 2
EndSplineSet
LCarets2: 1 0 
Colour: ff00ff
EndChar

StartChar: uni1E42
Encoding: 7746 7746 195
Width: 839
VWidth: 999
Flags: HW
HStem: -167 104<354.248 437.458> -3 21<46.5 57.5 111.5 117.486 361.968 453.552 697.173 711.5 787.5 795.5>
VStem: 344 104<-156.458 -73.2479>
LayerCount: 2
Fore
SplineSet
345 -115 m 0
 345 -88 369 -64 396 -64 c 0
 423 -64 447 -88 447 -115 c 0
 447 -142 423 -166 396 -166 c 0
 369 -166 345 -142 345 -115 c 0
133 662 m 1
 159 662 l 1
 243.4 487.4 330.1 320.8 424.9 146.5 c 1
 703 662 l 1
 725 662 l 1
 753 419 772 214 803 -3 c 1
 788 0 768 0 753 0 c 0
 738 0 719 0 704 -3 c 1
 690.3 162.8 677.7 315.2 658.5 472.9 c 1
 574.6 318.1 490.1 166.7 417 0 c 1
 398 0 l 1
 325.9 152.9 241.5 312.4 160.5 472.1 c 1
 142.6 315.9 118 101.1 117 -3 c 1
 106 0 90 0 79 0 c 0
 67 0 52 0 41 -3 c 1
 74 207 112 461 133 662 c 1
EndSplineSet
LCarets2: 1 0 
Colour: ff00ff
EndChar

StartChar: uni1E43
Encoding: 7747 7747 196
Width: 765
VWidth: 999
Flags: HW
HStem: -167 104<325.248 408.458> -3 21<70 120 120 170 332 382 382 432 595 645 645 695> 381 58<226.093 320.744 483.539 587.727>
VStem: 80 80<2.6647 331.01> 315 104<-156.458 -73.2479> 342 80<2.66453 310.443> 605 80<2.66453 366.224>
LayerCount: 2
Fore
SplineSet
316 -115 m 0
 316 -88 340 -64 367 -64 c 0
 394 -64 418 -88 418 -115 c 0
 418 -142 394 -166 367 -166 c 0
 340 -166 316 -142 316 -115 c 0
605 180 m 2
 605 292 l 2
 605 359 585 381 531 381 c 0
 492 381 469 364 421 311 c 1
 422 299 422 295 422 281 c 2
 422 180 l 2
 422 103.8 423.5 57 432 0 c 1
 430 -3 l 1
 430 -3 416.3 0 382 0 c 0
 347 0 333 -3 333 -3 c 1
 332 0 l 1
 340.5 53.5 342 105.5 342 180 c 2
 342 290 l 2
 342 357 307 381 269 381 c 0
 234 381 207 359 160 310 c 1
 160 180 l 2
 160 104 161.5 57 170 0 c 1
 168 -3 l 1
 168 -3 154.3 0 120 0 c 0
 85 0 71 -3 71 -3 c 1
 70 0 l 1
 78.5 53.5 80 105 80 180 c 2
 80 235 l 2
 80 309.7 77.7 368.3 70 411 c 1
 72 414 l 1
 112.5 417 132.9 429 158 439 c 1
 164.3 439 167 436 167 429 c 1
 162 398.7 157.8 360 157.8 360 c 1
 160 360 l 1
 207 410 243 439 305 439 c 0
 361 439 408 405 415 360 c 1
 472 420 513 439 567 439 c 0
 675 439 685 369 685 280 c 2
 685 180 l 2
 685 103.8 686.5 57 695 0 c 1
 693 -3 l 1
 693 -3 679.3 0 645 0 c 0
 610 0 596 -3 596 -3 c 1
 595 0 l 1
 603.5 53.5 605 105.5 605 180 c 2
EndSplineSet
LCarets2: 1 0 
Colour: ff00ff
EndChar

